<?xml version="1.0" standalone="no"?>
<!DOCTYPE svg PUBLIC "-//W3C//DTD SVG 1.1//EN" "http://www.w3.org/Graphics/SVG/1.1/DTD/svg11.dtd" >
<svg xmlns="http://www.w3.org/2000/svg" xmlns:xlink="http://www.w3.org/1999/xlink" version="1.1">
<metadata>
Created by FontForge 20201107 at Tue Apr 23 07:31:19 2024
 By 
(c) 2024 Red Keds CA
</metadata>
<defs>
<font id="NauryzRedKeds" horiz-adv-x="2351" >
  <font-face 
    font-family="NauryzRedKeds"
    font-weight="700"
    font-stretch="normal"
    units-per-em="2048"
    panose-1="2 11 7 4 2 2 2 2 2 4"
    ascent="1638"
    descent="-410"
    x-height="1466"
    cap-height="1466"
    bbox="-2535 -3031 4287 1769"
    underline-thickness="215"
    underline-position="-323"
    unicode-range="U+000D-FB05"
  />
<missing-glyph horiz-adv-x="1536" 
d="M256 0v1280h1024v-1280h-1024zM288 32h960v1216h-960v-1216z" />
    <glyph glyph-name=".notdef" horiz-adv-x="1536" 
d="M256 0v1280h1024v-1280h-1024zM288 32h960v1216h-960v-1216z" />
    <glyph glyph-name=".null" horiz-adv-x="0" 
 />
    <glyph glyph-name=".null" horiz-adv-x="0" 
 />
    <glyph glyph-name="uni000D" unicode="&#xd;" horiz-adv-x="512" 
 />
    <glyph glyph-name="space" unicode=" " horiz-adv-x="569" 
 />
    <glyph glyph-name="space" unicode="&#xa0;" horiz-adv-x="569" 
 />
    <glyph glyph-name="exclam" unicode="!" horiz-adv-x="534" 
d="M399 1466v-1087h-261v1087h261zM138 260h261v-261h-261v261z" />
    <glyph glyph-name="quotedbl" unicode="&#x22;" horiz-adv-x="792" 
d="M177 945l-53 521h216v-521h-163zM524 945l-53 521h216v-521h-163z" />
    <glyph glyph-name="numbersign" unicode="#" horiz-adv-x="1138" 
d="M221 485h-165l1 151h196l48 244h-245l1 152h277l91 459h152l-91 -459h293l89 459h160l-92 -459h150v-152h-183l-48 -244h232v-151h-265l-103 -510h-151l101 510h-294l-103 -510h-154zM454 880l-47 -244h294l46 244h-293z" />
    <glyph glyph-name="dollar" unicode="$" horiz-adv-x="1479" 
d="M675 -128h-166v113q-130 24 -244 71t-201 108l96 212q71 -65 160.5 -106t188.5 -61v433q-91 26 -174.5 60.5t-146.5 84t-100.5 116t-37.5 156.5q0 75 25.5 142.5t81 122.5t142.5 94.5t210 58.5v107h166v-93h11l24 1h11q27 0 53.5 -1.5t53.5 -3.5v97h166v-124
q104 -23 195.5 -61t158.5 -89l-98 -217q-60 51 -124.5 85.5t-131.5 55.5v-477q88 -24 167 -54.5t139 -72.5t95 -99t35 -133q0 -70 -28 -134t-83 -117t-136.5 -93t-188.5 -63v-119h-166v96q-49 -3 -103 -3h-25t-25 1v-94zM675 830q75 -16 153 -33v472q-28 4 -55 5.5t-53 1.5
q-12 0 -23 -0.5t-22 -0.5v-445zM284 1059q0 -34 16.5 -61.5t46 -50t71 -40.5t91.5 -33v379q-60 -14 -102.5 -36t-69.5 -47.5t-40 -54t-13 -56.5zM675 187q16 -2 32 -2h32q46 0 89 3v379q-37 8 -75.5 16.5t-77.5 16.5v-413zM994 212q44 11 81 27t63 36t40.5 45t14.5 55
q0 27 -14.5 49t-40.5 40.5t-62.5 33.5t-81.5 28v-314z" />
    <glyph glyph-name="percent" unicode="%" horiz-adv-x="1483" 
d="M385 1491q68 0 128.5 -26t105.5 -71t71 -105t26 -129q0 -68 -26 -128t-71 -105t-105.5 -71t-128.5 -26q-69 0 -129 26t-105 71t-71 105t-26 128q0 69 26 129t71 105t105 71t129 26zM1165 1462l-664 -1467h-192l657 1467h199zM385 1322q-33 0 -61 -13t-48.5 -35.5t-32 -52
t-11.5 -61.5t11.5 -61t32 -51.5t48.5 -35.5t61 -13t61 13t48.5 35.5t32 51.5t11.5 61t-11.5 61t-32 51.5t-48.5 36t-61 13.5zM1109 657q69 0 129 -26t105 -71t71 -105t26 -129q0 -68 -26 -128.5t-71 -105.5t-105 -71t-129 -26t-129 26t-105 71t-71 105.5t-26 128.5
q0 69 26 129t71 105t105 71t129 26zM1109 488q-33 0 -61 -13.5t-48.5 -36t-32 -51.5t-11.5 -61t11.5 -61t32 -51.5t48.5 -35.5t61 -13t61 13t48.5 35.5t32 51.5t11.5 61t-11.5 61t-32 51.5t-48.5 36t-61 13.5z" />
    <glyph glyph-name="ampersand" unicode="&#x26;" horiz-adv-x="1359" 
d="M1187 22q-1 0 -3.5 2.5t-16.5 15t-43.5 38.5t-83.5 74q-7 -7 -25.5 -25t-48.5 -41.5t-71 -49t-92 -46.5t-112 -35t-131 -14q-150 0 -251 38.5t-162.5 99t-87.5 135.5t-26 147q0 46 16.5 90t42.5 84t59.5 76t68 65.5t66.5 52.5t56 38q-91 81 -132 167.5t-42 130t-1 48.5
q0 77 30.5 148.5t84.5 126.5t125.5 87.5t148.5 32.5q95 0 166.5 -28.5t121.5 -75t78 -107t33.5 -106t5.5 -71.5q0 -38 -9 -88.5t-38 -103.5q-20 -36 -42.5 -68t-44 -58t-40.5 -44.5t-33 -27.5q64 -57 125.5 -111t120.5 -105q33 62 55.5 120t37 103.5t21 73.5t6.5 29l239 -49
q-1 -7 -11.5 -48.5t-31 -103t-52.5 -137.5t-78 -154q58 -51 90.5 -79.5t48.5 -42.5l25 -23zM428 1147q-4 -17 -4 -34q0 -14 4.5 -36t18 -48t31.5 -48.5t35.5 -39.5t31.5 -28.5t19 -15.5q67 53 102 102t44.5 82.5t9.5 56.5q0 15 -6 39.5t-27.5 49.5t-52 38.5t-62.5 13.5
q-23 0 -46 -7.5t-42.5 -24t-34 -41t-21.5 -59.5zM535 598q-85 -49 -133 -88.5t-70.5 -71t-27.5 -56t-5 -44.5q0 -31 15.5 -60.5t49 -52t85.5 -36t124 -13.5q81 0 150 36.5t134 101.5q-75 66 -156 138t-166 146z" />
    <glyph glyph-name="quotesingle" unicode="'" horiz-adv-x="338" 
d="M108 945l-53 521h216v-521h-163z" />
    <glyph glyph-name="parenleft" unicode="(" horiz-adv-x="597" 
d="M576 -199q-77 0 -147.5 32.5t-132 91.5t-111 142.5t-85 185.5t-55 220t-19.5 247t19.5 247.5t55 220.5t85 185.5t111 142.5t132 91.5t147.5 32.5v-155q-53 0 -103.5 -28t-94 -78.5t-80 -120.5t-62.5 -155t-40.5 -182t-14.5 -201q0 -155 31.5 -294t85.5 -243.5t126 -165.5
t152 -61v-155z" />
    <glyph glyph-name="parenright" unicode=")" horiz-adv-x="581" 
d="M6 -199v155q80 0 152 61t126 165.5t85.5 243.5t31.5 294q0 104 -14.5 201t-40.5 182t-62.5 155t-80 120.5t-94 78.5t-103.5 28v155q116 0 216.5 -71t174.5 -195.5t116.5 -292t42.5 -361.5q0 -129 -19.5 -247t-54.5 -220t-85 -185.5t-111 -142.5t-132 -91.5t-148 -32.5z
" />
    <glyph glyph-name="asterisk" unicode="*" horiz-adv-x="797" 
d="M702 1108h-183l129 -129l-71 -71l-129 129v-183h-101v183l-129 -129l-72 71l130 129h-183v101h183l-130 129l72 72l129 -130v183h101v-183l129 130l71 -72l-129 -129h183v-101z" />
    <glyph glyph-name="plus" unicode="+" horiz-adv-x="1196" 
d="M499 211v411h-414v203h414v411h196v-411h415v-203h-415v-411h-196z" />
    <glyph glyph-name="comma" unicode="," horiz-adv-x="569" 
d="M140 281h281v-201q0 -122 -21 -192.5t-79.5 -126.5t-148.5 -88l-55 116q85 28 121 77t38 134h-136v281z" />
    <glyph glyph-name="hyphen" unicode="-" horiz-adv-x="668" 
d="M101 586v245h552v-245h-552z" />
    <glyph glyph-name="hyphen" unicode="&#xad;" horiz-adv-x="668" 
d="M101 586v245h552v-245h-552z" />
    <glyph glyph-name="period" unicode="." horiz-adv-x="543" 
d="M94 260h261v-261h-261v261z" />
    <glyph glyph-name="slash" unicode="/" horiz-adv-x="904" 
d="M131 -193h-180l826 1826h180z" />
    <glyph glyph-name="zero" unicode="0" horiz-adv-x="1409" 
d="M706 1480q94 0 181.5 -26t163.5 -74.5t138 -116.5t106.5 -151.5t69 -180.5t24.5 -203t-24.5 -203t-69 -180t-106.5 -150t-138 -114.5t-163.5 -73.5t-181.5 -26t-181.5 25.5t-163.5 73.5t-138 115t-106.5 150t-69 180t-24.5 203t24.5 203t69 180.5t106.5 151.5t138 116.5
t163.5 74.5t181.5 26zM706 1238q-87 0 -152 -33t-128 -104q-69 -78 -105.5 -169.5t-36.5 -203.5q0 -113 36.5 -201t105.5 -166q32 -36 63 -60.5t65 -39.5t71.5 -21.5t80.5 -6.5t80.5 6.5t71 21.5t65 39.5t63.5 60.5q69 78 105.5 166t36.5 201q0 112 -36.5 203.5
t-105.5 169.5q-32 36 -63.5 61.5t-65 42.5t-71 25t-80.5 8z" />
    <glyph glyph-name="one" unicode="1" horiz-adv-x="1039" 
d="M90 0l277 611q-60 -38 -128.5 -69.5t-146.5 -52.5l-62 228q82 22 151.5 60t126 82t99.5 89.5t72 82.5t44.5 60.5t15.5 24.5l209 351h278l-663 -1467h-273z" />
    <glyph glyph-name="two" unicode="2" horiz-adv-x="961" 
d="M492 1265q-42 0 -83.5 -13.5t-71 -49t-36.5 -77.5t-7 -68q0 -49 13 -114l-260 1q-16 69 -16 131q0 48 16 121.5t78 147t158.5 114.5t214.5 41q70 0 141.5 -25.5t131.5 -73t101.5 -114.5t48 -119.5t6.5 -75.5q0 -65 -24.5 -149t-104.5 -191q-14 -18 -41 -51.5t-62.5 -77
t-78 -94t-86 -104t-87 -106t-82.5 -100.5h337v186h244v-404h-882v265l359 424q97 108 148 193t66.5 138.5t15.5 87.5q0 17 -6 46.5t-30 57.5t-57 40.5t-64 12.5z" />
    <glyph glyph-name="three" unicode="3" horiz-adv-x="732" 
d="M464 731q87 -24 144 -69.5t85 -103t28 -122.5q0 -1 -0.5 -35t-27.5 -99.5t-81 -125.5t-132.5 -106.5t-181.5 -74t-229 -27.5l-3 249q99 0 178 25t130.5 63t66 72.5t14.5 56.5t-14.5 53.5t-77 63.5t-174.5 43v264q113 11 175 44t76.5 65t14.5 54q0 23 -15 58.5t-66 75
t-130 65.5t-178 26l3 246q124 0 226 -27.5t180 -73.5t132 -106t82 -125.5t28.5 -99.5t0.5 -37q0 -63 -27 -120t-83.5 -102.5t-143.5 -69.5z" />
    <glyph glyph-name="four" unicode="4" horiz-adv-x="1306" 
d="M1201 387h-312l-166 -387h-278l167 387h-519l-64 209l857 872l447 -2l-365 -870h233v-209zM998 1260l-640 -664h339z" />
    <glyph glyph-name="five" unicode="5" horiz-adv-x="1139" 
d="M544 973q120 0 225.5 -39.5t184.5 -108t124.5 -160t45.5 -195.5t-45.5 -195.5t-124.5 -160t-184.5 -108t-225.5 -39.5q-81 0 -157.5 19t-143 54t-121 85t-91.5 112l198 119q21 -36 54 -65t74.5 -50t89 -32t97.5 -11q72 0 135.5 21.5t110.5 58.5t74.5 86.5t27.5 105.5
t-27.5 105.5t-74.5 86.5t-110.5 58t-135.5 21q-93 0 -173.5 -36.5t-128.5 -100.5l-186 137l93 725h485q34 1 78.5 5.5t90.5 15t87.5 27.5t68.5 43l159 -168q-49 -46 -111.5 -75t-126 -46t-123 -24t-102.5 -9h-289l-37 -298q51 17 104.5 26.5t110.5 9.5z" />
    <glyph glyph-name="six" unicode="6" horiz-adv-x="1251" 
d="M1224 470q0 -83 -24 -152.5t-65.5 -125t-99 -98t-124 -70.5t-140 -42t-148.5 -14q-85 0 -167.5 18.5t-154.5 55.5t-128.5 93.5t-89.5 131.5q-45 103 -47 161t-2 71q0 90 23.5 184.5t71.5 189.5t105.5 179.5t119 156.5t114.5 126.5t91.5 90t49.5 46.5h366
q-51 -44 -122 -111.5t-147.5 -149t-151.5 -173.5t-134.5 -185.5t-96 -184t-36.5 -169.5q0 -71 32 -126t84.5 -93t119 -58.5t135.5 -22.5q69 2 128.5 26.5t103 62.5t68 85.5t24.5 96.5q0 63 -31 106.5t-78 73t-103 46t-106 24t-73.5 8t-30.5 0.5q-23 0 -30 -2v216
q44 14 106 14q56 0 121 -11.5t130 -36.5t126 -63.5t108 -92.5t75 -124t28 -158z" />
    <glyph glyph-name="seven" unicode="7" horiz-adv-x="964" 
d="M32 1235v231l806 1l104 -231l-559 -1236h-293l559 1236h-278q-54 0 -108.5 -0.5t-100.5 -0.5h-130z" />
    <glyph glyph-name="eight" unicode="8" horiz-adv-x="1223" 
d="M967 816q54 -33 97 -74.5t74 -90.5t47.5 -104t16.5 -114q0 -99 -46.5 -186t-126 -152.5t-186.5 -103t-229 -37.5t-229 37.5t-187 103t-126 152.5t-46 186q0 59 16.5 114t47 104t74 90.5t96.5 74.5q-58 54 -90.5 124t-32.5 149q0 84 37.5 158.5t102 129.5t151.5 87t186 32
t185.5 -32t151.5 -87t102.5 -129.5t37.5 -158.5q0 -79 -33 -149t-91 -124zM426 1201q-8 -7 -18 -18t-19 -25t-15 -31.5t-6 -37.5t6 -37.5t15 -31.5t19 -25t18 -18q36 -30 85 -46.5t103 -16.5t102.5 16.5t84.5 46.5q8 7 18.5 18t19.5 25t15 31.5t6 37.5t-6 37.5t-15 31.5
t-19.5 25t-18.5 18q-36 31 -84.5 47.5t-102.5 16.5t-103 -16.5t-85 -47.5zM883 274q12 10 27.5 25t28.5 35.5t22 45t9 53.5t-9 54t-22 45t-28.5 35.5t-27.5 25.5q-52 42 -122 65t-147 23q-78 0 -148 -23t-122 -65q-12 -10 -27.5 -25.5t-28.5 -35.5t-22 -45t-9 -54t9 -53.5
t22 -45t28.5 -35.5t27.5 -25q52 -43 122 -66t148 -23q77 0 147 23t122 66z" />
    <glyph glyph-name="nine" unicode="9" horiz-adv-x="1262" 
d="M31 1002q0 83 24 152.5t65.5 125t99 98t124 70.5t140 42t148.5 14q85 0 167.5 -18.5t154 -55.5t128 -93.5t89.5 -131.5q45 -103 47.5 -162t2.5 -73q0 -89 -24 -182.5t-71.5 -188.5t-105 -179.5t-119.5 -156.5t-115 -126.5t-91.5 -90t-49.5 -46.5h-366q51 44 122 111.5
t147.5 149.5t151.5 174t134.5 185.5t96 184t36.5 168.5q0 71 -32 126t-84.5 93t-119 58.5t-134.5 22.5q-70 -2 -129.5 -26.5t-103 -62.5t-68 -85.5t-24.5 -96.5q0 -62 31 -106t78 -73.5t103 -46t106 -24t73.5 -8t30.5 -0.5q23 0 30 2v-216q-21 -7 -47.5 -10t-57.5 -3
q-55 0 -120.5 11.5t-130.5 36.5t-126 63.5t-108 92.5t-75 124t-28 157z" />
    <glyph glyph-name="colon" unicode=":" horiz-adv-x="682" 
d="M94 1062h261v-261h-261v261zM94 260h261v-261h-261v261z" />
    <glyph glyph-name="semicolon" unicode=";" horiz-adv-x="682" 
d="M94 1062h261v-261h-261v261zM94 260h261v-199q0 -94 -16.5 -148.5t-61.5 -97.5t-114 -68l-43 90q66 21 93.5 59.5t29.5 102.5h-149v261z" />
    <glyph glyph-name="semicolon" unicode="&#x37e;" horiz-adv-x="682" 
d="M94 1062h261v-261h-261v261zM94 260h261v-199q0 -94 -16.5 -148.5t-61.5 -97.5t-114 -68l-43 90q66 21 93.5 59.5t29.5 102.5h-149v261z" />
    <glyph glyph-name="less" unicode="&#x3c;" horiz-adv-x="1196" 
d="M1100 217l-1005 437v142l1005 435v-235l-701 -268l701 -278v-233z" />
    <glyph glyph-name="equal" unicode="=" horiz-adv-x="1196" 
d="M85 816v198h1025v-198h-1025zM85 412v199h1025v-199h-1025z" />
    <glyph glyph-name="greater" unicode="&#x3e;" horiz-adv-x="1196" 
d="M95 216v233l702 276l-702 273v231l1006 -435v-140z" />
    <glyph glyph-name="question" unicode="?" horiz-adv-x="1315" 
d="M1075 1415q106 -63 162.5 -161t56.5 -220q0 -85 -31.5 -149.5t-81 -115t-109.5 -89t-117 -71.5q-53 -31 -95 -58t-71.5 -53.5t-45 -55t-15.5 -63.5h-231q0 86 32 151.5t81.5 116t110 89.5t117.5 72q53 31 94.5 57.5t70.5 52.5t44.5 54t15.5 62q0 49 -17 86t-46 64
t-66.5 45t-79.5 28.5t-85 15t-82 4.5q-82 0 -158 -16.5t-128 -45.5q-53 -30 -85.5 -73t-50 -83.5t-23 -69t-5.5 -29.5l-230 24q23 139 83 238t149.5 162.5t203.5 93t245 29.5q103 0 203.5 -22t183.5 -70zM492 261h261v-261h-261v261z" />
    <glyph glyph-name="at" unicode="@" horiz-adv-x="1808" 
d="M916 1495q118 0 226.5 -26t202 -75.5t170.5 -122t131.5 -166.5t84.5 -208.5t30 -246.5q0 -138 -36.5 -256t-99.5 -215q-22 -34 -55.5 -51.5t-69.5 -17.5q-28 0 -54 10t-48 30l-2 2q-25 24 -41.5 45.5t-28.5 41.5t-19.5 41t-14.5 44q-83 -88 -200.5 -144t-262.5 -61h-18
q-95 0 -179 31.5t-145.5 84.5t-95.5 118.5t-34 129.5q0 70 23 119.5t59.5 83t82.5 53.5t92 31t87 15.5t68 6.5l10 1q44 4 101.5 6t121 3t129 1t126.5 -1q0 41 -28 85.5t-77 82t-116 61.5t-145 24q-87 0 -182 -36.5t-191 -125.5l-127 115q52 59 113.5 100.5t127 68t131 39
t125.5 12.5q107 0 190.5 -22.5t146 -58.5t106.5 -82t71 -94t39.5 -92.5t12.5 -78.5v-223q-1 -18 -1 -43t1 -54.5t3.5 -60.5t7.5 -61q7 -40 15 -55.5t17 -15.5q6 0 12 6t11.5 14.5t10.5 18.5l9 18q14 30 24 71t16 83.5t9 83t3 68.5q0 165 -55 291.5t-148 211.5t-215.5 128.5
t-257.5 43.5q-90 0 -175.5 -19.5t-161.5 -57.5t-139.5 -95t-109.5 -132t-71.5 -168t-25.5 -203q0 -165 53 -284.5t143 -197t210.5 -114t255.5 -36.5q96 0 184.5 23t165.5 68l90 -151q-97 -54 -208 -82t-232 -28q-118 0 -226.5 22.5t-202 67.5t-170.5 112t-131.5 156
t-84.5 200t-30 244t31.5 247t88.5 208t136.5 166.5t176 122t206.5 75.5t227 26zM570 384q51 -51 116 -74t134 -23q76 0 151 25.5t138 71t107 109.5t58 142h-127.5t-130.5 -0.5t-122 -2.5t-101 -6l-10 -1q-73 -6 -122.5 -16.5t-80 -27t-43.5 -40.5t-13 -58q0 -53 46 -99z" />
    <glyph glyph-name="A" unicode="A" horiz-adv-x="2542" 
d="M2373 1466v-1466h-273v142q0 106 -16.5 210t-50.5 204q-7 22 -23 64.5t-43 97t-67 117t-96.5 124t-130.5 118.5t-170 100.5t-214.5 69.5t-263.5 26q-126 0 -224.5 -21.5t-172.5 -59t-125.5 -88.5t-83.5 -111t-47.5 -126t-16.5 -133v-7q0 -58 15 -120t48 -122t83 -113
t118 -92.5t154 -62.5t190 -23q117 0 231.5 33t220 101.5t198.5 174.5t166 251l207 -104q-171 -340 -431 -513.5t-595 -173.5h-71t-97 5.5t-117 19.5t-131 42t-138.5 72.5t-138.5 111.5q-109 107 -163.5 238t-54.5 272v15q2 92 29.5 184.5t81 177.5t133.5 158.5t188 127.5
t243.5 85t300.5 31q146 0 270.5 -22.5t229.5 -61.5t192 -92t158 -114.5t126.5 -128t98.5 -133.5v515h273z" />
    <glyph glyph-name="B" unicode="B" horiz-adv-x="2249" 
d="M1928 751q138 -66 208.5 -149.5t70.5 -186.5q0 -42 -14.5 -94t-53 -104t-104.5 -99.5t-169 -80.5q-116 -38 -270 -56.5t-346 -18.5q-135 0 -264.5 19t-244 54.5t-208.5 85.5t-159 111l159 168q39 -37 108 -74.5t161.5 -66.5t205.5 -47.5t242 -18.5q59 0 133 5t150 16
t148.5 28t129 40.5t91 55t34.5 70.5q0 33 -25 70t-85.5 68t-161 51.5t-252.5 20.5h-996q-8 -32 -18 -73t-15 -79q-4 -31 -8 -67.5t-6.5 -75.5t-4.5 -78t-4 -75q-4 -84 -5 -170h-252v1466h252v-418q10 14 37 53t77.5 90t127 106t183.5 101t248.5 76t321.5 30q165 0 301 -31
t236 -91q101 -61 156 -146.5t55 -182.5q0 -87 -44.5 -165t-125.5 -137zM1433 849q112 0 194 20t135 50t79 66t26 68q0 34 -26 68t-74 63q-25 15 -62 31t-88 29t-117 21t-150 8q-181 0 -318 -32.5t-238 -89.5t-171 -134.5t-118 -167.5h928z" />
    <glyph glyph-name="C" unicode="C" horiz-adv-x="2045" 
d="M1980 342q-67 -81 -163.5 -150.5t-213 -120.5t-248.5 -79.5t-270 -28.5q-140 0 -273.5 28t-251.5 79t-217 122t-170 156.5t-111 183t-40 201.5t40 201.5t111 183t170 156.5t217 122t251.5 79t273.5 28q138 0 270 -28.5t248.5 -79t213 -120t163.5 -150.5l-228 -139
q-9 11 -30.5 35.5t-58.5 55t-89.5 63t-123 59t-160 44t-199.5 17.5q-190 0 -334 -45.5t-241.5 -119.5t-147.5 -168.5t-51 -145.5t-1 -54q0 -96 46.5 -189t142.5 -167t242.5 -119.5t343.5 -45.5q111 0 201 18t161 45t123.5 60.5t89 63.5t57.5 54t29 33z" />
    <glyph glyph-name="D" unicode="D" horiz-adv-x="2115" 
d="M151 1474q33 4 83 8.5t112 8.5t135.5 6.5t154.5 2.5q113 0 237.5 -7t250.5 -24.5t248.5 -48t232 -78t201.5 -113.5t157 -154.5t94.5 -190.5t29.5 -210q0 -27 -2 -55q-6 -108 -40 -199t-88.5 -163.5t-126 -127.5t-154.5 -92t-174 -55.5t-183 -18.5q-120 0 -236 31.5
t-214.5 95.5t-171 160.5t-105.5 225.5l224 57q16 -62 49 -111.5t77 -87.5t95 -64.5t102.5 -43t100.5 -24.5t88 -8q83 0 158 29t136.5 78t106 115.5t66 137.5t21.5 141q0 8 -1.5 51.5t-35.5 119t-101 143t-173.5 119.5t-255.5 84t-346 36l-562 -1248h-289l564 1252
q-64 0 -131 -3t-129 -7.5t-115.5 -9.5t-89.5 -9v251z" />
    <glyph glyph-name="E" unicode="E" horiz-adv-x="1666" 
d="M1623 303q-72 -91 -157.5 -155.5t-176.5 -105.5t-184 -60t-180 -19q-148 0 -264 38t-204 97t-150 130t-102 137.5t-61 118.5t-26 73q-54 1 -74 1.5t-26 1.5l6 232h4.5t12 -0.5t24 -1t39.5 -0.5q11 88 45 174t89.5 164t130.5 145t166 117t197 79.5t224 32.5h26
q85 0 168 -18.5t159 -55t137.5 -86t104.5 -106.5t66.5 -118.5t23.5 -120.5q0 -97 -31 -166.5t-80.5 -116.5t-111.5 -75t-124.5 -43.5t-118.5 -20.5t-94 -7l-26 -1q-61 -2 -140.5 -4.5t-167.5 -5t-156.5 -3t-112.5 -0.5h-87q32 -80 92.5 -145t137 -111.5t162.5 -71.5t170 -25
q65 0 130.5 15t129.5 46.5t124 82t114 120.5zM1308 1135q-72 70 -158.5 102t-180.5 32q-101 0 -200.5 -35t-182 -98.5t-141 -152t-78.5 -196.5q57 -1 114 -1q29 0 86.5 0.5t140 2t156.5 4t134 6.5l15 1q101 7 170 21t111 37.5t60.5 58t18.5 80.5q0 74 -65 138z" />
    <glyph glyph-name="F" unicode="F" horiz-adv-x="973" 
d="M939 1234h-624l182 -404l361 1v-236l-254 -1l270 -596l-293 1l-559 1236l94 231l823 -1v-231z" />
    <glyph glyph-name="G" unicode="G" horiz-adv-x="2136" 
d="M1072 811h239q70 0 149.5 -0.5t164.5 -0.5h461v-811h-239v258q-63 -61 -139 -114.5t-169 -93.5t-204.5 -63t-245.5 -23q-167 0 -308 31t-255.5 85.5t-201.5 130t-145.5 165t-88.5 189.5t-30 203q0 104 40 199t111 176.5t170 148.5t217 114t251.5 72.5t273.5 25.5
q138 0 266 -28.5t240.5 -79.5t205 -120.5t159.5 -150.5l-227 -138q-9 11 -31 35.5t-58.5 55t-89 63t-123 59t-160.5 44t-200 17.5q-190 0 -335 -46t-243 -121.5t-148 -171.5t-50 -197v-4q0 -98 48 -193t143 -170.5t235 -121.5t323 -46q74 0 151 13t150 38t140.5 60t123 79.5
t96.5 97t61 111.5h-726q-32 0 -78 -3.5t-98.5 -14t-99 -28.5t-75.5 -45l-159 159q38 36 84 61t95 42.5t98 27.5t93 15.5t80 7t58 1.5z" />
    <glyph glyph-name="H" unicode="H" horiz-adv-x="2299" 
d="M2213 1466v-1466h-268v663q-17 -16 -36.5 -24.5t-49.5 -12.5t-74.5 -5t-112.5 -1h-437q-204 -1 -467 -1v-120q0 -81 -5 -144.5t-20.5 -115.5t-44 -96.5t-75.5 -87.5q-51 -47 -114.5 -69.5t-130.5 -22.5t-131 22.5t-114 66.5t-80.5 109.5t-30.5 152.5q0 59 20 133.5
t72.5 148t143.5 136t233 97.5v637h277v-618q24 2 43 2.5t46 0.5l881 -1q41 0 72 2.5t54 15t38.5 38t25 72t13.5 116.5t4 171v201h268zM434 251q14 15 24 38t17 49.5t10.5 55.5t5.5 57q2 33 2 68t-2 71q-45 -15 -85.5 -38.5t-70.5 -56.5t-47.5 -77t-17.5 -99q0 -53 27 -76.5
t60 -23.5q22 0 42.5 8.5t34.5 23.5z" />
    <glyph glyph-name="I" unicode="I" horiz-adv-x="532" 
d="M411 0h-278v1466h278v-1466z" />
    <glyph glyph-name="J" unicode="J" horiz-adv-x="872" 
d="M807 1466v-972q0 -143 -28.5 -244t-80.5 -164.5t-125 -93t-161 -29.5q-96 0 -162.5 24t-110.5 62.5t-69 86.5t-37 95.5t-15 90t-3 70.5h252q0 -55 8 -93.5t24 -61.5t40.5 -33.5t57.5 -10.5q48 0 75 19.5t40.5 58t16.5 94.5t3 129v972h275z" />
    <glyph glyph-name="K" unicode="K" horiz-adv-x="2012" 
d="M1484 415q33 -38 68.5 -66.5t71.5 -49.5t71 -34.5t67 -21.5q71 -18 141 -18h7l66 -222q-4 -1 -35.5 -7.5t-84.5 -6.5q-98 0 -179 20t-148 53t-122.5 76.5t-104 91.5t-91.5 96.5t-85 91.5t-85.5 78t-92.5 55q-55 23 -113.5 37t-115.5 21.5t-110.5 10.5t-97.5 3
q-65 0 -103 -3q-22 -1 -39 -3v-617h-289v1466h289v-611q147 0 257 12t191 32t137.5 47t96 56.5t67.5 60.5t51 60q93 114 190 182.5t188 105.5t170.5 49t136.5 12q48 0 76.5 -4t31.5 -5l-65 -222q-7 2 -16 3q-16 3 -45 3q-34 0 -83.5 -8.5t-109.5 -36t-127 -78t-136 -134.5
q-26 -31 -59.5 -66.5t-72.5 -68t-83.5 -58.5t-92.5 -38q32 -10 72 -36t82 -59.5t83.5 -72t76.5 -73t61 -62.5t37 -41z" />
    <glyph glyph-name="L" unicode="L" horiz-adv-x="1123" 
d="M1083 231v-231h-956l-105 230l559 1236h296l-559 -1236q193 0 353 1h412z" />
    <glyph glyph-name="M" unicode="M" horiz-adv-x="3027" 
d="M2939 1467v-1467h-280v1206q-37 -11 -99.5 -32.5t-141.5 -52.5t-169.5 -71.5t-183.5 -90t-184.5 -107t-171.5 -122.5q67 -85 103 -165.5t47.5 -142.5t11.5 -109q0 -19 -3.5 -60t-20 -92.5t-40.5 -89.5t-47 -59q-47 -44 -108 -64t-124 -20q-68 0 -131 21.5t-106 62.5
q-49 46 -79.5 123t-30.5 173t37.5 204.5t123.5 217.5q-71 58 -150.5 110t-163 98.5t-168.5 87t-166.5 74t-158 60.5t-143.5 46v-1206h-280v1467h254q77 -21 170 -52.5t194.5 -71.5t208 -88.5t209.5 -104.5t199.5 -119t178.5 -131q95 79 217 158t268.5 152.5t316 139
t358.5 117.5h253zM1616 301q0 70 -24 133.5t-66 123.5q-42 -60 -66 -123.5t-24 -133.5q0 -24 3.5 -48t13 -44t27.5 -32.5t47 -12.5q28 0 45.5 13t27 33t13 44.5t3.5 46.5z" />
    <glyph glyph-name="N" unicode="N" horiz-adv-x="1635" 
d="M105 881q1 19 1 39q0 40 -5 91.5t-17.5 106t-31.5 94t-43 52.5l125 241q44 -23 85 -67.5t72.5 -103t50 -128t18.5 -143.5q15 17 42 49.5t65 73t85.5 85.5t104.5 86t122.5 74t137.5 51q29 7 69.5 12.5t86.5 5.5q47 0 98 -7t101 -25.5t97 -49t86 -77.5t68 -111.5t42 -151.5
q11 -72 16.5 -140.5t7.5 -122.5q2 -47 2 -91v-723h-271v816q0 118 -19.5 198.5t-53 130t-79 71t-97.5 21.5q-65 0 -132.5 -25.5t-134 -68.5t-129.5 -98.5t-118.5 -115.5t-101.5 -120.5t-79 -112.5v-697h-271v881z" />
    <glyph glyph-name="O" unicode="O" horiz-adv-x="2138" 
d="M1069 1508q140 0 272.5 -27.5t249.5 -77.5t214 -120.5t167.5 -156t109.5 -184t39 -204.5t-39 -204.5t-109.5 -184t-167.5 -156t-214 -120.5t-249.5 -77.5t-272.5 -27.5t-272.5 27.5t-249.5 77.5t-214.5 120.5t-167.5 156t-109 184t-39 204.5t39 204.5t109 184t167.5 156
t214.5 120.5t249.5 77.5t272.5 27.5zM302 738q0 -88 30 -162t83.5 -133t126 -103t157.5 -73.5t179 -44t190 -14.5t190 14.5t179.5 44t158 74t126 103.5t83.5 132.5t30 161.5q0 89 -30 162.5t-83.5 132.5t-126 103t-158 73.5t-179.5 44t-190 14.5t-190 -14.5t-179 -44
t-157.5 -74t-126 -103.5t-83.5 -132.5t-30 -161.5z" />
    <glyph glyph-name="P" unicode="P" horiz-adv-x="2450" 
d="M1509 1504q137 0 256 -25.5t217.5 -70t175.5 -105.5t130 -132.5t80.5 -150t27.5 -158.5q0 -82 -24.5 -164t-76 -156.5t-131 -139t-191 -111.5t-255 -74t-322.5 -27q-214 0 -382.5 40.5t-297 106t-221 147.5t-156.5 166v-907h-272v1723h272v-119q0 -114 23 -207t51.5 -160
t52.5 -105.5t27 -42.5q277 -411 903 -411q178 0 310 37t219.5 98.5t130.5 141t43 164.5q0 67 -31.5 139.5t-101.5 133t-182.5 99.5t-274.5 39q-293 0 -508 -112.5t-353 -338.5l-197 121q39 64 92 130.5t121 129t153.5 117t190 95.5t229 65t272.5 24z" />
    <glyph glyph-name="Q" unicode="Q" horiz-adv-x="2200" 
d="M1908 245q51 -23 113 -37.5t127 -17.5v-231q-61 2 -121.5 12t-116.5 27t-106 41t-91 53q-2 2 -4 2l-6 6q-2 0 -4 2q-131 -68 -284 -106t-319 -38q-140 0 -272.5 27.5t-249.5 77.5t-214.5 120.5t-168 156t-109.5 184t-39 204.5t39 204.5t109.5 184t168 156t214.5 120.5
t249.5 77.5t272.5 27.5t272.5 -27.5t249.5 -77.5t214 -120.5t167.5 -156t109.5 -184t39 -204.5q0 -138 -64 -260.5t-176 -222.5zM1095 199q111 0 218 19.5t201 58.5q-56 69 -88.5 143.5t-32.5 151.5h242q8 -45 29.5 -87t52.5 -82q68 63 106.5 143.5t38.5 181.5
q0 89 -30 162.5t-83.5 132.5t-126.5 103t-158 73.5t-179 44t-190 14.5t-190 -14.5t-179 -44t-157.5 -74t-126 -103.5t-83.5 -132.5t-30 -161.5t30 -161.5t83.5 -132.5t126 -103t157.5 -73.5t179 -44t190 -14.5z" />
    <glyph glyph-name="R" unicode="R" horiz-adv-x="1908" 
d="M342 1466v-426q136 229 332 346t447 117q168 0 306.5 -36.5t240.5 -108.5q98 -69 151.5 -164t53.5 -200q0 -61 -19 -121t-56.5 -114.5t-93.5 -101t-130 -80.5t-165.5 -53.5t-200.5 -19.5q-198 0 -362 54q48 -68 108 -133.5t133.5 -116.5t160 -82.5t186.5 -31.5
q33 0 71.5 8t79 22.5t81 35.5t77.5 46l130 -191q-52 -36 -108 -64t-112.5 -47.5t-112 -30t-106.5 -10.5q-124 0 -231.5 33.5t-198.5 89.5t-166 128t-135.5 149.5t-106.5 154.5t-78 142q-2 4 -6 14l244 182q180 -120 452 -120q107 0 187.5 22t135.5 58.5t82.5 83t27.5 94.5
t-27.5 93.5t-79.5 82.5q-25 17 -61.5 35t-87 33t-116 24.5t-148.5 9.5q-226 0 -390 -126.5t-268 -380.5q-33 -80 -55 -159t-35.5 -148t-20.5 -123.5t-10 -85.5v-250h-250v1467h250z" />
    <glyph glyph-name="S" unicode="S" horiz-adv-x="2374" 
d="M1323 879q96 11 179.5 15.5t158.5 4.5q195 0 325 -30t208.5 -80.5t111.5 -116.5t34 -137v-7q0 -68 -19 -136t-67 -129t-129.5 -112.5t-205 -88.5t-293.5 -57.5t-395 -20.5q-166 0 -317.5 18.5t-282.5 46.5t-238.5 61t-185 62t-122 49.5t-50.5 23.5l112 225
q1 0 39.5 -17.5t108.5 -42.5t168 -54.5t218 -54.5t258.5 -42t289.5 -17q208 0 354 14.5t242 38.5t148.5 55t71.5 62t19 58q0 8 -3.5 29t-23.5 52q-17 27 -50 45.5t-78.5 29t-102.5 15t-123 4.5q-98 0 -211.5 -7.5t-234.5 -16.5t-245 -16.5t-242 -7.5q-97 0 -187.5 7
t-169.5 24t-144 46t-112 73t-72.5 105t-25.5 142q0 58 18 116t63.5 111.5t124 100t200 82.5t291 58t396.5 27h53q138 0 277.5 -14t272 -39t241 -56t187.5 -58t124.5 -46.5t50.5 -22.5l-106 -223q-1 1 -38.5 18.5t-105 43.5t-163.5 55.5t-213.5 54t-243.5 38.5t-250 14
q-25 0 -50 -1q-195 -4 -337 -17.5t-240 -34.5t-157 -48t-88 -57.5t-31 -50.5t-2 -27q0 -26 10 -53q14 -36 51 -60t91.5 -39t126 -21.5t154.5 -6.5q127 0 274 12t303 29z" />
    <glyph glyph-name="T" unicode="T" horiz-adv-x="1324" 
d="M1214 1235h-279l-558 -1235h-281l558 1235h-355l105 231h915z" />
    <glyph glyph-name="U" unicode="U" horiz-adv-x="1658" 
d="M1552 585q-1 -15 -1 -31q0 -44 5 -97.5t18 -108t32 -94t43 -52.5l-136 -241q-43 23 -83 66.5t-71.5 100.5t-50.5 124.5t-21 139.5q-18 -20 -46 -53.5t-66 -73.5t-84.5 -82.5t-101.5 -80.5t-117.5 -69t-131.5 -48q-29 -8 -69.5 -13t-87.5 -5t-98 7t-101 25.5t-96.5 49
t-85.5 77t-67.5 111.5t-42.5 151q-11 72 -16.5 140.5t-7.5 122.5q-2 63 -2 120v695h284v-847q0 -118 19 -198.5t51.5 -130t77 -71t95.5 -21.5q53 0 110 19.5t113.5 51.5t109 73t96.5 83q50 48 88.5 97.5t68.5 95t52.5 84.5t39.5 67v697h282z" />
    <glyph glyph-name="V" unicode="V" horiz-adv-x="1218" 
d="M1211 1466l-458 -1467h-290l-459 1467h281l323 -1034l323 1034h280z" />
    <glyph glyph-name="W" unicode="W" horiz-adv-x="2155" 
d="M2137 1466l-456 -1466h-240l-359 1019l-359 -1019h-240l-456 1466h268l323 -1063l336 1063h256l336 -1063l323 1063h268z" />
    <glyph glyph-name="X" unicode="X" horiz-adv-x="982" 
d="M628 733l331 -733h-272l-196 431l-195 -431h-273l332 733l-332 733h273l195 -432l196 432h272z" />
    <glyph glyph-name="Y" unicode="Y" horiz-adv-x="2353" 
d="M2256 1466q-79 -229 -207 -419q-55 -81 -125.5 -162.5t-159 -150.5t-195.5 -120t-233 -73v-542h-314v542q-126 22 -233 73t-195.5 120t-159 150.5t-125.5 162.5q-128 190 -207 419h300q78 -194 191 -347q48 -65 108.5 -128t134 -112.5t159 -80.5t184.5 -33q99 2 185 33
t159 80.5t133.5 112.5t108.5 128q112 153 190 347h301z" />
    <glyph glyph-name="Z" unicode="Z" horiz-adv-x="771" 
d="M750 231v-231h-628l-87 231l438 1005l-388 -1v232h577l104 -231l-437 -1005h421z" />
    <glyph glyph-name="bracketleft" unicode="[" horiz-adv-x="513" 
d="M292 1475v-1510h209v-158h-381v1826h381v-158h-209z" />
    <glyph glyph-name="backslash" unicode="\" horiz-adv-x="908" 
d="M957 -193h-180l-826 1826h181z" />
    <glyph glyph-name="bracketright" unicode="]" horiz-adv-x="484" 
d="M218 -35v1510h-209v158h382v-1826h-382v158h209z" />
    <glyph glyph-name="asciicircum" unicode="^" horiz-adv-x="1088" 
d="M121 692l346 799h163l336 -799h-224l-198 489l-197 -489h-226z" />
    <glyph glyph-name="underscore" unicode="_" horiz-adv-x="1139" 
d="M0 3v177h1139v-177h-1139z" />
    <glyph glyph-name="grave" unicode="`" horiz-adv-x="622" 
d="M521 1192h-203l-276 299h218z" />
    <glyph glyph-name="a" unicode="a" horiz-adv-x="1690" 
d="M1580 599q-1 -20 -1 -41q0 -39 4.5 -90t17.5 -105.5t32 -94t43 -52.5l-129 -241q-39 18 -69.5 46.5t-54.5 64.5t-41.5 77t-30.5 84q-57 -61 -127 -112t-151.5 -88.5t-173 -59t-191.5 -24.5h-25q-84 0 -166 18.5t-155.5 55t-132 86t-99.5 106.5t-62.5 118.5t-21.5 120.5
q0 98 32.5 166.5t84 115t116 74.5t129 43t122 21t95.5 9l14 1q61 5 140.5 8.5t167.5 5t179.5 1.5t176.5 -1q0 57 -39 118.5t-107 113t-161.5 85t-201.5 33.5q-60 0 -123.5 -12t-129 -39t-132.5 -69.5t-133 -103.5l-176 159q72 81 158.5 139t178 95t183 54.5t174.5 17.5
q148 0 264 -31t203.5 -81.5t148 -114.5t98.5 -130t55 -128t17 -109q0 -1 -1.5 -1t-1.5 -1h3v-308zM378 331q73 -66 161 -97t182 -31q102 0 202 34t183.5 96.5t142.5 150t78 195.5q-85 1 -177.5 1t-181.5 -1.5t-169 -4.5t-140 -8l-15 -1q-101 -9 -166 -23t-103 -37t-53 -56.5
t-15 -80.5q0 -38 19.5 -71.5t51.5 -65.5z" />
    <glyph glyph-name="b" unicode="b" horiz-adv-x="1187" 
d="M927 856q67 -48 101 -112t37.5 -108.5t3.5 -61.5q0 -57 -17.5 -124t-59.5 -139t-103 -136t-137.5 -112t-166 -76t-187.5 -28q-56 0 -115.5 20t-111 60.5t-89.5 102.5t-47.5 122.5t-9.5 101.5q0 53 13.5 136.5t71.5 213.5q24 54 52 115.5t57 125.5t58 127t55 121l124 272
q33 6 73 11q34 5 79 8t96 3q52 0 106.5 -5t106.5 -18t98.5 -35t81 -56.5t55 -83t20.5 -113.5q0 -47 -20.5 -92.5t-54.5 -87.5t-78 -80.5t-92 -71.5zM423 188q54 0 106.5 22t98.5 58.5t83 83t61.5 94.5t31 82.5t6.5 53.5q0 22 -7.5 50t-39 50t-89.5 22q-29 0 -65 -6.5
t-80 -20.5l-71 163q130 67 233 132q44 27 85.5 56.5t74 58.5t52.5 55.5t20 48.5q0 27 -21.5 44.5t-54 28.5t-71.5 15.5t-75 4.5q-19 0 -35.5 -1t-29.5 -3l-202 -433q-74 -152 -116.5 -274t-45 -169.5t-2.5 -56.5q0 -72 34.5 -115.5t118.5 -43.5z" />
    <glyph glyph-name="c" unicode="c" horiz-adv-x="1088" 
d="M1057 -4q-140 0 -271 19t-246 57.5t-210 97.5t-163.5 140.5t-106.5 186.5t-38 234q0 123 38 225t106.5 184t163.5 143.5t210 102.5t246 61.5t271 20.5l-1 -246q-187 -1 -330.5 -43.5t-240.5 -111t-147.5 -156t-52.5 -179.5v-8q0 -88 46 -174t142.5 -155t242 -112
t340.5 -44z" />
    <glyph glyph-name="d" unicode="d" horiz-adv-x="2296" 
d="M351 1466q294 -2 551 -29t471 -75t381.5 -115t283.5 -148t177 -173.5t61 -192.5t-61 -193t-177 -174t-283.5 -147.5t-381.5 -114.5t-471 -75t-551 -29h-268v1466h268zM351 228q202 2 398.5 17t374.5 43.5t329.5 70.5t262 97.5t173 124.5t62.5 152t-62.5 152t-173 124.5
t-262 97.5t-329.5 70.5t-375 44t-398 16.5v-1010z" />
    <glyph glyph-name="e" unicode="e" horiz-adv-x="781" 
d="M343 1226v-371h334v-241h-334v-371h405v-242h-660v1466l660 1v-242h-405z" />
    <glyph glyph-name="f" unicode="f" horiz-adv-x="722" 
d="M309 1225v-371h328v-242h-328v-612h-264v1466h658v-241h-394z" />
    <glyph glyph-name="g" unicode="g" horiz-adv-x="928" 
d="M852 1466v-1191q0 -65 -3.5 -130.5t-16 -125.5t-36 -111.5t-63.5 -89.5t-99.5 -59.5t-143.5 -21.5q-91 0 -163.5 26t-122 69.5t-76 99.5t-26.5 116v9.5t1 9.5h241v-5q0 -24 10 -46t28 -38.5t41.5 -26t47.5 -9.5q40 0 65 15.5t39.5 40t19.5 55t5 59.5v55q-54 -9 -101 -9
q-122 0 -209.5 49.5t-144 130t-83 184t-26.5 211.5q0 130 17.5 241.5t51.5 200.5t83.5 154t113.5 101q31 17 68 27.5t77 10.5t79.5 -12.5t73.5 -41.5v52h252zM304 731q0 -68 11 -132.5t37.5 -115t70 -81t109.5 -30.5q16 0 32.5 2t35.5 6v678q0 101 -30.5 143t-86.5 42
q-49 0 -83 -35.5t-55.5 -101.5t-31 -161t-9.5 -214z" />
    <glyph glyph-name="h" unicode="h" horiz-adv-x="986" 
d="M927 1466v-1466h-275v619h-309v-619h-275v1466h275v-616h309v616h275z" />
    <glyph glyph-name="i" unicode="i" horiz-adv-x="430" 
d="M85 1191v275h265v-275h-265zM350 1087v-1087h-265v1087h265z" />
    <glyph glyph-name="j" unicode="j" horiz-adv-x="1392" 
d="M1389 1466q-11 -23 -33.5 -73t-53 -117.5t-67 -148t-75 -166t-77.5 -171t-74 -162.5q-18 -40 -41.5 -90.5t-51.5 -106.5t-59.5 -116.5t-65.5 -121.5q-35 -63 -76.5 -108.5t-87.5 -75t-95 -43.5t-99 -14q-65 0 -128 22.5t-119 64.5t-101.5 102.5t-75.5 136.5l211 79
q16 -28 36 -57t43.5 -53t51 -39.5t57.5 -15.5q20 0 40.5 8t43.5 26q27 22 53.5 61.5t57 99t66.5 140.5t83 185l347 754h290z" />
    <glyph glyph-name="k" unicode="k" horiz-adv-x="1262" 
d="M751 882q86 -7 153.5 -48.5t119 -105t89.5 -142t64 -159.5q62 -190 83 -427h-269q-24 181 -72 323q-20 60 -47.5 118t-63 103.5t-80.5 73t-100 27.5q-56 0 -99 -27.5t-75 -73t-54.5 -103.5t-37.5 -118q-34 -142 -41 -323h-251v1466h268v-772q2 5 9 15l497 757h300z" />
    <glyph glyph-name="l" unicode="l" horiz-adv-x="619" 
d="M604 -1h-524v1466h268v-1225h256v-241z" />
    <glyph glyph-name="m" unicode="m" horiz-adv-x="1341" 
d="M1279 1466v-1466h-226v822l-266 -822h-224l-266 822v-822h-226v1466l272 1l332 -1081l332 1081z" />
    <glyph glyph-name="n" unicode="n" horiz-adv-x="1091" 
d="M326 1467l444 -982v981h256v-1466h-258l-443 981v-981h-257v1466z" />
    <glyph glyph-name="o" unicode="o" horiz-adv-x="1357" 
d="M680 1474q81 0 162 -22t155.5 -65t138.5 -106.5t111 -145.5t74 -183.5t27 -219.5q0 -120 -27 -222t-74 -184t-111 -145t-138.5 -105t-155.5 -63.5t-162 -21.5t-162.5 21.5t-156 63.5t-138.5 105t-111 145t-74 184t-27 222q0 119 27 220t74 183t111 145.5t138.5 106.5
t156 65t162.5 22zM680 197q79 1 150 35.5t124.5 102t85 167t31.5 230.5q0 132 -31.5 231.5t-85 166.5t-124.5 101.5t-150 35.5q-79 -1 -150.5 -35.5t-125.5 -101.5t-86 -166.5t-32 -231.5q0 -131 32 -230.5t86 -167t125.5 -102t150.5 -35.5z" />
    <glyph glyph-name="p" unicode="p" horiz-adv-x="1594" 
d="M1417 640q-86 -78 -204.5 -117.5t-261.5 -39.5q-111 0 -203 19.5t-167 53.5t-134 78.5t-105 93.5v-728h-273v1467h273v-199q3 -18 8.5 -48t16 -66.5t27 -78t40.5 -83.5q159 -278 517 -278q100 0 179 25t133 73q43 38 65.5 87.5t22.5 104.5q0 49 -19.5 97t-60 86.5
t-103 62t-147.5 23.5q-143 0 -251 -54.5t-188 -167.5l-189 134q112 158 271 238.5t357 80.5q125 0 229.5 -38t182.5 -113q72 -70 110.5 -159.5t38.5 -189.5q0 -106 -42 -199t-123 -165z" />
    <glyph glyph-name="q" unicode="q" horiz-adv-x="2401" 
d="M900 1504q148 0 272.5 -24t229 -65t190 -96t153.5 -117.5t121 -129t92 -130.5l-198 -120q-138 226 -352.5 338.5t-507.5 112.5q-162 0 -274.5 -39t-182.5 -99.5t-101.5 -133.5t-31.5 -140q0 -85 43 -164.5t130.5 -141t219.5 -98.5t310 -37q626 0 902 411q3 4 27.5 42.5
t53 105.5t51.5 160t23 207v120h272v-1724h-272v908q-42 -56 -97.5 -111.5t-125 -107t-155 -95.5t-189 -77t-225.5 -51.5t-265 -18.5q-179 0 -323 27t-255 74.5t-191 111.5t-131 139t-75.5 156.5t-24.5 163.5q0 80 27.5 158.5t80.5 150t130 132.5t175.5 106t217.5 70.5
t256 25.5z" />
    <glyph glyph-name="r" unicode="r" horiz-adv-x="925" 
d="M639 194q44 0 90.5 12.5t78.5 34.5l111 -199q-68 -40 -141 -57.5t-149 -17.5q-56 0 -116 19.5t-112.5 60t-92.5 101.5t-51 122.5t-11 106.5q0 49 12 129t69 209q26 57 55.5 125t60.5 138.5t61.5 140t57.5 127.5h-299v-204h-220v424h815v-209l-208 -412
q-75 -149 -114 -269.5t-40 -164.5t-1 -47q0 -80 35 -125t109 -45z" />
    <glyph glyph-name="s" unicode="s" horiz-adv-x="1026" 
d="M269 1125q0 -60 31 -103t82 -76.5t116.5 -60.5t133 -55.5t133 -61.5t116.5 -78t82 -105.5t31 -143.5q0 -90 -34 -174.5t-97.5 -150.5t-153.5 -106t-203 -40q-91 0 -169.5 24t-141.5 64t-110.5 91t-77.5 105l180 176q17 -31 52 -68.5t78.5 -70.5t90.5 -55.5t87 -22.5
q58 0 103 19t75.5 51.5t46 74.5t15.5 87q0 44 -30.5 76t-80.5 58t-114 50t-130.5 52t-130.5 64.5t-114 88t-80.5 121t-30.5 163.5q0 90 42.5 160t112.5 119t161 74.5t188 25.5q66 0 133.5 -21.5t128.5 -58t111.5 -85t80.5 -102.5l-191 -148q-18 31 -50.5 63.5t-73 59
t-84.5 43.5t-85 17q-118 0 -173.5 -32t-55.5 -108z" />
    <glyph glyph-name="t" unicode="t" horiz-adv-x="807" 
d="M790 1466v-231h-256v-1235h-263v1235h-255v231h774z" />
    <glyph glyph-name="u" unicode="u" horiz-adv-x="1485" 
d="M951 344q-39 -82 -84.5 -142.5t-93.5 -102t-98 -67.5t-98.5 -40.5t-95 -19.5t-87.5 -5q-56 0 -116 19.5t-112.5 60t-92 101.5t-50.5 123t-11 108q0 48 11.5 127.5t69.5 208.5q24 54 51.5 114.5t56 123.5t57 125.5t54.5 119.5q60 134 122 268h303l-290 -621
q-70 -151 -110 -268.5t-43 -163t-3 -55.5q0 -66 30.5 -104.5t104.5 -38.5q66 0 115.5 29t85.5 71t60 88t40 80l458 983h294l-309 -680z" />
    <glyph glyph-name="v" unicode="v" horiz-adv-x="1820" 
d="M1494 -1q-97 27 -212.5 64.5t-238.5 85.5t-248 106.5t-240.5 128.5t-216 151.5t-174.5 174.5t-117 198t-43 223q0 85 27.5 145.5t70.5 102t95 66.5t100.5 38t87.5 17.5t57 4.5v-237q-15 0 -44 -5.5t-58 -21.5t-50.5 -45.5t-21.5 -77.5q0 -77 27 -145.5t74.5 -130
t111.5 -115.5t137.5 -101.5t153.5 -89t159 -77.5q76 -34 156 -66t156.5 -59.5t145 -50t122.5 -37.5v1220h254v-1467h-271z" />
    <glyph glyph-name="w" unicode="w" horiz-adv-x="3328" 
d="M3282 1467v-1467h-280q-186 51 -361.5 112t-332.5 140t-290 181.5t-234 235.5v-669h-280q-24 6 -80 22t-135 42t-176 61.5t-201.5 81t-211.5 101.5t-206.5 122.5t-187 143t-152.5 164t-102.5 186t-37.5 207.5q0 85 25 145.5t64 102t86.5 66.5t92 38t81.5 17.5t54 4.5
v-237q-42 -1 -74 -22t-47 -55.5t-15 -77.5q0 -5 1 -33t26 -88t75.5 -127t132 -137.5t195.5 -142.5t266 -141t287.5 -119t243.5 -81l-1 949h314q8 -86 28 -153q29 -94 90 -176.5t140.5 -154t173.5 -132t189.5 -110t187 -88.5t167.5 -67t130.5 -45t75.5 -23v1223h279z" />
    <glyph glyph-name="x" unicode="x" horiz-adv-x="2194" 
d="M1463 733q97 -35 179 -85.5t150 -108.5t123 -120.5t97 -122.5q100 -141 162 -296h-300q-78 165 -191 295q-48 56 -108.5 109t-133.5 95.5t-159 69t-185 27.5q-99 -1 -184.5 -27.5t-158.5 -69t-134 -95.5t-109 -109q-112 -130 -190 -295h-301q62 155 162 296
q43 60 98 122.5t123 120.5t150 108.5t179 85.5q-97 36 -179 86t-150 108.5t-123 120.5t-98 122q-100 141 -162 296h301q78 -165 190 -295q48 -55 109 -108.5t134 -95.5t158.5 -68t184.5 -28q99 2 185 28t159 68t133.5 95.5t108.5 108.5q113 130 191 295h300
q-62 -155 -162 -296q-42 -60 -97 -122t-123 -120.5t-150 -108.5t-179 -86z" />
    <glyph glyph-name="y" unicode="y" horiz-adv-x="869" 
d="M821 566q0 -181 -24 -300t-70.5 -189.5t-116 -99.5t-160.5 -29q-82 0 -144.5 24t-107.5 63t-75 87t-48 96t-25 91t-7 71h238q0 -112 44.5 -169.5t114.5 -57.5q40 0 65 25.5t39.5 73.5t19.5 115.5t5 151.5v2q-34 -5 -64.5 -8t-58.5 -3q-118 0 -197 41t-127 108.5
t-70.5 153t-27.5 175.5q-2 34 -2 69q0 184 53 409h257q-49 -211 -52 -376v-15q0 -62 8 -126.5t32.5 -117t68 -85t111.5 -32.5q29 0 69 8v744h252v-900z" />
    <glyph glyph-name="z" unicode="z" horiz-adv-x="1508" 
d="M1478 0h-1442v268l1116 974h-1116v224l1442 1v-279l-1105 -963h1105v-225z" />
    <glyph glyph-name="braceleft" unicode="{" horiz-adv-x="682" 
d="M76 609v228q61 4 98.5 20.5t61.5 58.5q26 44 32.5 107t7 133t1 142t13.5 134q15 69 48 109.5t73.5 62.5t82 28.5t72.5 6.5q12 0 21 -0.5t16 -0.5q8 -1 14 -2v-157q-96 0 -123 -12q-16 -7 -26.5 -22t-16.5 -35.5t-8.5 -44t-2.5 -47.5v-40.5t-1 -68.5t-3 -83.5t-5.5 -87.5
t-8.5 -79.5t-12 -59.5q-8 -25 -17.5 -47t-24 -43t-36.5 -42t-54 -44q52 -32 84 -75.5t49 -104.5q7 -25 12 -63t8 -80.5t4.5 -86t2.5 -80.5t1 -63v-34q0 -25 2 -49t8 -45t17 -37t29 -24q31 -13 122 -13v-157q-6 -1 -14 -2q-7 0 -16 -0.5t-21 -0.5q-31 0 -72.5 6.5t-82 28.5
t-73.5 63t-48 110q-9 45 -11.5 97.5t-3 106t-1 106.5t-7 100t-21 84.5t-42.5 61.5q-20 17 -54 26t-74 11z" />
    <glyph glyph-name="bar" unicode="|" horiz-adv-x="573" 
d="M366 -193h-178v1826h178v-1826z" />
    <glyph glyph-name="braceright" unicode="}" horiz-adv-x="686" 
d="M617 609q-40 -2 -74 -11t-54 -26q-28 -24 -42.5 -61.5t-21 -84.5t-7 -100t-1 -106.5t-2.5 -106t-12 -97.5q-15 -69 -48 -110t-73.5 -63t-82 -28.5t-72.5 -6.5q-11 0 -20.5 0.5t-16.5 0.5q-8 1 -14 2v157q91 0 122 13q18 8 28.5 24t16.5 37t8 45t2 49v34t1 63t3 80.5t5 86
t8 80.5t12 63q17 61 49 104.5t84 75.5q-32 23 -54 44t-37 42t-24 43t-17 47q-7 23 -12 59.5t-8.5 79.5t-5.5 87.5t-3 83.5t-1 68.5v40.5q0 24 -2 47.5t-8 44t-16.5 35.5t-27.5 22q-27 12 -123 12v157q6 1 14 2q7 0 16.5 0.5t20.5 0.5q30 0 71.5 -6.5t82 -28.5t73.5 -62.5
t48 -109.5q14 -62 14.5 -134t1 -142t7.5 -133t32 -107q24 -42 61.5 -58.5t98.5 -20.5v-228z" />
    <glyph glyph-name="asciitilde" unicode="~" horiz-adv-x="2347" 
d="M2317 1466v-1466h-2280v1466h2280zM198 749h94v95q6 64 24 132.5t53 125.5t88.5 93.5t130.5 36.5q63 0 100.5 -12.5t56.5 -26.5q41 -28 41 -67q0 -18 -10.5 -35.5t-31.5 -31.5t-51.5 -22.5t-71.5 -8.5q-101 0 -172 46l-92 -69q1 -2 1 -3t1 -2q18 -37 48.5 -83t73 -86.5
t99 -68t127.5 -27.5q39 0 83 15.5t84 42.5l-50 72q-28 -19 -60 -30.5t-57 -11.5q-38 0 -71 12t-60.5 31.5t-50.5 44t-41 50.5q63 -20 137 -20q88 0 145 29.5t84 74.5l-2 -83q2 0 15 -0.5t33 -0.5q2 -8 10 -28t23 -45t38.5 -52t57 -49.5t77.5 -37t100 -14.5q67 0 133 30
t121 99l-65 60q-42 -54 -91 -77.5t-98 -23.5q-33 0 -66 9.5t-61.5 27.5t-51 43.5t-35.5 56.5q32 0 58.5 -0.5t43.5 -0.5t41.5 0.5t55 2t53.5 3.5h6q21 2 58 7t72 21t61 48t26 87q0 34 -18 68.5t-50.5 62.5t-76 44.5t-93.5 16.5h-11q-67 -2 -123.5 -25.5t-99 -61.5t-68.5 -86
t-32 -98q-14 1 -24 1h-14q20 37 20 76q0 40 -20 76.5t-58 62.5q-78 55 -207 55q-96 0 -170 -44.5t-126 -131.5v161h-94v-556zM2178 984q1 13 1 25q0 56 -21.5 104t-63 85t-98.5 60.5t-119.5 36.5t-126.5 18t-122 5q-62 0 -110 -3.5t-74 -6.5v-95q28 3 78 7t99 4l-214 -475
h109l214 473q93 -2 158.5 -20t106.5 -46.5t60 -64.5t20 -57t1 -25q0 -32 -13 -65t-38.5 -60.5t-60 -44.5t-73.5 -17q-22 0 -52 7t-58.5 22t-51.5 39.5t-32 60.5l-85 -22q12 -49 39.5 -85.5t65 -60.5t81.5 -36t89 -12q53 0 103.5 15.5t91 47t66.5 78t30 108.5zM1233 1053
q-23 -2 -53.5 -3t-64 -1.5t-69 -0.5h-67.5q8 41 31 74.5t56 57.5t73 37.5t80 13.5q37 0 71 -12.5t61 -38.5q24 -24 24 -52q0 -18 -7 -30.5t-23 -21.5t-42.5 -14.5t-64.5 -8.5h-5zM1898 151q66 0 116 13t83.5 35.5t51 52t17.5 63.5q0 46 -32 74t-80.5 46t-105 29t-105 24
t-80.5 30.5t-32 47.5q0 14 9 28.5t29 26.5t51.5 19.5t75.5 7.5q48 0 101.5 -14.5t100.5 -54.5l37 83q-21 15 -48.5 27.5t-59 21.5t-64.5 14t-66 5q-69 0 -117.5 -13t-79 -35t-44.5 -52t-14 -64q0 -3 0.5 -6t0.5 -7q-34 55 -93.5 89.5t-130.5 53.5t-146.5 26t-142.5 7
q-62 0 -110 -3.5t-74 -6.5v-95q14 2 34 3.5t43.5 3.5t49 3t49.5 1l-214 -475h110l213 474q125 -3 199.5 -33.5t110 -75t36 -71t0.5 -28.5q0 -49 -23 -91.5t-66 -71.5t-96 -29q-22 0 -52 7t-58.5 22t-51.5 39.5t-32 59.5l-85 -21q12 -49 39.5 -85.5t65 -61t81.5 -36.5t90 -12
q53 0 103.5 16t91 47t66.5 78t30 108q1 10 1 20q0 36 -9 69q25 -28 64 -46.5t84 -31t90.5 -21.5t82.5 -19t60 -24t23 -36q0 -18 -14 -31.5t-38 -22.5t-55 -13.5t-65 -4.5q-59 0 -118 17t-102 56l-36 -81q46 -32 112 -53.5t138 -21.5zM908 717h-250v-557h250v92h-153v141h126
v91h-126v141h153v92zM649 160q-8 90 -31 162q-10 31 -24.5 61t-34 54t-45 39.5t-58.5 18.5l149 222h-114l-188 -288q-2 -2 -2.5 -3.5t-1.5 -1.5v293h-101v-557h95q2 71 17 127q6 24 15 46.5t22.5 40t31.5 28.5t42 11q21 0 37.5 -11t29.5 -28.5t22 -40t16 -46.5
q15 -56 21 -127h102z" />
    <glyph glyph-name="exclamdown" unicode="&#xa1;" 
d="M2317 1466v-1466h-2280v1466h2280zM198 749h94v95q6 64 24 132.5t53 125.5t88.5 93.5t130.5 36.5q63 0 100.5 -12.5t56.5 -26.5q41 -28 41 -67q0 -18 -10.5 -35.5t-31.5 -31.5t-51.5 -22.5t-71.5 -8.5q-101 0 -172 46l-92 -69q1 -2 1 -3t1 -2q18 -37 48.5 -83t73 -86.5
t99 -68t127.5 -27.5q39 0 83 15.5t84 42.5l-50 72q-28 -19 -60 -30.5t-57 -11.5q-38 0 -71 12t-60.5 31.5t-50.5 44t-41 50.5q63 -20 137 -20q88 0 145 29.5t84 74.5l-2 -83q2 0 15 -0.5t33 -0.5q2 -8 10 -28t23 -45t38.5 -52t57 -49.5t77.5 -37t100 -14.5q67 0 133 30
t121 99l-65 60q-42 -54 -91 -77.5t-98 -23.5q-33 0 -66 9.5t-61.5 27.5t-51 43.5t-35.5 56.5q32 0 58.5 -0.5t43.5 -0.5t41.5 0.5t55 2t53.5 3.5h6q21 2 58 7t72 21t61 48t26 87q0 34 -18 68.5t-50.5 62.5t-76 44.5t-93.5 16.5h-11q-67 -2 -123.5 -25.5t-99 -61.5t-68.5 -86
t-32 -98q-14 1 -24 1h-14q20 37 20 76q0 40 -20 76.5t-58 62.5q-78 55 -207 55q-96 0 -170 -44.5t-126 -131.5v161h-94v-556zM2178 984q1 13 1 25q0 56 -21.5 104t-63 85t-98.5 60.5t-119.5 36.5t-126.5 18t-122 5q-62 0 -110 -3.5t-74 -6.5v-95q28 3 78 7t99 4l-214 -475
h109l214 473q93 -2 158.5 -20t106.5 -46.5t60 -64.5t20 -57t1 -25q0 -32 -13 -65t-38.5 -60.5t-60 -44.5t-73.5 -17q-22 0 -52 7t-58.5 22t-51.5 39.5t-32 60.5l-85 -22q12 -49 39.5 -85.5t65 -60.5t81.5 -36t89 -12q53 0 103.5 15.5t91 47t66.5 78t30 108.5zM1233 1053
q-23 -2 -53.5 -3t-64 -1.5t-69 -0.5h-67.5q8 41 31 74.5t56 57.5t73 37.5t80 13.5q37 0 71 -12.5t61 -38.5q24 -24 24 -52q0 -18 -7 -30.5t-23 -21.5t-42.5 -14.5t-64.5 -8.5h-5zM1898 151q66 0 116 13t83.5 35.5t51 52t17.5 63.5q0 46 -32 74t-80.5 46t-105 29t-105 24
t-80.5 30.5t-32 47.5q0 14 9 28.5t29 26.5t51.5 19.5t75.5 7.5q48 0 101.5 -14.5t100.5 -54.5l37 83q-21 15 -48.5 27.5t-59 21.5t-64.5 14t-66 5q-69 0 -117.5 -13t-79 -35t-44.5 -52t-14 -64q0 -3 0.5 -6t0.5 -7q-34 55 -93.5 89.5t-130.5 53.5t-146.5 26t-142.5 7
q-62 0 -110 -3.5t-74 -6.5v-95q14 2 34 3.5t43.5 3.5t49 3t49.5 1l-214 -475h110l213 474q125 -3 199.5 -33.5t110 -75t36 -71t0.5 -28.5q0 -49 -23 -91.5t-66 -71.5t-96 -29q-22 0 -52 7t-58.5 22t-51.5 39.5t-32 59.5l-85 -21q12 -49 39.5 -85.5t65 -61t81.5 -36.5t90 -12
q53 0 103.5 16t91 47t66.5 78t30 108q1 10 1 20q0 36 -9 69q25 -28 64 -46.5t84 -31t90.5 -21.5t82.5 -19t60 -24t23 -36q0 -18 -14 -31.5t-38 -22.5t-55 -13.5t-65 -4.5q-59 0 -118 17t-102 56l-36 -81q46 -32 112 -53.5t138 -21.5zM908 717h-250v-557h250v92h-153v141h126
v91h-126v141h153v92zM649 160q-8 90 -31 162q-10 31 -24.5 61t-34 54t-45 39.5t-58.5 18.5l149 222h-114l-188 -288q-2 -2 -2.5 -3.5t-1.5 -1.5v293h-101v-557h95q2 71 17 127q6 24 15 46.5t22.5 40t31.5 28.5t42 11q21 0 37.5 -11t29.5 -28.5t22 -40t16 -46.5
q15 -56 21 -127h102z" />
    <glyph glyph-name="cent" unicode="&#xa2;" horiz-adv-x="2350" 
d="M2317 1466v-1466h-2280v1466h2280zM198 749h94v95q6 64 24 132.5t53 125.5t88.5 93.5t130.5 36.5q63 0 100.5 -12.5t56.5 -26.5q41 -28 41 -67q0 -18 -10.5 -35.5t-31.5 -31.5t-51.5 -22.5t-71.5 -8.5q-101 0 -172 46l-92 -69q1 -2 1 -3t1 -2q18 -37 48.5 -83t73 -86.5
t99 -68t127.5 -27.5q39 0 83 15.5t84 42.5l-50 72q-28 -19 -60 -30.5t-57 -11.5q-38 0 -71 12t-60.5 31.5t-50.5 44t-41 50.5q63 -20 137 -20q88 0 145 29.5t84 74.5l-2 -83q2 0 15 -0.5t33 -0.5q2 -8 10 -28t23 -45t38.5 -52t57 -49.5t77.5 -37t100 -14.5q67 0 133 30
t121 99l-65 60q-42 -54 -91 -77.5t-98 -23.5q-33 0 -66 9.5t-61.5 27.5t-51 43.5t-35.5 56.5q32 0 58.5 -0.5t43.5 -0.5t41.5 0.5t55 2t53.5 3.5h6q21 2 58 7t72 21t61 48t26 87q0 34 -18 68.5t-50.5 62.5t-76 44.5t-93.5 16.5h-11q-67 -2 -123.5 -25.5t-99 -61.5t-68.5 -86
t-32 -98q-14 1 -24 1h-14q20 37 20 76q0 40 -20 76.5t-58 62.5q-78 55 -207 55q-96 0 -170 -44.5t-126 -131.5v161h-94v-556zM2178 984q1 13 1 25q0 56 -21.5 104t-63 85t-98.5 60.5t-119.5 36.5t-126.5 18t-122 5q-62 0 -110 -3.5t-74 -6.5v-95q28 3 78 7t99 4l-214 -475
h109l214 473q93 -2 158.5 -20t106.5 -46.5t60 -64.5t20 -57t1 -25q0 -32 -13 -65t-38.5 -60.5t-60 -44.5t-73.5 -17q-22 0 -52 7t-58.5 22t-51.5 39.5t-32 60.5l-85 -22q12 -49 39.5 -85.5t65 -60.5t81.5 -36t89 -12q53 0 103.5 15.5t91 47t66.5 78t30 108.5zM1233 1053
q-23 -2 -53.5 -3t-64 -1.5t-69 -0.5h-67.5q8 41 31 74.5t56 57.5t73 37.5t80 13.5q37 0 71 -12.5t61 -38.5q24 -24 24 -52q0 -18 -7 -30.5t-23 -21.5t-42.5 -14.5t-64.5 -8.5h-5zM1898 151q66 0 116 13t83.5 35.5t51 52t17.5 63.5q0 46 -32 74t-80.5 46t-105 29t-105 24
t-80.5 30.5t-32 47.5q0 14 9 28.5t29 26.5t51.5 19.5t75.5 7.5q48 0 101.5 -14.5t100.5 -54.5l37 83q-21 15 -48.5 27.5t-59 21.5t-64.5 14t-66 5q-69 0 -117.5 -13t-79 -35t-44.5 -52t-14 -64q0 -3 0.5 -6t0.5 -7q-34 55 -93.5 89.5t-130.5 53.5t-146.5 26t-142.5 7
q-62 0 -110 -3.5t-74 -6.5v-95q14 2 34 3.5t43.5 3.5t49 3t49.5 1l-214 -475h110l213 474q125 -3 199.5 -33.5t110 -75t36 -71t0.5 -28.5q0 -49 -23 -91.5t-66 -71.5t-96 -29q-22 0 -52 7t-58.5 22t-51.5 39.5t-32 59.5l-85 -21q12 -49 39.5 -85.5t65 -61t81.5 -36.5t90 -12
q53 0 103.5 16t91 47t66.5 78t30 108q1 10 1 20q0 36 -9 69q25 -28 64 -46.5t84 -31t90.5 -21.5t82.5 -19t60 -24t23 -36q0 -18 -14 -31.5t-38 -22.5t-55 -13.5t-65 -4.5q-59 0 -118 17t-102 56l-36 -81q46 -32 112 -53.5t138 -21.5zM908 717h-250v-557h250v92h-153v141h126
v91h-126v141h153v92zM649 160q-8 90 -31 162q-10 31 -24.5 61t-34 54t-45 39.5t-58.5 18.5l149 222h-114l-188 -288q-2 -2 -2.5 -3.5t-1.5 -1.5v293h-101v-557h95q2 71 17 127q6 24 15 46.5t22.5 40t31.5 28.5t42 11q21 0 37.5 -11t29.5 -28.5t22 -40t16 -46.5
q15 -56 21 -127h102zM-1995 -2229q-40 -3 -73.5 -12t-53.5 -26q-28 -24 -42.5 -61.5t-21 -84.5t-7 -100t-1 -106.5t-3 -106t-11.5 -97.5q-15 -69 -48 -110t-73.5 -63t-82 -28.5t-72.5 -6.5q-12 0 -21 0.5t-16 0.5q-8 1 -14 2v158q94 0 121 13q18 8 29 23.5t17 36.5t8 45
t2 49v33.5t1 63.5t2.5 80.5t5 86t8.5 80.5t12 63q17 61 49 104.5t84 76.5q-32 22 -54 43t-37 42t-24.5 43t-17.5 47q-7 23 -12 60t-8.5 79.5t-5 87t-2.5 83.5t-1.5 68t-0.5 41q0 24 -2 47.5t-8 44t-16.5 35.5t-26.5 23q-28 11 -123 11v157q6 1 14 2q7 1 16 1.5t21 0.5
q30 0 71.5 -7t82 -28.5t73.5 -62.5t48 -109q13 -62 13.5 -134t1.5 -142.5t7.5 -133.5t31.5 -107q24 -42 62 -58.5t98 -19.5v-228z" />
    <glyph glyph-name="sterling" unicode="&#xa3;" 
d="M2317 1466v-1466h-2280v1466h2280zM198 749h94v95q6 64 24 132.5t53 125.5t88.5 93.5t130.5 36.5q63 0 100.5 -12.5t56.5 -26.5q41 -28 41 -67q0 -18 -10.5 -35.5t-31.5 -31.5t-51.5 -22.5t-71.5 -8.5q-101 0 -172 46l-92 -69q1 -2 1 -3t1 -2q18 -37 48.5 -83t73 -86.5
t99 -68t127.5 -27.5q39 0 83 15.5t84 42.5l-50 72q-28 -19 -60 -30.5t-57 -11.5q-38 0 -71 12t-60.5 31.5t-50.5 44t-41 50.5q63 -20 137 -20q88 0 145 29.5t84 74.5l-2 -83q2 0 15 -0.5t33 -0.5q2 -8 10 -28t23 -45t38.5 -52t57 -49.5t77.5 -37t100 -14.5q67 0 133 30
t121 99l-65 60q-42 -54 -91 -77.5t-98 -23.5q-33 0 -66 9.5t-61.5 27.5t-51 43.5t-35.5 56.5q32 0 58.5 -0.5t43.5 -0.5t41.5 0.5t55 2t53.5 3.5h6q21 2 58 7t72 21t61 48t26 87q0 34 -18 68.5t-50.5 62.5t-76 44.5t-93.5 16.5h-11q-67 -2 -123.5 -25.5t-99 -61.5t-68.5 -86
t-32 -98q-14 1 -24 1h-14q20 37 20 76q0 40 -20 76.5t-58 62.5q-78 55 -207 55q-96 0 -170 -44.5t-126 -131.5v161h-94v-556zM2178 984q1 13 1 25q0 56 -21.5 104t-63 85t-98.5 60.5t-119.5 36.5t-126.5 18t-122 5q-62 0 -110 -3.5t-74 -6.5v-95q28 3 78 7t99 4l-214 -475
h109l214 473q93 -2 158.5 -20t106.5 -46.5t60 -64.5t20 -57t1 -25q0 -32 -13 -65t-38.5 -60.5t-60 -44.5t-73.5 -17q-22 0 -52 7t-58.5 22t-51.5 39.5t-32 60.5l-85 -22q12 -49 39.5 -85.5t65 -60.5t81.5 -36t89 -12q53 0 103.5 15.5t91 47t66.5 78t30 108.5zM1233 1053
q-23 -2 -53.5 -3t-64 -1.5t-69 -0.5h-67.5q8 41 31 74.5t56 57.5t73 37.5t80 13.5q37 0 71 -12.5t61 -38.5q24 -24 24 -52q0 -18 -7 -30.5t-23 -21.5t-42.5 -14.5t-64.5 -8.5h-5zM1898 151q66 0 116 13t83.5 35.5t51 52t17.5 63.5q0 46 -32 74t-80.5 46t-105 29t-105 24
t-80.5 30.5t-32 47.5q0 14 9 28.5t29 26.5t51.5 19.5t75.5 7.5q48 0 101.5 -14.5t100.5 -54.5l37 83q-21 15 -48.5 27.5t-59 21.5t-64.5 14t-66 5q-69 0 -117.5 -13t-79 -35t-44.5 -52t-14 -64q0 -3 0.5 -6t0.5 -7q-34 55 -93.5 89.5t-130.5 53.5t-146.5 26t-142.5 7
q-62 0 -110 -3.5t-74 -6.5v-95q14 2 34 3.5t43.5 3.5t49 3t49.5 1l-214 -475h110l213 474q125 -3 199.5 -33.5t110 -75t36 -71t0.5 -28.5q0 -49 -23 -91.5t-66 -71.5t-96 -29q-22 0 -52 7t-58.5 22t-51.5 39.5t-32 59.5l-85 -21q12 -49 39.5 -85.5t65 -61t81.5 -36.5t90 -12
q53 0 103.5 16t91 47t66.5 78t30 108q1 10 1 20q0 36 -9 69q25 -28 64 -46.5t84 -31t90.5 -21.5t82.5 -19t60 -24t23 -36q0 -18 -14 -31.5t-38 -22.5t-55 -13.5t-65 -4.5q-59 0 -118 17t-102 56l-36 -81q46 -32 112 -53.5t138 -21.5zM908 717h-250v-557h250v92h-153v141h126
v91h-126v141h153v92zM649 160q-8 90 -31 162q-10 31 -24.5 61t-34 54t-45 39.5t-58.5 18.5l149 222h-114l-188 -288q-2 -2 -2.5 -3.5t-1.5 -1.5v293h-101v-557h95q2 71 17 127q6 24 15 46.5t22.5 40t31.5 28.5t42 11q21 0 37.5 -11t29.5 -28.5t22 -40t16 -46.5
q15 -56 21 -127h102z" />
    <glyph glyph-name="currency" unicode="&#xa4;" 
d="M2317 1466v-1466h-2280v1466h2280zM198 749h94v95q6 64 24 132.5t53 125.5t88.5 93.5t130.5 36.5q63 0 100.5 -12.5t56.5 -26.5q41 -28 41 -67q0 -18 -10.5 -35.5t-31.5 -31.5t-51.5 -22.5t-71.5 -8.5q-101 0 -172 46l-92 -69q1 -2 1 -3t1 -2q18 -37 48.5 -83t73 -86.5
t99 -68t127.5 -27.5q39 0 83 15.5t84 42.5l-50 72q-28 -19 -60 -30.5t-57 -11.5q-38 0 -71 12t-60.5 31.5t-50.5 44t-41 50.5q63 -20 137 -20q88 0 145 29.5t84 74.5l-2 -83q2 0 15 -0.5t33 -0.5q2 -8 10 -28t23 -45t38.5 -52t57 -49.5t77.5 -37t100 -14.5q67 0 133 30
t121 99l-65 60q-42 -54 -91 -77.5t-98 -23.5q-33 0 -66 9.5t-61.5 27.5t-51 43.5t-35.5 56.5q32 0 58.5 -0.5t43.5 -0.5t41.5 0.5t55 2t53.5 3.5h6q21 2 58 7t72 21t61 48t26 87q0 34 -18 68.5t-50.5 62.5t-76 44.5t-93.5 16.5h-11q-67 -2 -123.5 -25.5t-99 -61.5t-68.5 -86
t-32 -98q-14 1 -24 1h-14q20 37 20 76q0 40 -20 76.5t-58 62.5q-78 55 -207 55q-96 0 -170 -44.5t-126 -131.5v161h-94v-556zM2178 984q1 13 1 25q0 56 -21.5 104t-63 85t-98.5 60.5t-119.5 36.5t-126.5 18t-122 5q-62 0 -110 -3.5t-74 -6.5v-95q28 3 78 7t99 4l-214 -475
h109l214 473q93 -2 158.5 -20t106.5 -46.5t60 -64.5t20 -57t1 -25q0 -32 -13 -65t-38.5 -60.5t-60 -44.5t-73.5 -17q-22 0 -52 7t-58.5 22t-51.5 39.5t-32 60.5l-85 -22q12 -49 39.5 -85.5t65 -60.5t81.5 -36t89 -12q53 0 103.5 15.5t91 47t66.5 78t30 108.5zM1233 1053
q-23 -2 -53.5 -3t-64 -1.5t-69 -0.5h-67.5q8 41 31 74.5t56 57.5t73 37.5t80 13.5q37 0 71 -12.5t61 -38.5q24 -24 24 -52q0 -18 -7 -30.5t-23 -21.5t-42.5 -14.5t-64.5 -8.5h-5zM1898 151q66 0 116 13t83.5 35.5t51 52t17.5 63.5q0 46 -32 74t-80.5 46t-105 29t-105 24
t-80.5 30.5t-32 47.5q0 14 9 28.5t29 26.5t51.5 19.5t75.5 7.5q48 0 101.5 -14.5t100.5 -54.5l37 83q-21 15 -48.5 27.5t-59 21.5t-64.5 14t-66 5q-69 0 -117.5 -13t-79 -35t-44.5 -52t-14 -64q0 -3 0.5 -6t0.5 -7q-34 55 -93.5 89.5t-130.5 53.5t-146.5 26t-142.5 7
q-62 0 -110 -3.5t-74 -6.5v-95q14 2 34 3.5t43.5 3.5t49 3t49.5 1l-214 -475h110l213 474q125 -3 199.5 -33.5t110 -75t36 -71t0.5 -28.5q0 -49 -23 -91.5t-66 -71.5t-96 -29q-22 0 -52 7t-58.5 22t-51.5 39.5t-32 59.5l-85 -21q12 -49 39.5 -85.5t65 -61t81.5 -36.5t90 -12
q53 0 103.5 16t91 47t66.5 78t30 108q1 10 1 20q0 36 -9 69q25 -28 64 -46.5t84 -31t90.5 -21.5t82.5 -19t60 -24t23 -36q0 -18 -14 -31.5t-38 -22.5t-55 -13.5t-65 -4.5q-59 0 -118 17t-102 56l-36 -81q46 -32 112 -53.5t138 -21.5zM908 717h-250v-557h250v92h-153v141h126
v91h-126v141h153v92zM649 160q-8 90 -31 162q-10 31 -24.5 61t-34 54t-45 39.5t-58.5 18.5l149 222h-114l-188 -288q-2 -2 -2.5 -3.5t-1.5 -1.5v293h-101v-557h95q2 71 17 127q6 24 15 46.5t22.5 40t31.5 28.5t42 11q21 0 37.5 -11t29.5 -28.5t22 -40t16 -46.5
q15 -56 21 -127h102z" />
    <glyph glyph-name="yen" unicode="&#xa5;" 
d="M2317 1466v-1466h-2280v1466h2280zM198 749h94v95q6 64 24 132.5t53 125.5t88.5 93.5t130.5 36.5q63 0 100.5 -12.5t56.5 -26.5q41 -28 41 -67q0 -18 -10.5 -35.5t-31.5 -31.5t-51.5 -22.5t-71.5 -8.5q-101 0 -172 46l-92 -69q1 -2 1 -3t1 -2q18 -37 48.5 -83t73 -86.5
t99 -68t127.5 -27.5q39 0 83 15.5t84 42.5l-50 72q-28 -19 -60 -30.5t-57 -11.5q-38 0 -71 12t-60.5 31.5t-50.5 44t-41 50.5q63 -20 137 -20q88 0 145 29.5t84 74.5l-2 -83q2 0 15 -0.5t33 -0.5q2 -8 10 -28t23 -45t38.5 -52t57 -49.5t77.5 -37t100 -14.5q67 0 133 30
t121 99l-65 60q-42 -54 -91 -77.5t-98 -23.5q-33 0 -66 9.5t-61.5 27.5t-51 43.5t-35.5 56.5q32 0 58.5 -0.5t43.5 -0.5t41.5 0.5t55 2t53.5 3.5h6q21 2 58 7t72 21t61 48t26 87q0 34 -18 68.5t-50.5 62.5t-76 44.5t-93.5 16.5h-11q-67 -2 -123.5 -25.5t-99 -61.5t-68.5 -86
t-32 -98q-14 1 -24 1h-14q20 37 20 76q0 40 -20 76.5t-58 62.5q-78 55 -207 55q-96 0 -170 -44.5t-126 -131.5v161h-94v-556zM2178 984q1 13 1 25q0 56 -21.5 104t-63 85t-98.5 60.5t-119.5 36.5t-126.5 18t-122 5q-62 0 -110 -3.5t-74 -6.5v-95q28 3 78 7t99 4l-214 -475
h109l214 473q93 -2 158.5 -20t106.5 -46.5t60 -64.5t20 -57t1 -25q0 -32 -13 -65t-38.5 -60.5t-60 -44.5t-73.5 -17q-22 0 -52 7t-58.5 22t-51.5 39.5t-32 60.5l-85 -22q12 -49 39.5 -85.5t65 -60.5t81.5 -36t89 -12q53 0 103.5 15.5t91 47t66.5 78t30 108.5zM1233 1053
q-23 -2 -53.5 -3t-64 -1.5t-69 -0.5h-67.5q8 41 31 74.5t56 57.5t73 37.5t80 13.5q37 0 71 -12.5t61 -38.5q24 -24 24 -52q0 -18 -7 -30.5t-23 -21.5t-42.5 -14.5t-64.5 -8.5h-5zM1898 151q66 0 116 13t83.5 35.5t51 52t17.5 63.5q0 46 -32 74t-80.5 46t-105 29t-105 24
t-80.5 30.5t-32 47.5q0 14 9 28.5t29 26.5t51.5 19.5t75.5 7.5q48 0 101.5 -14.5t100.5 -54.5l37 83q-21 15 -48.5 27.5t-59 21.5t-64.5 14t-66 5q-69 0 -117.5 -13t-79 -35t-44.5 -52t-14 -64q0 -3 0.5 -6t0.5 -7q-34 55 -93.5 89.5t-130.5 53.5t-146.5 26t-142.5 7
q-62 0 -110 -3.5t-74 -6.5v-95q14 2 34 3.5t43.5 3.5t49 3t49.5 1l-214 -475h110l213 474q125 -3 199.5 -33.5t110 -75t36 -71t0.5 -28.5q0 -49 -23 -91.5t-66 -71.5t-96 -29q-22 0 -52 7t-58.5 22t-51.5 39.5t-32 59.5l-85 -21q12 -49 39.5 -85.5t65 -61t81.5 -36.5t90 -12
q53 0 103.5 16t91 47t66.5 78t30 108q1 10 1 20q0 36 -9 69q25 -28 64 -46.5t84 -31t90.5 -21.5t82.5 -19t60 -24t23 -36q0 -18 -14 -31.5t-38 -22.5t-55 -13.5t-65 -4.5q-59 0 -118 17t-102 56l-36 -81q46 -32 112 -53.5t138 -21.5zM908 717h-250v-557h250v92h-153v141h126
v91h-126v141h153v92zM649 160q-8 90 -31 162q-10 31 -24.5 61t-34 54t-45 39.5t-58.5 18.5l149 222h-114l-188 -288q-2 -2 -2.5 -3.5t-1.5 -1.5v293h-101v-557h95q2 71 17 127q6 24 15 46.5t22.5 40t31.5 28.5t42 11q21 0 37.5 -11t29.5 -28.5t22 -40t16 -46.5
q15 -56 21 -127h102z" />
    <glyph glyph-name="brokenbar" unicode="&#xa6;" 
d="M2317 1466v-1466h-2280v1466h2280zM198 749h94v95q6 64 24 132.5t53 125.5t88.5 93.5t130.5 36.5q63 0 100.5 -12.5t56.5 -26.5q41 -28 41 -67q0 -18 -10.5 -35.5t-31.5 -31.5t-51.5 -22.5t-71.5 -8.5q-101 0 -172 46l-92 -69q1 -2 1 -3t1 -2q18 -37 48.5 -83t73 -86.5
t99 -68t127.5 -27.5q39 0 83 15.5t84 42.5l-50 72q-28 -19 -60 -30.5t-57 -11.5q-38 0 -71 12t-60.5 31.5t-50.5 44t-41 50.5q63 -20 137 -20q88 0 145 29.5t84 74.5l-2 -83q2 0 15 -0.5t33 -0.5q2 -8 10 -28t23 -45t38.5 -52t57 -49.5t77.5 -37t100 -14.5q67 0 133 30
t121 99l-65 60q-42 -54 -91 -77.5t-98 -23.5q-33 0 -66 9.5t-61.5 27.5t-51 43.5t-35.5 56.5q32 0 58.5 -0.5t43.5 -0.5t41.5 0.5t55 2t53.5 3.5h6q21 2 58 7t72 21t61 48t26 87q0 34 -18 68.5t-50.5 62.5t-76 44.5t-93.5 16.5h-11q-67 -2 -123.5 -25.5t-99 -61.5t-68.5 -86
t-32 -98q-14 1 -24 1h-14q20 37 20 76q0 40 -20 76.5t-58 62.5q-78 55 -207 55q-96 0 -170 -44.5t-126 -131.5v161h-94v-556zM2178 984q1 13 1 25q0 56 -21.5 104t-63 85t-98.5 60.5t-119.5 36.5t-126.5 18t-122 5q-62 0 -110 -3.5t-74 -6.5v-95q28 3 78 7t99 4l-214 -475
h109l214 473q93 -2 158.5 -20t106.5 -46.5t60 -64.5t20 -57t1 -25q0 -32 -13 -65t-38.5 -60.5t-60 -44.5t-73.5 -17q-22 0 -52 7t-58.5 22t-51.5 39.5t-32 60.5l-85 -22q12 -49 39.5 -85.5t65 -60.5t81.5 -36t89 -12q53 0 103.5 15.5t91 47t66.5 78t30 108.5zM1233 1053
q-23 -2 -53.5 -3t-64 -1.5t-69 -0.5h-67.5q8 41 31 74.5t56 57.5t73 37.5t80 13.5q37 0 71 -12.5t61 -38.5q24 -24 24 -52q0 -18 -7 -30.5t-23 -21.5t-42.5 -14.5t-64.5 -8.5h-5zM1898 151q66 0 116 13t83.5 35.5t51 52t17.5 63.5q0 46 -32 74t-80.5 46t-105 29t-105 24
t-80.5 30.5t-32 47.5q0 14 9 28.5t29 26.5t51.5 19.5t75.5 7.5q48 0 101.5 -14.5t100.5 -54.5l37 83q-21 15 -48.5 27.5t-59 21.5t-64.5 14t-66 5q-69 0 -117.5 -13t-79 -35t-44.5 -52t-14 -64q0 -3 0.5 -6t0.5 -7q-34 55 -93.5 89.5t-130.5 53.5t-146.5 26t-142.5 7
q-62 0 -110 -3.5t-74 -6.5v-95q14 2 34 3.5t43.5 3.5t49 3t49.5 1l-214 -475h110l213 474q125 -3 199.5 -33.5t110 -75t36 -71t0.5 -28.5q0 -49 -23 -91.5t-66 -71.5t-96 -29q-22 0 -52 7t-58.5 22t-51.5 39.5t-32 59.5l-85 -21q12 -49 39.5 -85.5t65 -61t81.5 -36.5t90 -12
q53 0 103.5 16t91 47t66.5 78t30 108q1 10 1 20q0 36 -9 69q25 -28 64 -46.5t84 -31t90.5 -21.5t82.5 -19t60 -24t23 -36q0 -18 -14 -31.5t-38 -22.5t-55 -13.5t-65 -4.5q-59 0 -118 17t-102 56l-36 -81q46 -32 112 -53.5t138 -21.5zM908 717h-250v-557h250v92h-153v141h126
v91h-126v141h153v92zM649 160q-8 90 -31 162q-10 31 -24.5 61t-34 54t-45 39.5t-58.5 18.5l149 222h-114l-188 -288q-2 -2 -2.5 -3.5t-1.5 -1.5v293h-101v-557h95q2 71 17 127q6 24 15 46.5t22.5 40t31.5 28.5t42 11q21 0 37.5 -11t29.5 -28.5t22 -40t16 -46.5
q15 -56 21 -127h102z" />
    <glyph glyph-name="section" unicode="&#xa7;" horiz-adv-x="2348" 
d="M2317 1466v-1466h-2280v1466h2280zM198 749h94v95q6 64 24 132.5t53 125.5t88.5 93.5t130.5 36.5q63 0 100.5 -12.5t56.5 -26.5q41 -28 41 -67q0 -18 -10.5 -35.5t-31.5 -31.5t-51.5 -22.5t-71.5 -8.5q-101 0 -172 46l-92 -69q1 -2 1 -3t1 -2q18 -37 48.5 -83t73 -86.5
t99 -68t127.5 -27.5q39 0 83 15.5t84 42.5l-50 72q-28 -19 -60 -30.5t-57 -11.5q-38 0 -71 12t-60.5 31.5t-50.5 44t-41 50.5q63 -20 137 -20q88 0 145 29.5t84 74.5l-2 -83q2 0 15 -0.5t33 -0.5q2 -8 10 -28t23 -45t38.5 -52t57 -49.5t77.5 -37t100 -14.5q67 0 133 30
t121 99l-65 60q-42 -54 -91 -77.5t-98 -23.5q-33 0 -66 9.5t-61.5 27.5t-51 43.5t-35.5 56.5q32 0 58.5 -0.5t43.5 -0.5t41.5 0.5t55 2t53.5 3.5h6q21 2 58 7t72 21t61 48t26 87q0 34 -18 68.5t-50.5 62.5t-76 44.5t-93.5 16.5h-11q-67 -2 -123.5 -25.5t-99 -61.5t-68.5 -86
t-32 -98q-14 1 -24 1h-14q20 37 20 76q0 40 -20 76.5t-58 62.5q-78 55 -207 55q-96 0 -170 -44.5t-126 -131.5v161h-94v-556zM2178 984q1 13 1 25q0 56 -21.5 104t-63 85t-98.5 60.5t-119.5 36.5t-126.5 18t-122 5q-62 0 -110 -3.5t-74 -6.5v-95q28 3 78 7t99 4l-214 -475
h109l214 473q93 -2 158.5 -20t106.5 -46.5t60 -64.5t20 -57t1 -25q0 -32 -13 -65t-38.5 -60.5t-60 -44.5t-73.5 -17q-22 0 -52 7t-58.5 22t-51.5 39.5t-32 60.5l-85 -22q12 -49 39.5 -85.5t65 -60.5t81.5 -36t89 -12q53 0 103.5 15.5t91 47t66.5 78t30 108.5zM1233 1053
q-23 -2 -53.5 -3t-64 -1.5t-69 -0.5h-67.5q8 41 31 74.5t56 57.5t73 37.5t80 13.5q37 0 71 -12.5t61 -38.5q24 -24 24 -52q0 -18 -7 -30.5t-23 -21.5t-42.5 -14.5t-64.5 -8.5h-5zM1898 151q66 0 116 13t83.5 35.5t51 52t17.5 63.5q0 46 -32 74t-80.5 46t-105 29t-105 24
t-80.5 30.5t-32 47.5q0 14 9 28.5t29 26.5t51.5 19.5t75.5 7.5q48 0 101.5 -14.5t100.5 -54.5l37 83q-21 15 -48.5 27.5t-59 21.5t-64.5 14t-66 5q-69 0 -117.5 -13t-79 -35t-44.5 -52t-14 -64q0 -3 0.5 -6t0.5 -7q-34 55 -93.5 89.5t-130.5 53.5t-146.5 26t-142.5 7
q-62 0 -110 -3.5t-74 -6.5v-95q14 2 34 3.5t43.5 3.5t49 3t49.5 1l-214 -475h110l213 474q125 -3 199.5 -33.5t110 -75t36 -71t0.5 -28.5q0 -49 -23 -91.5t-66 -71.5t-96 -29q-22 0 -52 7t-58.5 22t-51.5 39.5t-32 59.5l-85 -21q12 -49 39.5 -85.5t65 -61t81.5 -36.5t90 -12
q53 0 103.5 16t91 47t66.5 78t30 108q1 10 1 20q0 36 -9 69q25 -28 64 -46.5t84 -31t90.5 -21.5t82.5 -19t60 -24t23 -36q0 -18 -14 -31.5t-38 -22.5t-55 -13.5t-65 -4.5q-59 0 -118 17t-102 56l-36 -81q46 -32 112 -53.5t138 -21.5zM908 717h-250v-557h250v92h-153v141h126
v91h-126v141h153v92zM649 160q-8 90 -31 162q-10 31 -24.5 61t-34 54t-45 39.5t-58.5 18.5l149 222h-114l-188 -288q-2 -2 -2.5 -3.5t-1.5 -1.5v293h-101v-557h95q2 71 17 127q6 24 15 46.5t22.5 40t31.5 28.5t42 11q21 0 37.5 -11t29.5 -28.5t22 -40t16 -46.5
q15 -56 21 -127h102z" />
    <glyph glyph-name="dieresis" unicode="&#xa8;" 
d="M2317 1466v-1466h-2280v1466h2280zM198 749h94v95q6 64 24 132.5t53 125.5t88.5 93.5t130.5 36.5q63 0 100.5 -12.5t56.5 -26.5q41 -28 41 -67q0 -18 -10.5 -35.5t-31.5 -31.5t-51.5 -22.5t-71.5 -8.5q-101 0 -172 46l-92 -69q1 -2 1 -3t1 -2q18 -37 48.5 -83t73 -86.5
t99 -68t127.5 -27.5q39 0 83 15.5t84 42.5l-50 72q-28 -19 -60 -30.5t-57 -11.5q-38 0 -71 12t-60.5 31.5t-50.5 44t-41 50.5q63 -20 137 -20q88 0 145 29.5t84 74.5l-2 -83q2 0 15 -0.5t33 -0.5q2 -8 10 -28t23 -45t38.5 -52t57 -49.5t77.5 -37t100 -14.5q67 0 133 30
t121 99l-65 60q-42 -54 -91 -77.5t-98 -23.5q-33 0 -66 9.5t-61.5 27.5t-51 43.5t-35.5 56.5q32 0 58.5 -0.5t43.5 -0.5t41.5 0.5t55 2t53.5 3.5h6q21 2 58 7t72 21t61 48t26 87q0 34 -18 68.5t-50.5 62.5t-76 44.5t-93.5 16.5h-11q-67 -2 -123.5 -25.5t-99 -61.5t-68.5 -86
t-32 -98q-14 1 -24 1h-14q20 37 20 76q0 40 -20 76.5t-58 62.5q-78 55 -207 55q-96 0 -170 -44.5t-126 -131.5v161h-94v-556zM2178 984q1 13 1 25q0 56 -21.5 104t-63 85t-98.5 60.5t-119.5 36.5t-126.5 18t-122 5q-62 0 -110 -3.5t-74 -6.5v-95q28 3 78 7t99 4l-214 -475
h109l214 473q93 -2 158.5 -20t106.5 -46.5t60 -64.5t20 -57t1 -25q0 -32 -13 -65t-38.5 -60.5t-60 -44.5t-73.5 -17q-22 0 -52 7t-58.5 22t-51.5 39.5t-32 60.5l-85 -22q12 -49 39.5 -85.5t65 -60.5t81.5 -36t89 -12q53 0 103.5 15.5t91 47t66.5 78t30 108.5zM1233 1053
q-23 -2 -53.5 -3t-64 -1.5t-69 -0.5h-67.5q8 41 31 74.5t56 57.5t73 37.5t80 13.5q37 0 71 -12.5t61 -38.5q24 -24 24 -52q0 -18 -7 -30.5t-23 -21.5t-42.5 -14.5t-64.5 -8.5h-5zM1898 151q66 0 116 13t83.5 35.5t51 52t17.5 63.5q0 46 -32 74t-80.5 46t-105 29t-105 24
t-80.5 30.5t-32 47.5q0 14 9 28.5t29 26.5t51.5 19.5t75.5 7.5q48 0 101.5 -14.5t100.5 -54.5l37 83q-21 15 -48.5 27.5t-59 21.5t-64.5 14t-66 5q-69 0 -117.5 -13t-79 -35t-44.5 -52t-14 -64q0 -3 0.5 -6t0.5 -7q-34 55 -93.5 89.5t-130.5 53.5t-146.5 26t-142.5 7
q-62 0 -110 -3.5t-74 -6.5v-95q14 2 34 3.5t43.5 3.5t49 3t49.5 1l-214 -475h110l213 474q125 -3 199.5 -33.5t110 -75t36 -71t0.5 -28.5q0 -49 -23 -91.5t-66 -71.5t-96 -29q-22 0 -52 7t-58.5 22t-51.5 39.5t-32 59.5l-85 -21q12 -49 39.5 -85.5t65 -61t81.5 -36.5t90 -12
q53 0 103.5 16t91 47t66.5 78t30 108q1 10 1 20q0 36 -9 69q25 -28 64 -46.5t84 -31t90.5 -21.5t82.5 -19t60 -24t23 -36q0 -18 -14 -31.5t-38 -22.5t-55 -13.5t-65 -4.5q-59 0 -118 17t-102 56l-36 -81q46 -32 112 -53.5t138 -21.5zM908 717h-250v-557h250v92h-153v141h126
v91h-126v141h153v92zM649 160q-8 90 -31 162q-10 31 -24.5 61t-34 54t-45 39.5t-58.5 18.5l149 222h-114l-188 -288q-2 -2 -2.5 -3.5t-1.5 -1.5v293h-101v-557h95q2 71 17 127q6 24 15 46.5t22.5 40t31.5 28.5t42 11q21 0 37.5 -11t29.5 -28.5t22 -40t16 -46.5
q15 -56 21 -127h102z" />
    <glyph glyph-name="copyright" unicode="&#xa9;" horiz-adv-x="2358" 
d="M2317 1466v-1466h-2280v1466h2280zM198 749h94v95q6 64 24 132.5t53 125.5t88.5 93.5t130.5 36.5q63 0 100.5 -12.5t56.5 -26.5q41 -28 41 -67q0 -18 -10.5 -35.5t-31.5 -31.5t-51.5 -22.5t-71.5 -8.5q-101 0 -172 46l-92 -69q1 -2 1 -3t1 -2q18 -37 48.5 -83t73 -86.5
t99 -68t127.5 -27.5q39 0 83 15.5t84 42.5l-50 72q-28 -19 -60 -30.5t-57 -11.5q-38 0 -71 12t-60.5 31.5t-50.5 44t-41 50.5q63 -20 137 -20q88 0 145 29.5t84 74.5l-2 -83q2 0 15 -0.5t33 -0.5q2 -8 10 -28t23 -45t38.5 -52t57 -49.5t77.5 -37t100 -14.5q67 0 133 30
t121 99l-65 60q-42 -54 -91 -77.5t-98 -23.5q-33 0 -66 9.5t-61.5 27.5t-51 43.5t-35.5 56.5q32 0 58.5 -0.5t43.5 -0.5t41.5 0.5t55 2t53.5 3.5h6q21 2 58 7t72 21t61 48t26 87q0 34 -18 68.5t-50.5 62.5t-76 44.5t-93.5 16.5h-11q-67 -2 -123.5 -25.5t-99 -61.5t-68.5 -86
t-32 -98q-14 1 -24 1h-14q20 37 20 76q0 40 -20 76.5t-58 62.5q-78 55 -207 55q-96 0 -170 -44.5t-126 -131.5v161h-94v-556zM2178 984q1 13 1 25q0 56 -21.5 104t-63 85t-98.5 60.5t-119.5 36.5t-126.5 18t-122 5q-62 0 -110 -3.5t-74 -6.5v-95q28 3 78 7t99 4l-214 -475
h109l214 473q93 -2 158.5 -20t106.5 -46.5t60 -64.5t20 -57t1 -25q0 -32 -13 -65t-38.5 -60.5t-60 -44.5t-73.5 -17q-22 0 -52 7t-58.5 22t-51.5 39.5t-32 60.5l-85 -22q12 -49 39.5 -85.5t65 -60.5t81.5 -36t89 -12q53 0 103.5 15.5t91 47t66.5 78t30 108.5zM1233 1053
q-23 -2 -53.5 -3t-64 -1.5t-69 -0.5h-67.5q8 41 31 74.5t56 57.5t73 37.5t80 13.5q37 0 71 -12.5t61 -38.5q24 -24 24 -52q0 -18 -7 -30.5t-23 -21.5t-42.5 -14.5t-64.5 -8.5h-5zM1898 151q66 0 116 13t83.5 35.5t51 52t17.5 63.5q0 46 -32 74t-80.5 46t-105 29t-105 24
t-80.5 30.5t-32 47.5q0 14 9 28.5t29 26.5t51.5 19.5t75.5 7.5q48 0 101.5 -14.5t100.5 -54.5l37 83q-21 15 -48.5 27.5t-59 21.5t-64.5 14t-66 5q-69 0 -117.5 -13t-79 -35t-44.5 -52t-14 -64q0 -3 0.5 -6t0.5 -7q-34 55 -93.5 89.5t-130.5 53.5t-146.5 26t-142.5 7
q-62 0 -110 -3.5t-74 -6.5v-95q14 2 34 3.5t43.5 3.5t49 3t49.5 1l-214 -475h110l213 474q125 -3 199.5 -33.5t110 -75t36 -71t0.5 -28.5q0 -49 -23 -91.5t-66 -71.5t-96 -29q-22 0 -52 7t-58.5 22t-51.5 39.5t-32 59.5l-85 -21q12 -49 39.5 -85.5t65 -61t81.5 -36.5t90 -12
q53 0 103.5 16t91 47t66.5 78t30 108q1 10 1 20q0 36 -9 69q25 -28 64 -46.5t84 -31t90.5 -21.5t82.5 -19t60 -24t23 -36q0 -18 -14 -31.5t-38 -22.5t-55 -13.5t-65 -4.5q-59 0 -118 17t-102 56l-36 -81q46 -32 112 -53.5t138 -21.5zM908 717h-250v-557h250v92h-153v141h126
v91h-126v141h153v92zM649 160q-8 90 -31 162q-10 31 -24.5 61t-34 54t-45 39.5t-58.5 18.5l149 222h-114l-188 -288q-2 -2 -2.5 -3.5t-1.5 -1.5v293h-101v-557h95q2 71 17 127q6 24 15 46.5t22.5 40t31.5 28.5t42 11q21 0 37.5 -11t29.5 -28.5t22 -40t16 -46.5
q15 -56 21 -127h102z" />
    <glyph glyph-name="ordfeminine" unicode="&#xaa;" 
d="M2317 1466v-1466h-2280v1466h2280zM198 749h94v95q6 64 24 132.5t53 125.5t88.5 93.5t130.5 36.5q63 0 100.5 -12.5t56.5 -26.5q41 -28 41 -67q0 -18 -10.5 -35.5t-31.5 -31.5t-51.5 -22.5t-71.5 -8.5q-101 0 -172 46l-92 -69q1 -2 1 -3t1 -2q18 -37 48.5 -83t73 -86.5
t99 -68t127.5 -27.5q39 0 83 15.5t84 42.5l-50 72q-28 -19 -60 -30.5t-57 -11.5q-38 0 -71 12t-60.5 31.5t-50.5 44t-41 50.5q63 -20 137 -20q88 0 145 29.5t84 74.5l-2 -83q2 0 15 -0.5t33 -0.5q2 -8 10 -28t23 -45t38.5 -52t57 -49.5t77.5 -37t100 -14.5q67 0 133 30
t121 99l-65 60q-42 -54 -91 -77.5t-98 -23.5q-33 0 -66 9.5t-61.5 27.5t-51 43.5t-35.5 56.5q32 0 58.5 -0.5t43.5 -0.5t41.5 0.5t55 2t53.5 3.5h6q21 2 58 7t72 21t61 48t26 87q0 34 -18 68.5t-50.5 62.5t-76 44.5t-93.5 16.5h-11q-67 -2 -123.5 -25.5t-99 -61.5t-68.5 -86
t-32 -98q-14 1 -24 1h-14q20 37 20 76q0 40 -20 76.5t-58 62.5q-78 55 -207 55q-96 0 -170 -44.5t-126 -131.5v161h-94v-556zM2178 984q1 13 1 25q0 56 -21.5 104t-63 85t-98.5 60.5t-119.5 36.5t-126.5 18t-122 5q-62 0 -110 -3.5t-74 -6.5v-95q28 3 78 7t99 4l-214 -475
h109l214 473q93 -2 158.5 -20t106.5 -46.5t60 -64.5t20 -57t1 -25q0 -32 -13 -65t-38.5 -60.5t-60 -44.5t-73.5 -17q-22 0 -52 7t-58.5 22t-51.5 39.5t-32 60.5l-85 -22q12 -49 39.5 -85.5t65 -60.5t81.5 -36t89 -12q53 0 103.5 15.5t91 47t66.5 78t30 108.5zM1233 1053
q-23 -2 -53.5 -3t-64 -1.5t-69 -0.5h-67.5q8 41 31 74.5t56 57.5t73 37.5t80 13.5q37 0 71 -12.5t61 -38.5q24 -24 24 -52q0 -18 -7 -30.5t-23 -21.5t-42.5 -14.5t-64.5 -8.5h-5zM1898 151q66 0 116 13t83.5 35.5t51 52t17.5 63.5q0 46 -32 74t-80.5 46t-105 29t-105 24
t-80.5 30.5t-32 47.5q0 14 9 28.5t29 26.5t51.5 19.5t75.5 7.5q48 0 101.5 -14.5t100.5 -54.5l37 83q-21 15 -48.5 27.5t-59 21.5t-64.5 14t-66 5q-69 0 -117.5 -13t-79 -35t-44.5 -52t-14 -64q0 -3 0.5 -6t0.5 -7q-34 55 -93.5 89.5t-130.5 53.5t-146.5 26t-142.5 7
q-62 0 -110 -3.5t-74 -6.5v-95q14 2 34 3.5t43.5 3.5t49 3t49.5 1l-214 -475h110l213 474q125 -3 199.5 -33.5t110 -75t36 -71t0.5 -28.5q0 -49 -23 -91.5t-66 -71.5t-96 -29q-22 0 -52 7t-58.5 22t-51.5 39.5t-32 59.5l-85 -21q12 -49 39.5 -85.5t65 -61t81.5 -36.5t90 -12
q53 0 103.5 16t91 47t66.5 78t30 108q1 10 1 20q0 36 -9 69q25 -28 64 -46.5t84 -31t90.5 -21.5t82.5 -19t60 -24t23 -36q0 -18 -14 -31.5t-38 -22.5t-55 -13.5t-65 -4.5q-59 0 -118 17t-102 56l-36 -81q46 -32 112 -53.5t138 -21.5zM908 717h-250v-557h250v92h-153v141h126
v91h-126v141h153v92zM649 160q-8 90 -31 162q-10 31 -24.5 61t-34 54t-45 39.5t-58.5 18.5l149 222h-114l-188 -288q-2 -2 -2.5 -3.5t-1.5 -1.5v293h-101v-557h95q2 71 17 127q6 24 15 46.5t22.5 40t31.5 28.5t42 11q21 0 37.5 -11t29.5 -28.5t22 -40t16 -46.5
q15 -56 21 -127h102z" />
    <glyph glyph-name="guillemotleft" unicode="&#xab;" horiz-adv-x="898" 
d="M523 1167l-260 -451l260 -462h-171l-253 462l253 451h171zM839 1167l-259 -451l259 -462h-171l-253 462l253 451h171z" />
    <glyph glyph-name="logicalnot" unicode="&#xac;" 
d="M2317 1466v-1466h-2280v1466h2280zM198 749h94v95q6 64 24 132.5t53 125.5t88.5 93.5t130.5 36.5q63 0 100.5 -12.5t56.5 -26.5q41 -28 41 -67q0 -18 -10.5 -35.5t-31.5 -31.5t-51.5 -22.5t-71.5 -8.5q-101 0 -172 46l-92 -69q1 -2 1 -3t1 -2q18 -37 48.5 -83t73 -86.5
t99 -68t127.5 -27.5q39 0 83 15.5t84 42.5l-50 72q-28 -19 -60 -30.5t-57 -11.5q-38 0 -71 12t-60.5 31.5t-50.5 44t-41 50.5q63 -20 137 -20q88 0 145 29.5t84 74.5l-2 -83q2 0 15 -0.5t33 -0.5q2 -8 10 -28t23 -45t38.5 -52t57 -49.5t77.5 -37t100 -14.5q67 0 133 30
t121 99l-65 60q-42 -54 -91 -77.5t-98 -23.5q-33 0 -66 9.5t-61.5 27.5t-51 43.5t-35.5 56.5q32 0 58.5 -0.5t43.5 -0.5t41.5 0.5t55 2t53.5 3.5h6q21 2 58 7t72 21t61 48t26 87q0 34 -18 68.5t-50.5 62.5t-76 44.5t-93.5 16.5h-11q-67 -2 -123.5 -25.5t-99 -61.5t-68.5 -86
t-32 -98q-14 1 -24 1h-14q20 37 20 76q0 40 -20 76.5t-58 62.5q-78 55 -207 55q-96 0 -170 -44.5t-126 -131.5v161h-94v-556zM2178 984q1 13 1 25q0 56 -21.5 104t-63 85t-98.5 60.5t-119.5 36.5t-126.5 18t-122 5q-62 0 -110 -3.5t-74 -6.5v-95q28 3 78 7t99 4l-214 -475
h109l214 473q93 -2 158.5 -20t106.5 -46.5t60 -64.5t20 -57t1 -25q0 -32 -13 -65t-38.5 -60.5t-60 -44.5t-73.5 -17q-22 0 -52 7t-58.5 22t-51.5 39.5t-32 60.5l-85 -22q12 -49 39.5 -85.5t65 -60.5t81.5 -36t89 -12q53 0 103.5 15.5t91 47t66.5 78t30 108.5zM1233 1053
q-23 -2 -53.5 -3t-64 -1.5t-69 -0.5h-67.5q8 41 31 74.5t56 57.5t73 37.5t80 13.5q37 0 71 -12.5t61 -38.5q24 -24 24 -52q0 -18 -7 -30.5t-23 -21.5t-42.5 -14.5t-64.5 -8.5h-5zM1898 151q66 0 116 13t83.5 35.5t51 52t17.5 63.5q0 46 -32 74t-80.5 46t-105 29t-105 24
t-80.5 30.5t-32 47.5q0 14 9 28.5t29 26.5t51.5 19.5t75.5 7.5q48 0 101.5 -14.5t100.5 -54.5l37 83q-21 15 -48.5 27.5t-59 21.5t-64.5 14t-66 5q-69 0 -117.5 -13t-79 -35t-44.5 -52t-14 -64q0 -3 0.5 -6t0.5 -7q-34 55 -93.5 89.5t-130.5 53.5t-146.5 26t-142.5 7
q-62 0 -110 -3.5t-74 -6.5v-95q14 2 34 3.5t43.5 3.5t49 3t49.5 1l-214 -475h110l213 474q125 -3 199.5 -33.5t110 -75t36 -71t0.5 -28.5q0 -49 -23 -91.5t-66 -71.5t-96 -29q-22 0 -52 7t-58.5 22t-51.5 39.5t-32 59.5l-85 -21q12 -49 39.5 -85.5t65 -61t81.5 -36.5t90 -12
q53 0 103.5 16t91 47t66.5 78t30 108q1 10 1 20q0 36 -9 69q25 -28 64 -46.5t84 -31t90.5 -21.5t82.5 -19t60 -24t23 -36q0 -18 -14 -31.5t-38 -22.5t-55 -13.5t-65 -4.5q-59 0 -118 17t-102 56l-36 -81q46 -32 112 -53.5t138 -21.5zM908 717h-250v-557h250v92h-153v141h126
v91h-126v141h153v92zM649 160q-8 90 -31 162q-10 31 -24.5 61t-34 54t-45 39.5t-58.5 18.5l149 222h-114l-188 -288q-2 -2 -2.5 -3.5t-1.5 -1.5v293h-101v-557h95q2 71 17 127q6 24 15 46.5t22.5 40t31.5 28.5t42 11q21 0 37.5 -11t29.5 -28.5t22 -40t16 -46.5
q15 -56 21 -127h102z" />
    <glyph glyph-name="registered" unicode="&#xae;" horiz-adv-x="2358" 
d="M2317 1466v-1466h-2280v1466h2280zM198 749h94v95q6 64 24 132.5t53 125.5t88.5 93.5t130.5 36.5q63 0 100.5 -12.5t56.5 -26.5q41 -28 41 -67q0 -18 -10.5 -35.5t-31.5 -31.5t-51.5 -22.5t-71.5 -8.5q-101 0 -172 46l-92 -69q1 -2 1 -3t1 -2q18 -37 48.5 -83t73 -86.5
t99 -68t127.5 -27.5q39 0 83 15.5t84 42.5l-50 72q-28 -19 -60 -30.5t-57 -11.5q-38 0 -71 12t-60.5 31.5t-50.5 44t-41 50.5q63 -20 137 -20q88 0 145 29.5t84 74.5l-2 -83q2 0 15 -0.5t33 -0.5q2 -8 10 -28t23 -45t38.5 -52t57 -49.5t77.5 -37t100 -14.5q67 0 133 30
t121 99l-65 60q-42 -54 -91 -77.5t-98 -23.5q-33 0 -66 9.5t-61.5 27.5t-51 43.5t-35.5 56.5q32 0 58.5 -0.5t43.5 -0.5t41.5 0.5t55 2t53.5 3.5h6q21 2 58 7t72 21t61 48t26 87q0 34 -18 68.5t-50.5 62.5t-76 44.5t-93.5 16.5h-11q-67 -2 -123.5 -25.5t-99 -61.5t-68.5 -86
t-32 -98q-14 1 -24 1h-14q20 37 20 76q0 40 -20 76.5t-58 62.5q-78 55 -207 55q-96 0 -170 -44.5t-126 -131.5v161h-94v-556zM2178 984q1 13 1 25q0 56 -21.5 104t-63 85t-98.5 60.5t-119.5 36.5t-126.5 18t-122 5q-62 0 -110 -3.5t-74 -6.5v-95q28 3 78 7t99 4l-214 -475
h109l214 473q93 -2 158.5 -20t106.5 -46.5t60 -64.5t20 -57t1 -25q0 -32 -13 -65t-38.5 -60.5t-60 -44.5t-73.5 -17q-22 0 -52 7t-58.5 22t-51.5 39.5t-32 60.5l-85 -22q12 -49 39.5 -85.5t65 -60.5t81.5 -36t89 -12q53 0 103.5 15.5t91 47t66.5 78t30 108.5zM1233 1053
q-23 -2 -53.5 -3t-64 -1.5t-69 -0.5h-67.5q8 41 31 74.5t56 57.5t73 37.5t80 13.5q37 0 71 -12.5t61 -38.5q24 -24 24 -52q0 -18 -7 -30.5t-23 -21.5t-42.5 -14.5t-64.5 -8.5h-5zM1898 151q66 0 116 13t83.5 35.5t51 52t17.5 63.5q0 46 -32 74t-80.5 46t-105 29t-105 24
t-80.5 30.5t-32 47.5q0 14 9 28.5t29 26.5t51.5 19.5t75.5 7.5q48 0 101.5 -14.5t100.5 -54.5l37 83q-21 15 -48.5 27.5t-59 21.5t-64.5 14t-66 5q-69 0 -117.5 -13t-79 -35t-44.5 -52t-14 -64q0 -3 0.5 -6t0.5 -7q-34 55 -93.5 89.5t-130.5 53.5t-146.5 26t-142.5 7
q-62 0 -110 -3.5t-74 -6.5v-95q14 2 34 3.5t43.5 3.5t49 3t49.5 1l-214 -475h110l213 474q125 -3 199.5 -33.5t110 -75t36 -71t0.5 -28.5q0 -49 -23 -91.5t-66 -71.5t-96 -29q-22 0 -52 7t-58.5 22t-51.5 39.5t-32 59.5l-85 -21q12 -49 39.5 -85.5t65 -61t81.5 -36.5t90 -12
q53 0 103.5 16t91 47t66.5 78t30 108q1 10 1 20q0 36 -9 69q25 -28 64 -46.5t84 -31t90.5 -21.5t82.5 -19t60 -24t23 -36q0 -18 -14 -31.5t-38 -22.5t-55 -13.5t-65 -4.5q-59 0 -118 17t-102 56l-36 -81q46 -32 112 -53.5t138 -21.5zM908 717h-250v-557h250v92h-153v141h126
v91h-126v141h153v92zM649 160q-8 90 -31 162q-10 31 -24.5 61t-34 54t-45 39.5t-58.5 18.5l149 222h-114l-188 -288q-2 -2 -2.5 -3.5t-1.5 -1.5v293h-101v-557h95q2 71 17 127q6 24 15 46.5t22.5 40t31.5 28.5t42 11q21 0 37.5 -11t29.5 -28.5t22 -40t16 -46.5
q15 -56 21 -127h102z" />
    <glyph glyph-name="macron" unicode="&#xaf;" 
d="M2317 1466v-1466h-2280v1466h2280zM198 749h94v95q6 64 24 132.5t53 125.5t88.5 93.5t130.5 36.5q63 0 100.5 -12.5t56.5 -26.5q41 -28 41 -67q0 -18 -10.5 -35.5t-31.5 -31.5t-51.5 -22.5t-71.5 -8.5q-101 0 -172 46l-92 -69q1 -2 1 -3t1 -2q18 -37 48.5 -83t73 -86.5
t99 -68t127.5 -27.5q39 0 83 15.5t84 42.5l-50 72q-28 -19 -60 -30.5t-57 -11.5q-38 0 -71 12t-60.5 31.5t-50.5 44t-41 50.5q63 -20 137 -20q88 0 145 29.5t84 74.5l-2 -83q2 0 15 -0.5t33 -0.5q2 -8 10 -28t23 -45t38.5 -52t57 -49.5t77.5 -37t100 -14.5q67 0 133 30
t121 99l-65 60q-42 -54 -91 -77.5t-98 -23.5q-33 0 -66 9.5t-61.5 27.5t-51 43.5t-35.5 56.5q32 0 58.5 -0.5t43.5 -0.5t41.5 0.5t55 2t53.5 3.5h6q21 2 58 7t72 21t61 48t26 87q0 34 -18 68.5t-50.5 62.5t-76 44.5t-93.5 16.5h-11q-67 -2 -123.5 -25.5t-99 -61.5t-68.5 -86
t-32 -98q-14 1 -24 1h-14q20 37 20 76q0 40 -20 76.5t-58 62.5q-78 55 -207 55q-96 0 -170 -44.5t-126 -131.5v161h-94v-556zM2178 984q1 13 1 25q0 56 -21.5 104t-63 85t-98.5 60.5t-119.5 36.5t-126.5 18t-122 5q-62 0 -110 -3.5t-74 -6.5v-95q28 3 78 7t99 4l-214 -475
h109l214 473q93 -2 158.5 -20t106.5 -46.5t60 -64.5t20 -57t1 -25q0 -32 -13 -65t-38.5 -60.5t-60 -44.5t-73.5 -17q-22 0 -52 7t-58.5 22t-51.5 39.5t-32 60.5l-85 -22q12 -49 39.5 -85.5t65 -60.5t81.5 -36t89 -12q53 0 103.5 15.5t91 47t66.5 78t30 108.5zM1233 1053
q-23 -2 -53.5 -3t-64 -1.5t-69 -0.5h-67.5q8 41 31 74.5t56 57.5t73 37.5t80 13.5q37 0 71 -12.5t61 -38.5q24 -24 24 -52q0 -18 -7 -30.5t-23 -21.5t-42.5 -14.5t-64.5 -8.5h-5zM1898 151q66 0 116 13t83.5 35.5t51 52t17.5 63.5q0 46 -32 74t-80.5 46t-105 29t-105 24
t-80.5 30.5t-32 47.5q0 14 9 28.5t29 26.5t51.5 19.5t75.5 7.5q48 0 101.5 -14.5t100.5 -54.5l37 83q-21 15 -48.5 27.5t-59 21.5t-64.5 14t-66 5q-69 0 -117.5 -13t-79 -35t-44.5 -52t-14 -64q0 -3 0.5 -6t0.5 -7q-34 55 -93.5 89.5t-130.5 53.5t-146.5 26t-142.5 7
q-62 0 -110 -3.5t-74 -6.5v-95q14 2 34 3.5t43.5 3.5t49 3t49.5 1l-214 -475h110l213 474q125 -3 199.5 -33.5t110 -75t36 -71t0.5 -28.5q0 -49 -23 -91.5t-66 -71.5t-96 -29q-22 0 -52 7t-58.5 22t-51.5 39.5t-32 59.5l-85 -21q12 -49 39.5 -85.5t65 -61t81.5 -36.5t90 -12
q53 0 103.5 16t91 47t66.5 78t30 108q1 10 1 20q0 36 -9 69q25 -28 64 -46.5t84 -31t90.5 -21.5t82.5 -19t60 -24t23 -36q0 -18 -14 -31.5t-38 -22.5t-55 -13.5t-65 -4.5q-59 0 -118 17t-102 56l-36 -81q46 -32 112 -53.5t138 -21.5zM908 717h-250v-557h250v92h-153v141h126
v91h-126v141h153v92zM649 160q-8 90 -31 162q-10 31 -24.5 61t-34 54t-45 39.5t-58.5 18.5l149 222h-114l-188 -288q-2 -2 -2.5 -3.5t-1.5 -1.5v293h-101v-557h95q2 71 17 127q6 24 15 46.5t22.5 40t31.5 28.5t42 11q21 0 37.5 -11t29.5 -28.5t22 -40t16 -46.5
q15 -56 21 -127h102z" />
    <glyph glyph-name="degree" unicode="&#xb0;" horiz-adv-x="2349" 
d="M2317 1466v-1466h-2280v1466h2280zM198 749h94v95q6 64 24 132.5t53 125.5t88.5 93.5t130.5 36.5q63 0 100.5 -12.5t56.5 -26.5q41 -28 41 -67q0 -18 -10.5 -35.5t-31.5 -31.5t-51.5 -22.5t-71.5 -8.5q-101 0 -172 46l-92 -69q1 -2 1 -3t1 -2q18 -37 48.5 -83t73 -86.5
t99 -68t127.5 -27.5q39 0 83 15.5t84 42.5l-50 72q-28 -19 -60 -30.5t-57 -11.5q-38 0 -71 12t-60.5 31.5t-50.5 44t-41 50.5q63 -20 137 -20q88 0 145 29.5t84 74.5l-2 -83q2 0 15 -0.5t33 -0.5q2 -8 10 -28t23 -45t38.5 -52t57 -49.5t77.5 -37t100 -14.5q67 0 133 30
t121 99l-65 60q-42 -54 -91 -77.5t-98 -23.5q-33 0 -66 9.5t-61.5 27.5t-51 43.5t-35.5 56.5q32 0 58.5 -0.5t43.5 -0.5t41.5 0.5t55 2t53.5 3.5h6q21 2 58 7t72 21t61 48t26 87q0 34 -18 68.5t-50.5 62.5t-76 44.5t-93.5 16.5h-11q-67 -2 -123.5 -25.5t-99 -61.5t-68.5 -86
t-32 -98q-14 1 -24 1h-14q20 37 20 76q0 40 -20 76.5t-58 62.5q-78 55 -207 55q-96 0 -170 -44.5t-126 -131.5v161h-94v-556zM2178 984q1 13 1 25q0 56 -21.5 104t-63 85t-98.5 60.5t-119.5 36.5t-126.5 18t-122 5q-62 0 -110 -3.5t-74 -6.5v-95q28 3 78 7t99 4l-214 -475
h109l214 473q93 -2 158.5 -20t106.5 -46.5t60 -64.5t20 -57t1 -25q0 -32 -13 -65t-38.5 -60.5t-60 -44.5t-73.5 -17q-22 0 -52 7t-58.5 22t-51.5 39.5t-32 60.5l-85 -22q12 -49 39.5 -85.5t65 -60.5t81.5 -36t89 -12q53 0 103.5 15.5t91 47t66.5 78t30 108.5zM1233 1053
q-23 -2 -53.5 -3t-64 -1.5t-69 -0.5h-67.5q8 41 31 74.5t56 57.5t73 37.5t80 13.5q37 0 71 -12.5t61 -38.5q24 -24 24 -52q0 -18 -7 -30.5t-23 -21.5t-42.5 -14.5t-64.5 -8.5h-5zM1898 151q66 0 116 13t83.5 35.5t51 52t17.5 63.5q0 46 -32 74t-80.5 46t-105 29t-105 24
t-80.5 30.5t-32 47.5q0 14 9 28.5t29 26.5t51.5 19.5t75.5 7.5q48 0 101.5 -14.5t100.5 -54.5l37 83q-21 15 -48.5 27.5t-59 21.5t-64.5 14t-66 5q-69 0 -117.5 -13t-79 -35t-44.5 -52t-14 -64q0 -3 0.5 -6t0.5 -7q-34 55 -93.5 89.5t-130.5 53.5t-146.5 26t-142.5 7
q-62 0 -110 -3.5t-74 -6.5v-95q14 2 34 3.5t43.5 3.5t49 3t49.5 1l-214 -475h110l213 474q125 -3 199.5 -33.5t110 -75t36 -71t0.5 -28.5q0 -49 -23 -91.5t-66 -71.5t-96 -29q-22 0 -52 7t-58.5 22t-51.5 39.5t-32 59.5l-85 -21q12 -49 39.5 -85.5t65 -61t81.5 -36.5t90 -12
q53 0 103.5 16t91 47t66.5 78t30 108q1 10 1 20q0 36 -9 69q25 -28 64 -46.5t84 -31t90.5 -21.5t82.5 -19t60 -24t23 -36q0 -18 -14 -31.5t-38 -22.5t-55 -13.5t-65 -4.5q-59 0 -118 17t-102 56l-36 -81q46 -32 112 -53.5t138 -21.5zM908 717h-250v-557h250v92h-153v141h126
v91h-126v141h153v92zM649 160q-8 90 -31 162q-10 31 -24.5 61t-34 54t-45 39.5t-58.5 18.5l149 222h-114l-188 -288q-2 -2 -2.5 -3.5t-1.5 -1.5v293h-101v-557h95q2 71 17 127q6 24 15 46.5t22.5 40t31.5 28.5t42 11q21 0 37.5 -11t29.5 -28.5t22 -40t16 -46.5
q15 -56 21 -127h102z" />
    <glyph glyph-name="plusminus" unicode="&#xb1;" 
d="M2317 1466v-1466h-2280v1466h2280zM198 749h94v95q6 64 24 132.5t53 125.5t88.5 93.5t130.5 36.5q63 0 100.5 -12.5t56.5 -26.5q41 -28 41 -67q0 -18 -10.5 -35.5t-31.5 -31.5t-51.5 -22.5t-71.5 -8.5q-101 0 -172 46l-92 -69q1 -2 1 -3t1 -2q18 -37 48.5 -83t73 -86.5
t99 -68t127.5 -27.5q39 0 83 15.5t84 42.5l-50 72q-28 -19 -60 -30.5t-57 -11.5q-38 0 -71 12t-60.5 31.5t-50.5 44t-41 50.5q63 -20 137 -20q88 0 145 29.5t84 74.5l-2 -83q2 0 15 -0.5t33 -0.5q2 -8 10 -28t23 -45t38.5 -52t57 -49.5t77.5 -37t100 -14.5q67 0 133 30
t121 99l-65 60q-42 -54 -91 -77.5t-98 -23.5q-33 0 -66 9.5t-61.5 27.5t-51 43.5t-35.5 56.5q32 0 58.5 -0.5t43.5 -0.5t41.5 0.5t55 2t53.5 3.5h6q21 2 58 7t72 21t61 48t26 87q0 34 -18 68.5t-50.5 62.5t-76 44.5t-93.5 16.5h-11q-67 -2 -123.5 -25.5t-99 -61.5t-68.5 -86
t-32 -98q-14 1 -24 1h-14q20 37 20 76q0 40 -20 76.5t-58 62.5q-78 55 -207 55q-96 0 -170 -44.5t-126 -131.5v161h-94v-556zM2178 984q1 13 1 25q0 56 -21.5 104t-63 85t-98.5 60.5t-119.5 36.5t-126.5 18t-122 5q-62 0 -110 -3.5t-74 -6.5v-95q28 3 78 7t99 4l-214 -475
h109l214 473q93 -2 158.5 -20t106.5 -46.5t60 -64.5t20 -57t1 -25q0 -32 -13 -65t-38.5 -60.5t-60 -44.5t-73.5 -17q-22 0 -52 7t-58.5 22t-51.5 39.5t-32 60.5l-85 -22q12 -49 39.5 -85.5t65 -60.5t81.5 -36t89 -12q53 0 103.5 15.5t91 47t66.5 78t30 108.5zM1233 1053
q-23 -2 -53.5 -3t-64 -1.5t-69 -0.5h-67.5q8 41 31 74.5t56 57.5t73 37.5t80 13.5q37 0 71 -12.5t61 -38.5q24 -24 24 -52q0 -18 -7 -30.5t-23 -21.5t-42.5 -14.5t-64.5 -8.5h-5zM1898 151q66 0 116 13t83.5 35.5t51 52t17.5 63.5q0 46 -32 74t-80.5 46t-105 29t-105 24
t-80.5 30.5t-32 47.5q0 14 9 28.5t29 26.5t51.5 19.5t75.5 7.5q48 0 101.5 -14.5t100.5 -54.5l37 83q-21 15 -48.5 27.5t-59 21.5t-64.5 14t-66 5q-69 0 -117.5 -13t-79 -35t-44.5 -52t-14 -64q0 -3 0.5 -6t0.5 -7q-34 55 -93.5 89.5t-130.5 53.5t-146.5 26t-142.5 7
q-62 0 -110 -3.5t-74 -6.5v-95q14 2 34 3.5t43.5 3.5t49 3t49.5 1l-214 -475h110l213 474q125 -3 199.5 -33.5t110 -75t36 -71t0.5 -28.5q0 -49 -23 -91.5t-66 -71.5t-96 -29q-22 0 -52 7t-58.5 22t-51.5 39.5t-32 59.5l-85 -21q12 -49 39.5 -85.5t65 -61t81.5 -36.5t90 -12
q53 0 103.5 16t91 47t66.5 78t30 108q1 10 1 20q0 36 -9 69q25 -28 64 -46.5t84 -31t90.5 -21.5t82.5 -19t60 -24t23 -36q0 -18 -14 -31.5t-38 -22.5t-55 -13.5t-65 -4.5q-59 0 -118 17t-102 56l-36 -81q46 -32 112 -53.5t138 -21.5zM908 717h-250v-557h250v92h-153v141h126
v91h-126v141h153v92zM649 160q-8 90 -31 162q-10 31 -24.5 61t-34 54t-45 39.5t-58.5 18.5l149 222h-114l-188 -288q-2 -2 -2.5 -3.5t-1.5 -1.5v293h-101v-557h95q2 71 17 127q6 24 15 46.5t22.5 40t31.5 28.5t42 11q21 0 37.5 -11t29.5 -28.5t22 -40t16 -46.5
q15 -56 21 -127h102z" />
    <glyph glyph-name="twosuperior" unicode="&#xb2;" 
d="M2317 1466v-1466h-2280v1466h2280zM198 749h94v95q6 64 24 132.5t53 125.5t88.5 93.5t130.5 36.5q63 0 100.5 -12.5t56.5 -26.5q41 -28 41 -67q0 -18 -10.5 -35.5t-31.5 -31.5t-51.5 -22.5t-71.5 -8.5q-101 0 -172 46l-92 -69q1 -2 1 -3t1 -2q18 -37 48.5 -83t73 -86.5
t99 -68t127.5 -27.5q39 0 83 15.5t84 42.5l-50 72q-28 -19 -60 -30.5t-57 -11.5q-38 0 -71 12t-60.5 31.5t-50.5 44t-41 50.5q63 -20 137 -20q88 0 145 29.5t84 74.5l-2 -83q2 0 15 -0.5t33 -0.5q2 -8 10 -28t23 -45t38.5 -52t57 -49.5t77.5 -37t100 -14.5q67 0 133 30
t121 99l-65 60q-42 -54 -91 -77.5t-98 -23.5q-33 0 -66 9.5t-61.5 27.5t-51 43.5t-35.5 56.5q32 0 58.5 -0.5t43.5 -0.5t41.5 0.5t55 2t53.5 3.5h6q21 2 58 7t72 21t61 48t26 87q0 34 -18 68.5t-50.5 62.5t-76 44.5t-93.5 16.5h-11q-67 -2 -123.5 -25.5t-99 -61.5t-68.5 -86
t-32 -98q-14 1 -24 1h-14q20 37 20 76q0 40 -20 76.5t-58 62.5q-78 55 -207 55q-96 0 -170 -44.5t-126 -131.5v161h-94v-556zM2178 984q1 13 1 25q0 56 -21.5 104t-63 85t-98.5 60.5t-119.5 36.5t-126.5 18t-122 5q-62 0 -110 -3.5t-74 -6.5v-95q28 3 78 7t99 4l-214 -475
h109l214 473q93 -2 158.5 -20t106.5 -46.5t60 -64.5t20 -57t1 -25q0 -32 -13 -65t-38.5 -60.5t-60 -44.5t-73.5 -17q-22 0 -52 7t-58.5 22t-51.5 39.5t-32 60.5l-85 -22q12 -49 39.5 -85.5t65 -60.5t81.5 -36t89 -12q53 0 103.5 15.5t91 47t66.5 78t30 108.5zM1233 1053
q-23 -2 -53.5 -3t-64 -1.5t-69 -0.5h-67.5q8 41 31 74.5t56 57.5t73 37.5t80 13.5q37 0 71 -12.5t61 -38.5q24 -24 24 -52q0 -18 -7 -30.5t-23 -21.5t-42.5 -14.5t-64.5 -8.5h-5zM1898 151q66 0 116 13t83.5 35.5t51 52t17.5 63.5q0 46 -32 74t-80.5 46t-105 29t-105 24
t-80.5 30.5t-32 47.5q0 14 9 28.5t29 26.5t51.5 19.5t75.5 7.5q48 0 101.5 -14.5t100.5 -54.5l37 83q-21 15 -48.5 27.5t-59 21.5t-64.5 14t-66 5q-69 0 -117.5 -13t-79 -35t-44.5 -52t-14 -64q0 -3 0.5 -6t0.5 -7q-34 55 -93.5 89.5t-130.5 53.5t-146.5 26t-142.5 7
q-62 0 -110 -3.5t-74 -6.5v-95q14 2 34 3.5t43.5 3.5t49 3t49.5 1l-214 -475h110l213 474q125 -3 199.5 -33.5t110 -75t36 -71t0.5 -28.5q0 -49 -23 -91.5t-66 -71.5t-96 -29q-22 0 -52 7t-58.5 22t-51.5 39.5t-32 59.5l-85 -21q12 -49 39.5 -85.5t65 -61t81.5 -36.5t90 -12
q53 0 103.5 16t91 47t66.5 78t30 108q1 10 1 20q0 36 -9 69q25 -28 64 -46.5t84 -31t90.5 -21.5t82.5 -19t60 -24t23 -36q0 -18 -14 -31.5t-38 -22.5t-55 -13.5t-65 -4.5q-59 0 -118 17t-102 56l-36 -81q46 -32 112 -53.5t138 -21.5zM908 717h-250v-557h250v92h-153v141h126
v91h-126v141h153v92zM649 160q-8 90 -31 162q-10 31 -24.5 61t-34 54t-45 39.5t-58.5 18.5l149 222h-114l-188 -288q-2 -2 -2.5 -3.5t-1.5 -1.5v293h-101v-557h95q2 71 17 127q6 24 15 46.5t22.5 40t31.5 28.5t42 11q21 0 37.5 -11t29.5 -28.5t22 -40t16 -46.5
q15 -56 21 -127h102z" />
    <glyph glyph-name="threesuperior" unicode="&#xb3;" 
d="M2317 1466v-1466h-2280v1466h2280zM198 749h94v95q6 64 24 132.5t53 125.5t88.5 93.5t130.5 36.5q63 0 100.5 -12.5t56.5 -26.5q41 -28 41 -67q0 -18 -10.5 -35.5t-31.5 -31.5t-51.5 -22.5t-71.5 -8.5q-101 0 -172 46l-92 -69q1 -2 1 -3t1 -2q18 -37 48.5 -83t73 -86.5
t99 -68t127.5 -27.5q39 0 83 15.5t84 42.5l-50 72q-28 -19 -60 -30.5t-57 -11.5q-38 0 -71 12t-60.5 31.5t-50.5 44t-41 50.5q63 -20 137 -20q88 0 145 29.5t84 74.5l-2 -83q2 0 15 -0.5t33 -0.5q2 -8 10 -28t23 -45t38.5 -52t57 -49.5t77.5 -37t100 -14.5q67 0 133 30
t121 99l-65 60q-42 -54 -91 -77.5t-98 -23.5q-33 0 -66 9.5t-61.5 27.5t-51 43.5t-35.5 56.5q32 0 58.5 -0.5t43.5 -0.5t41.5 0.5t55 2t53.5 3.5h6q21 2 58 7t72 21t61 48t26 87q0 34 -18 68.5t-50.5 62.5t-76 44.5t-93.5 16.5h-11q-67 -2 -123.5 -25.5t-99 -61.5t-68.5 -86
t-32 -98q-14 1 -24 1h-14q20 37 20 76q0 40 -20 76.5t-58 62.5q-78 55 -207 55q-96 0 -170 -44.5t-126 -131.5v161h-94v-556zM2178 984q1 13 1 25q0 56 -21.5 104t-63 85t-98.5 60.5t-119.5 36.5t-126.5 18t-122 5q-62 0 -110 -3.5t-74 -6.5v-95q28 3 78 7t99 4l-214 -475
h109l214 473q93 -2 158.5 -20t106.5 -46.5t60 -64.5t20 -57t1 -25q0 -32 -13 -65t-38.5 -60.5t-60 -44.5t-73.5 -17q-22 0 -52 7t-58.5 22t-51.5 39.5t-32 60.5l-85 -22q12 -49 39.5 -85.5t65 -60.5t81.5 -36t89 -12q53 0 103.5 15.5t91 47t66.5 78t30 108.5zM1233 1053
q-23 -2 -53.5 -3t-64 -1.5t-69 -0.5h-67.5q8 41 31 74.5t56 57.5t73 37.5t80 13.5q37 0 71 -12.5t61 -38.5q24 -24 24 -52q0 -18 -7 -30.5t-23 -21.5t-42.5 -14.5t-64.5 -8.5h-5zM1898 151q66 0 116 13t83.5 35.5t51 52t17.5 63.5q0 46 -32 74t-80.5 46t-105 29t-105 24
t-80.5 30.5t-32 47.5q0 14 9 28.5t29 26.5t51.5 19.5t75.5 7.5q48 0 101.5 -14.5t100.5 -54.5l37 83q-21 15 -48.5 27.5t-59 21.5t-64.5 14t-66 5q-69 0 -117.5 -13t-79 -35t-44.5 -52t-14 -64q0 -3 0.5 -6t0.5 -7q-34 55 -93.5 89.5t-130.5 53.5t-146.5 26t-142.5 7
q-62 0 -110 -3.5t-74 -6.5v-95q14 2 34 3.5t43.5 3.5t49 3t49.5 1l-214 -475h110l213 474q125 -3 199.5 -33.5t110 -75t36 -71t0.5 -28.5q0 -49 -23 -91.5t-66 -71.5t-96 -29q-22 0 -52 7t-58.5 22t-51.5 39.5t-32 59.5l-85 -21q12 -49 39.5 -85.5t65 -61t81.5 -36.5t90 -12
q53 0 103.5 16t91 47t66.5 78t30 108q1 10 1 20q0 36 -9 69q25 -28 64 -46.5t84 -31t90.5 -21.5t82.5 -19t60 -24t23 -36q0 -18 -14 -31.5t-38 -22.5t-55 -13.5t-65 -4.5q-59 0 -118 17t-102 56l-36 -81q46 -32 112 -53.5t138 -21.5zM908 717h-250v-557h250v92h-153v141h126
v91h-126v141h153v92zM649 160q-8 90 -31 162q-10 31 -24.5 61t-34 54t-45 39.5t-58.5 18.5l149 222h-114l-188 -288q-2 -2 -2.5 -3.5t-1.5 -1.5v293h-101v-557h95q2 71 17 127q6 24 15 46.5t22.5 40t31.5 28.5t42 11q21 0 37.5 -11t29.5 -28.5t22 -40t16 -46.5
q15 -56 21 -127h102z" />
    <glyph glyph-name="acute" unicode="&#xb4;" horiz-adv-x="583" 
d="M88 1192l261 299h192l-275 -299h-178z" />
    <glyph glyph-name="paragraph" unicode="&#xb6;" horiz-adv-x="2356" 
d="M2317 1466v-1466h-2280v1466h2280zM198 749h94v95q6 64 24 132.5t53 125.5t88.5 93.5t130.5 36.5q63 0 100.5 -12.5t56.5 -26.5q41 -28 41 -67q0 -18 -10.5 -35.5t-31.5 -31.5t-51.5 -22.5t-71.5 -8.5q-101 0 -172 46l-92 -69q1 -2 1 -3t1 -2q18 -37 48.5 -83t73 -86.5
t99 -68t127.5 -27.5q39 0 83 15.5t84 42.5l-50 72q-28 -19 -60 -30.5t-57 -11.5q-38 0 -71 12t-60.5 31.5t-50.5 44t-41 50.5q63 -20 137 -20q88 0 145 29.5t84 74.5l-2 -83q2 0 15 -0.5t33 -0.5q2 -8 10 -28t23 -45t38.5 -52t57 -49.5t77.5 -37t100 -14.5q67 0 133 30
t121 99l-65 60q-42 -54 -91 -77.5t-98 -23.5q-33 0 -66 9.5t-61.5 27.5t-51 43.5t-35.5 56.5q32 0 58.5 -0.5t43.5 -0.5t41.5 0.5t55 2t53.5 3.5h6q21 2 58 7t72 21t61 48t26 87q0 34 -18 68.5t-50.5 62.5t-76 44.5t-93.5 16.5h-11q-67 -2 -123.5 -25.5t-99 -61.5t-68.5 -86
t-32 -98q-14 1 -24 1h-14q20 37 20 76q0 40 -20 76.5t-58 62.5q-78 55 -207 55q-96 0 -170 -44.5t-126 -131.5v161h-94v-556zM2178 984q1 13 1 25q0 56 -21.5 104t-63 85t-98.5 60.5t-119.5 36.5t-126.5 18t-122 5q-62 0 -110 -3.5t-74 -6.5v-95q28 3 78 7t99 4l-214 -475
h109l214 473q93 -2 158.5 -20t106.5 -46.5t60 -64.5t20 -57t1 -25q0 -32 -13 -65t-38.5 -60.5t-60 -44.5t-73.5 -17q-22 0 -52 7t-58.5 22t-51.5 39.5t-32 60.5l-85 -22q12 -49 39.5 -85.5t65 -60.5t81.5 -36t89 -12q53 0 103.5 15.5t91 47t66.5 78t30 108.5zM1233 1053
q-23 -2 -53.5 -3t-64 -1.5t-69 -0.5h-67.5q8 41 31 74.5t56 57.5t73 37.5t80 13.5q37 0 71 -12.5t61 -38.5q24 -24 24 -52q0 -18 -7 -30.5t-23 -21.5t-42.5 -14.5t-64.5 -8.5h-5zM1898 151q66 0 116 13t83.5 35.5t51 52t17.5 63.5q0 46 -32 74t-80.5 46t-105 29t-105 24
t-80.5 30.5t-32 47.5q0 14 9 28.5t29 26.5t51.5 19.5t75.5 7.5q48 0 101.5 -14.5t100.5 -54.5l37 83q-21 15 -48.5 27.5t-59 21.5t-64.5 14t-66 5q-69 0 -117.5 -13t-79 -35t-44.5 -52t-14 -64q0 -3 0.5 -6t0.5 -7q-34 55 -93.5 89.5t-130.5 53.5t-146.5 26t-142.5 7
q-62 0 -110 -3.5t-74 -6.5v-95q14 2 34 3.5t43.5 3.5t49 3t49.5 1l-214 -475h110l213 474q125 -3 199.5 -33.5t110 -75t36 -71t0.5 -28.5q0 -49 -23 -91.5t-66 -71.5t-96 -29q-22 0 -52 7t-58.5 22t-51.5 39.5t-32 59.5l-85 -21q12 -49 39.5 -85.5t65 -61t81.5 -36.5t90 -12
q53 0 103.5 16t91 47t66.5 78t30 108q1 10 1 20q0 36 -9 69q25 -28 64 -46.5t84 -31t90.5 -21.5t82.5 -19t60 -24t23 -36q0 -18 -14 -31.5t-38 -22.5t-55 -13.5t-65 -4.5q-59 0 -118 17t-102 56l-36 -81q46 -32 112 -53.5t138 -21.5zM908 717h-250v-557h250v92h-153v141h126
v91h-126v141h153v92zM649 160q-8 90 -31 162q-10 31 -24.5 61t-34 54t-45 39.5t-58.5 18.5l149 222h-114l-188 -288q-2 -2 -2.5 -3.5t-1.5 -1.5v293h-101v-557h95q2 71 17 127q6 24 15 46.5t22.5 40t31.5 28.5t42 11q21 0 37.5 -11t29.5 -28.5t22 -40t16 -46.5
q15 -56 21 -127h102z" />
    <glyph glyph-name="periodcentered" unicode="&#xb7;" 
d="M2317 1466v-1466h-2280v1466h2280zM198 749h94v95q6 64 24 132.5t53 125.5t88.5 93.5t130.5 36.5q63 0 100.5 -12.5t56.5 -26.5q41 -28 41 -67q0 -18 -10.5 -35.5t-31.5 -31.5t-51.5 -22.5t-71.5 -8.5q-101 0 -172 46l-92 -69q1 -2 1 -3t1 -2q18 -37 48.5 -83t73 -86.5
t99 -68t127.5 -27.5q39 0 83 15.5t84 42.5l-50 72q-28 -19 -60 -30.5t-57 -11.5q-38 0 -71 12t-60.5 31.5t-50.5 44t-41 50.5q63 -20 137 -20q88 0 145 29.5t84 74.5l-2 -83q2 0 15 -0.5t33 -0.5q2 -8 10 -28t23 -45t38.5 -52t57 -49.5t77.5 -37t100 -14.5q67 0 133 30
t121 99l-65 60q-42 -54 -91 -77.5t-98 -23.5q-33 0 -66 9.5t-61.5 27.5t-51 43.5t-35.5 56.5q32 0 58.5 -0.5t43.5 -0.5t41.5 0.5t55 2t53.5 3.5h6q21 2 58 7t72 21t61 48t26 87q0 34 -18 68.5t-50.5 62.5t-76 44.5t-93.5 16.5h-11q-67 -2 -123.5 -25.5t-99 -61.5t-68.5 -86
t-32 -98q-14 1 -24 1h-14q20 37 20 76q0 40 -20 76.5t-58 62.5q-78 55 -207 55q-96 0 -170 -44.5t-126 -131.5v161h-94v-556zM2178 984q1 13 1 25q0 56 -21.5 104t-63 85t-98.5 60.5t-119.5 36.5t-126.5 18t-122 5q-62 0 -110 -3.5t-74 -6.5v-95q28 3 78 7t99 4l-214 -475
h109l214 473q93 -2 158.5 -20t106.5 -46.5t60 -64.5t20 -57t1 -25q0 -32 -13 -65t-38.5 -60.5t-60 -44.5t-73.5 -17q-22 0 -52 7t-58.5 22t-51.5 39.5t-32 60.5l-85 -22q12 -49 39.5 -85.5t65 -60.5t81.5 -36t89 -12q53 0 103.5 15.5t91 47t66.5 78t30 108.5zM1233 1053
q-23 -2 -53.5 -3t-64 -1.5t-69 -0.5h-67.5q8 41 31 74.5t56 57.5t73 37.5t80 13.5q37 0 71 -12.5t61 -38.5q24 -24 24 -52q0 -18 -7 -30.5t-23 -21.5t-42.5 -14.5t-64.5 -8.5h-5zM1898 151q66 0 116 13t83.5 35.5t51 52t17.5 63.5q0 46 -32 74t-80.5 46t-105 29t-105 24
t-80.5 30.5t-32 47.5q0 14 9 28.5t29 26.5t51.5 19.5t75.5 7.5q48 0 101.5 -14.5t100.5 -54.5l37 83q-21 15 -48.5 27.5t-59 21.5t-64.5 14t-66 5q-69 0 -117.5 -13t-79 -35t-44.5 -52t-14 -64q0 -3 0.5 -6t0.5 -7q-34 55 -93.5 89.5t-130.5 53.5t-146.5 26t-142.5 7
q-62 0 -110 -3.5t-74 -6.5v-95q14 2 34 3.5t43.5 3.5t49 3t49.5 1l-214 -475h110l213 474q125 -3 199.5 -33.5t110 -75t36 -71t0.5 -28.5q0 -49 -23 -91.5t-66 -71.5t-96 -29q-22 0 -52 7t-58.5 22t-51.5 39.5t-32 59.5l-85 -21q12 -49 39.5 -85.5t65 -61t81.5 -36.5t90 -12
q53 0 103.5 16t91 47t66.5 78t30 108q1 10 1 20q0 36 -9 69q25 -28 64 -46.5t84 -31t90.5 -21.5t82.5 -19t60 -24t23 -36q0 -18 -14 -31.5t-38 -22.5t-55 -13.5t-65 -4.5q-59 0 -118 17t-102 56l-36 -81q46 -32 112 -53.5t138 -21.5zM908 717h-250v-557h250v92h-153v141h126
v91h-126v141h153v92zM649 160q-8 90 -31 162q-10 31 -24.5 61t-34 54t-45 39.5t-58.5 18.5l149 222h-114l-188 -288q-2 -2 -2.5 -3.5t-1.5 -1.5v293h-101v-557h95q2 71 17 127q6 24 15 46.5t22.5 40t31.5 28.5t42 11q21 0 37.5 -11t29.5 -28.5t22 -40t16 -46.5
q15 -56 21 -127h102z" />
    <glyph glyph-name="cedilla" unicode="&#xb8;" 
d="M2317 1466v-1466h-2280v1466h2280zM198 749h94v95q6 64 24 132.5t53 125.5t88.5 93.5t130.5 36.5q63 0 100.5 -12.5t56.5 -26.5q41 -28 41 -67q0 -18 -10.5 -35.5t-31.5 -31.5t-51.5 -22.5t-71.5 -8.5q-101 0 -172 46l-92 -69q1 -2 1 -3t1 -2q18 -37 48.5 -83t73 -86.5
t99 -68t127.5 -27.5q39 0 83 15.5t84 42.5l-50 72q-28 -19 -60 -30.5t-57 -11.5q-38 0 -71 12t-60.5 31.5t-50.5 44t-41 50.5q63 -20 137 -20q88 0 145 29.5t84 74.5l-2 -83q2 0 15 -0.5t33 -0.5q2 -8 10 -28t23 -45t38.5 -52t57 -49.5t77.5 -37t100 -14.5q67 0 133 30
t121 99l-65 60q-42 -54 -91 -77.5t-98 -23.5q-33 0 -66 9.5t-61.5 27.5t-51 43.5t-35.5 56.5q32 0 58.5 -0.5t43.5 -0.5t41.5 0.5t55 2t53.5 3.5h6q21 2 58 7t72 21t61 48t26 87q0 34 -18 68.5t-50.5 62.5t-76 44.5t-93.5 16.5h-11q-67 -2 -123.5 -25.5t-99 -61.5t-68.5 -86
t-32 -98q-14 1 -24 1h-14q20 37 20 76q0 40 -20 76.5t-58 62.5q-78 55 -207 55q-96 0 -170 -44.5t-126 -131.5v161h-94v-556zM2178 984q1 13 1 25q0 56 -21.5 104t-63 85t-98.5 60.5t-119.5 36.5t-126.5 18t-122 5q-62 0 -110 -3.5t-74 -6.5v-95q28 3 78 7t99 4l-214 -475
h109l214 473q93 -2 158.5 -20t106.5 -46.5t60 -64.5t20 -57t1 -25q0 -32 -13 -65t-38.5 -60.5t-60 -44.5t-73.5 -17q-22 0 -52 7t-58.5 22t-51.5 39.5t-32 60.5l-85 -22q12 -49 39.5 -85.5t65 -60.5t81.5 -36t89 -12q53 0 103.5 15.5t91 47t66.5 78t30 108.5zM1233 1053
q-23 -2 -53.5 -3t-64 -1.5t-69 -0.5h-67.5q8 41 31 74.5t56 57.5t73 37.5t80 13.5q37 0 71 -12.5t61 -38.5q24 -24 24 -52q0 -18 -7 -30.5t-23 -21.5t-42.5 -14.5t-64.5 -8.5h-5zM1898 151q66 0 116 13t83.5 35.5t51 52t17.5 63.5q0 46 -32 74t-80.5 46t-105 29t-105 24
t-80.5 30.5t-32 47.5q0 14 9 28.5t29 26.5t51.5 19.5t75.5 7.5q48 0 101.5 -14.5t100.5 -54.5l37 83q-21 15 -48.5 27.5t-59 21.5t-64.5 14t-66 5q-69 0 -117.5 -13t-79 -35t-44.5 -52t-14 -64q0 -3 0.5 -6t0.5 -7q-34 55 -93.5 89.5t-130.5 53.5t-146.5 26t-142.5 7
q-62 0 -110 -3.5t-74 -6.5v-95q14 2 34 3.5t43.5 3.5t49 3t49.5 1l-214 -475h110l213 474q125 -3 199.5 -33.5t110 -75t36 -71t0.5 -28.5q0 -49 -23 -91.5t-66 -71.5t-96 -29q-22 0 -52 7t-58.5 22t-51.5 39.5t-32 59.5l-85 -21q12 -49 39.5 -85.5t65 -61t81.5 -36.5t90 -12
q53 0 103.5 16t91 47t66.5 78t30 108q1 10 1 20q0 36 -9 69q25 -28 64 -46.5t84 -31t90.5 -21.5t82.5 -19t60 -24t23 -36q0 -18 -14 -31.5t-38 -22.5t-55 -13.5t-65 -4.5q-59 0 -118 17t-102 56l-36 -81q46 -32 112 -53.5t138 -21.5zM908 717h-250v-557h250v92h-153v141h126
v91h-126v141h153v92zM649 160q-8 90 -31 162q-10 31 -24.5 61t-34 54t-45 39.5t-58.5 18.5l149 222h-114l-188 -288q-2 -2 -2.5 -3.5t-1.5 -1.5v293h-101v-557h95q2 71 17 127q6 24 15 46.5t22.5 40t31.5 28.5t42 11q21 0 37.5 -11t29.5 -28.5t22 -40t16 -46.5
q15 -56 21 -127h102z" />
    <glyph glyph-name="onesuperior" unicode="&#xb9;" 
d="M2317 1466v-1466h-2280v1466h2280zM198 749h94v95q6 64 24 132.5t53 125.5t88.5 93.5t130.5 36.5q63 0 100.5 -12.5t56.5 -26.5q41 -28 41 -67q0 -18 -10.5 -35.5t-31.5 -31.5t-51.5 -22.5t-71.5 -8.5q-101 0 -172 46l-92 -69q1 -2 1 -3t1 -2q18 -37 48.5 -83t73 -86.5
t99 -68t127.5 -27.5q39 0 83 15.5t84 42.5l-50 72q-28 -19 -60 -30.5t-57 -11.5q-38 0 -71 12t-60.5 31.5t-50.5 44t-41 50.5q63 -20 137 -20q88 0 145 29.5t84 74.5l-2 -83q2 0 15 -0.5t33 -0.5q2 -8 10 -28t23 -45t38.5 -52t57 -49.5t77.5 -37t100 -14.5q67 0 133 30
t121 99l-65 60q-42 -54 -91 -77.5t-98 -23.5q-33 0 -66 9.5t-61.5 27.5t-51 43.5t-35.5 56.5q32 0 58.5 -0.5t43.5 -0.5t41.5 0.5t55 2t53.5 3.5h6q21 2 58 7t72 21t61 48t26 87q0 34 -18 68.5t-50.5 62.5t-76 44.5t-93.5 16.5h-11q-67 -2 -123.5 -25.5t-99 -61.5t-68.5 -86
t-32 -98q-14 1 -24 1h-14q20 37 20 76q0 40 -20 76.5t-58 62.5q-78 55 -207 55q-96 0 -170 -44.5t-126 -131.5v161h-94v-556zM2178 984q1 13 1 25q0 56 -21.5 104t-63 85t-98.5 60.5t-119.5 36.5t-126.5 18t-122 5q-62 0 -110 -3.5t-74 -6.5v-95q28 3 78 7t99 4l-214 -475
h109l214 473q93 -2 158.5 -20t106.5 -46.5t60 -64.5t20 -57t1 -25q0 -32 -13 -65t-38.5 -60.5t-60 -44.5t-73.5 -17q-22 0 -52 7t-58.5 22t-51.5 39.5t-32 60.5l-85 -22q12 -49 39.5 -85.5t65 -60.5t81.5 -36t89 -12q53 0 103.5 15.5t91 47t66.5 78t30 108.5zM1233 1053
q-23 -2 -53.5 -3t-64 -1.5t-69 -0.5h-67.5q8 41 31 74.5t56 57.5t73 37.5t80 13.5q37 0 71 -12.5t61 -38.5q24 -24 24 -52q0 -18 -7 -30.5t-23 -21.5t-42.5 -14.5t-64.5 -8.5h-5zM1898 151q66 0 116 13t83.5 35.5t51 52t17.5 63.5q0 46 -32 74t-80.5 46t-105 29t-105 24
t-80.5 30.5t-32 47.5q0 14 9 28.5t29 26.5t51.5 19.5t75.5 7.5q48 0 101.5 -14.5t100.5 -54.5l37 83q-21 15 -48.5 27.5t-59 21.5t-64.5 14t-66 5q-69 0 -117.5 -13t-79 -35t-44.5 -52t-14 -64q0 -3 0.5 -6t0.5 -7q-34 55 -93.5 89.5t-130.5 53.5t-146.5 26t-142.5 7
q-62 0 -110 -3.5t-74 -6.5v-95q14 2 34 3.5t43.5 3.5t49 3t49.5 1l-214 -475h110l213 474q125 -3 199.5 -33.5t110 -75t36 -71t0.5 -28.5q0 -49 -23 -91.5t-66 -71.5t-96 -29q-22 0 -52 7t-58.5 22t-51.5 39.5t-32 59.5l-85 -21q12 -49 39.5 -85.5t65 -61t81.5 -36.5t90 -12
q53 0 103.5 16t91 47t66.5 78t30 108q1 10 1 20q0 36 -9 69q25 -28 64 -46.5t84 -31t90.5 -21.5t82.5 -19t60 -24t23 -36q0 -18 -14 -31.5t-38 -22.5t-55 -13.5t-65 -4.5q-59 0 -118 17t-102 56l-36 -81q46 -32 112 -53.5t138 -21.5zM908 717h-250v-557h250v92h-153v141h126
v91h-126v141h153v92zM649 160q-8 90 -31 162q-10 31 -24.5 61t-34 54t-45 39.5t-58.5 18.5l149 222h-114l-188 -288q-2 -2 -2.5 -3.5t-1.5 -1.5v293h-101v-557h95q2 71 17 127q6 24 15 46.5t22.5 40t31.5 28.5t42 11q21 0 37.5 -11t29.5 -28.5t22 -40t16 -46.5
q15 -56 21 -127h102z" />
    <glyph glyph-name="ordmasculine" unicode="&#xba;" 
d="M2317 1466v-1466h-2280v1466h2280zM198 749h94v95q6 64 24 132.5t53 125.5t88.5 93.5t130.5 36.5q63 0 100.5 -12.5t56.5 -26.5q41 -28 41 -67q0 -18 -10.5 -35.5t-31.5 -31.5t-51.5 -22.5t-71.5 -8.5q-101 0 -172 46l-92 -69q1 -2 1 -3t1 -2q18 -37 48.5 -83t73 -86.5
t99 -68t127.5 -27.5q39 0 83 15.5t84 42.5l-50 72q-28 -19 -60 -30.5t-57 -11.5q-38 0 -71 12t-60.5 31.5t-50.5 44t-41 50.5q63 -20 137 -20q88 0 145 29.5t84 74.5l-2 -83q2 0 15 -0.5t33 -0.5q2 -8 10 -28t23 -45t38.5 -52t57 -49.5t77.5 -37t100 -14.5q67 0 133 30
t121 99l-65 60q-42 -54 -91 -77.5t-98 -23.5q-33 0 -66 9.5t-61.5 27.5t-51 43.5t-35.5 56.5q32 0 58.5 -0.5t43.5 -0.5t41.5 0.5t55 2t53.5 3.5h6q21 2 58 7t72 21t61 48t26 87q0 34 -18 68.5t-50.5 62.5t-76 44.5t-93.5 16.5h-11q-67 -2 -123.5 -25.5t-99 -61.5t-68.5 -86
t-32 -98q-14 1 -24 1h-14q20 37 20 76q0 40 -20 76.5t-58 62.5q-78 55 -207 55q-96 0 -170 -44.5t-126 -131.5v161h-94v-556zM2178 984q1 13 1 25q0 56 -21.5 104t-63 85t-98.5 60.5t-119.5 36.5t-126.5 18t-122 5q-62 0 -110 -3.5t-74 -6.5v-95q28 3 78 7t99 4l-214 -475
h109l214 473q93 -2 158.5 -20t106.5 -46.5t60 -64.5t20 -57t1 -25q0 -32 -13 -65t-38.5 -60.5t-60 -44.5t-73.5 -17q-22 0 -52 7t-58.5 22t-51.5 39.5t-32 60.5l-85 -22q12 -49 39.5 -85.5t65 -60.5t81.5 -36t89 -12q53 0 103.5 15.5t91 47t66.5 78t30 108.5zM1233 1053
q-23 -2 -53.5 -3t-64 -1.5t-69 -0.5h-67.5q8 41 31 74.5t56 57.5t73 37.5t80 13.5q37 0 71 -12.5t61 -38.5q24 -24 24 -52q0 -18 -7 -30.5t-23 -21.5t-42.5 -14.5t-64.5 -8.5h-5zM1898 151q66 0 116 13t83.5 35.5t51 52t17.5 63.5q0 46 -32 74t-80.5 46t-105 29t-105 24
t-80.5 30.5t-32 47.5q0 14 9 28.5t29 26.5t51.5 19.5t75.5 7.5q48 0 101.5 -14.5t100.5 -54.5l37 83q-21 15 -48.5 27.5t-59 21.5t-64.5 14t-66 5q-69 0 -117.5 -13t-79 -35t-44.5 -52t-14 -64q0 -3 0.5 -6t0.5 -7q-34 55 -93.5 89.5t-130.5 53.5t-146.5 26t-142.5 7
q-62 0 -110 -3.5t-74 -6.5v-95q14 2 34 3.5t43.5 3.5t49 3t49.5 1l-214 -475h110l213 474q125 -3 199.5 -33.5t110 -75t36 -71t0.5 -28.5q0 -49 -23 -91.5t-66 -71.5t-96 -29q-22 0 -52 7t-58.5 22t-51.5 39.5t-32 59.5l-85 -21q12 -49 39.5 -85.5t65 -61t81.5 -36.5t90 -12
q53 0 103.5 16t91 47t66.5 78t30 108q1 10 1 20q0 36 -9 69q25 -28 64 -46.5t84 -31t90.5 -21.5t82.5 -19t60 -24t23 -36q0 -18 -14 -31.5t-38 -22.5t-55 -13.5t-65 -4.5q-59 0 -118 17t-102 56l-36 -81q46 -32 112 -53.5t138 -21.5zM908 717h-250v-557h250v92h-153v141h126
v91h-126v141h153v92zM649 160q-8 90 -31 162q-10 31 -24.5 61t-34 54t-45 39.5t-58.5 18.5l149 222h-114l-188 -288q-2 -2 -2.5 -3.5t-1.5 -1.5v293h-101v-557h95q2 71 17 127q6 24 15 46.5t22.5 40t31.5 28.5t42 11q21 0 37.5 -11t29.5 -28.5t22 -40t16 -46.5
q15 -56 21 -127h102z" />
    <glyph glyph-name="guillemotright" unicode="&#xbb;" horiz-adv-x="851" 
d="M383 254l260 451l-260 462h171l253 -462l-253 -451h-171zM67 254l259 451l-259 462h171l253 -462l-253 -451h-171z" />
    <glyph glyph-name="onequarter" unicode="&#xbc;" 
d="M2317 1466v-1466h-2280v1466h2280zM198 749h94v95q6 64 24 132.5t53 125.5t88.5 93.5t130.5 36.5q63 0 100.5 -12.5t56.5 -26.5q41 -28 41 -67q0 -18 -10.5 -35.5t-31.5 -31.5t-51.5 -22.5t-71.5 -8.5q-101 0 -172 46l-92 -69q1 -2 1 -3t1 -2q18 -37 48.5 -83t73 -86.5
t99 -68t127.5 -27.5q39 0 83 15.5t84 42.5l-50 72q-28 -19 -60 -30.5t-57 -11.5q-38 0 -71 12t-60.5 31.5t-50.5 44t-41 50.5q63 -20 137 -20q88 0 145 29.5t84 74.5l-2 -83q2 0 15 -0.5t33 -0.5q2 -8 10 -28t23 -45t38.5 -52t57 -49.5t77.5 -37t100 -14.5q67 0 133 30
t121 99l-65 60q-42 -54 -91 -77.5t-98 -23.5q-33 0 -66 9.5t-61.5 27.5t-51 43.5t-35.5 56.5q32 0 58.5 -0.5t43.5 -0.5t41.5 0.5t55 2t53.5 3.5h6q21 2 58 7t72 21t61 48t26 87q0 34 -18 68.5t-50.5 62.5t-76 44.5t-93.5 16.5h-11q-67 -2 -123.5 -25.5t-99 -61.5t-68.5 -86
t-32 -98q-14 1 -24 1h-14q20 37 20 76q0 40 -20 76.5t-58 62.5q-78 55 -207 55q-96 0 -170 -44.5t-126 -131.5v161h-94v-556zM2178 984q1 13 1 25q0 56 -21.5 104t-63 85t-98.5 60.5t-119.5 36.5t-126.5 18t-122 5q-62 0 -110 -3.5t-74 -6.5v-95q28 3 78 7t99 4l-214 -475
h109l214 473q93 -2 158.5 -20t106.5 -46.5t60 -64.5t20 -57t1 -25q0 -32 -13 -65t-38.5 -60.5t-60 -44.5t-73.5 -17q-22 0 -52 7t-58.5 22t-51.5 39.5t-32 60.5l-85 -22q12 -49 39.5 -85.5t65 -60.5t81.5 -36t89 -12q53 0 103.5 15.5t91 47t66.5 78t30 108.5zM1233 1053
q-23 -2 -53.5 -3t-64 -1.5t-69 -0.5h-67.5q8 41 31 74.5t56 57.5t73 37.5t80 13.5q37 0 71 -12.5t61 -38.5q24 -24 24 -52q0 -18 -7 -30.5t-23 -21.5t-42.5 -14.5t-64.5 -8.5h-5zM1898 151q66 0 116 13t83.5 35.5t51 52t17.5 63.5q0 46 -32 74t-80.5 46t-105 29t-105 24
t-80.5 30.5t-32 47.5q0 14 9 28.5t29 26.5t51.5 19.5t75.5 7.5q48 0 101.5 -14.5t100.5 -54.5l37 83q-21 15 -48.5 27.5t-59 21.5t-64.5 14t-66 5q-69 0 -117.5 -13t-79 -35t-44.5 -52t-14 -64q0 -3 0.5 -6t0.5 -7q-34 55 -93.5 89.5t-130.5 53.5t-146.5 26t-142.5 7
q-62 0 -110 -3.5t-74 -6.5v-95q14 2 34 3.5t43.5 3.5t49 3t49.5 1l-214 -475h110l213 474q125 -3 199.5 -33.5t110 -75t36 -71t0.5 -28.5q0 -49 -23 -91.5t-66 -71.5t-96 -29q-22 0 -52 7t-58.5 22t-51.5 39.5t-32 59.5l-85 -21q12 -49 39.5 -85.5t65 -61t81.5 -36.5t90 -12
q53 0 103.5 16t91 47t66.5 78t30 108q1 10 1 20q0 36 -9 69q25 -28 64 -46.5t84 -31t90.5 -21.5t82.5 -19t60 -24t23 -36q0 -18 -14 -31.5t-38 -22.5t-55 -13.5t-65 -4.5q-59 0 -118 17t-102 56l-36 -81q46 -32 112 -53.5t138 -21.5zM908 717h-250v-557h250v92h-153v141h126
v91h-126v141h153v92zM649 160q-8 90 -31 162q-10 31 -24.5 61t-34 54t-45 39.5t-58.5 18.5l149 222h-114l-188 -288q-2 -2 -2.5 -3.5t-1.5 -1.5v293h-101v-557h95q2 71 17 127q6 24 15 46.5t22.5 40t31.5 28.5t42 11q21 0 37.5 -11t29.5 -28.5t22 -40t16 -46.5
q15 -56 21 -127h102z" />
    <glyph glyph-name="onehalf" unicode="&#xbd;" 
d="M2317 1466v-1466h-2280v1466h2280zM198 749h94v95q6 64 24 132.5t53 125.5t88.5 93.5t130.5 36.5q63 0 100.5 -12.5t56.5 -26.5q41 -28 41 -67q0 -18 -10.5 -35.5t-31.5 -31.5t-51.5 -22.5t-71.5 -8.5q-101 0 -172 46l-92 -69q1 -2 1 -3t1 -2q18 -37 48.5 -83t73 -86.5
t99 -68t127.5 -27.5q39 0 83 15.5t84 42.5l-50 72q-28 -19 -60 -30.5t-57 -11.5q-38 0 -71 12t-60.5 31.5t-50.5 44t-41 50.5q63 -20 137 -20q88 0 145 29.5t84 74.5l-2 -83q2 0 15 -0.5t33 -0.5q2 -8 10 -28t23 -45t38.5 -52t57 -49.5t77.5 -37t100 -14.5q67 0 133 30
t121 99l-65 60q-42 -54 -91 -77.5t-98 -23.5q-33 0 -66 9.5t-61.5 27.5t-51 43.5t-35.5 56.5q32 0 58.5 -0.5t43.5 -0.5t41.5 0.5t55 2t53.5 3.5h6q21 2 58 7t72 21t61 48t26 87q0 34 -18 68.5t-50.5 62.5t-76 44.5t-93.5 16.5h-11q-67 -2 -123.5 -25.5t-99 -61.5t-68.5 -86
t-32 -98q-14 1 -24 1h-14q20 37 20 76q0 40 -20 76.5t-58 62.5q-78 55 -207 55q-96 0 -170 -44.5t-126 -131.5v161h-94v-556zM2178 984q1 13 1 25q0 56 -21.5 104t-63 85t-98.5 60.5t-119.5 36.5t-126.5 18t-122 5q-62 0 -110 -3.5t-74 -6.5v-95q28 3 78 7t99 4l-214 -475
h109l214 473q93 -2 158.5 -20t106.5 -46.5t60 -64.5t20 -57t1 -25q0 -32 -13 -65t-38.5 -60.5t-60 -44.5t-73.5 -17q-22 0 -52 7t-58.5 22t-51.5 39.5t-32 60.5l-85 -22q12 -49 39.5 -85.5t65 -60.5t81.5 -36t89 -12q53 0 103.5 15.5t91 47t66.5 78t30 108.5zM1233 1053
q-23 -2 -53.5 -3t-64 -1.5t-69 -0.5h-67.5q8 41 31 74.5t56 57.5t73 37.5t80 13.5q37 0 71 -12.5t61 -38.5q24 -24 24 -52q0 -18 -7 -30.5t-23 -21.5t-42.5 -14.5t-64.5 -8.5h-5zM1898 151q66 0 116 13t83.5 35.5t51 52t17.5 63.5q0 46 -32 74t-80.5 46t-105 29t-105 24
t-80.5 30.5t-32 47.5q0 14 9 28.5t29 26.5t51.5 19.5t75.5 7.5q48 0 101.5 -14.5t100.5 -54.5l37 83q-21 15 -48.5 27.5t-59 21.5t-64.5 14t-66 5q-69 0 -117.5 -13t-79 -35t-44.5 -52t-14 -64q0 -3 0.5 -6t0.5 -7q-34 55 -93.5 89.5t-130.5 53.5t-146.5 26t-142.5 7
q-62 0 -110 -3.5t-74 -6.5v-95q14 2 34 3.5t43.5 3.5t49 3t49.5 1l-214 -475h110l213 474q125 -3 199.5 -33.5t110 -75t36 -71t0.5 -28.5q0 -49 -23 -91.5t-66 -71.5t-96 -29q-22 0 -52 7t-58.5 22t-51.5 39.5t-32 59.5l-85 -21q12 -49 39.5 -85.5t65 -61t81.5 -36.5t90 -12
q53 0 103.5 16t91 47t66.5 78t30 108q1 10 1 20q0 36 -9 69q25 -28 64 -46.5t84 -31t90.5 -21.5t82.5 -19t60 -24t23 -36q0 -18 -14 -31.5t-38 -22.5t-55 -13.5t-65 -4.5q-59 0 -118 17t-102 56l-36 -81q46 -32 112 -53.5t138 -21.5zM908 717h-250v-557h250v92h-153v141h126
v91h-126v141h153v92zM649 160q-8 90 -31 162q-10 31 -24.5 61t-34 54t-45 39.5t-58.5 18.5l149 222h-114l-188 -288q-2 -2 -2.5 -3.5t-1.5 -1.5v293h-101v-557h95q2 71 17 127q6 24 15 46.5t22.5 40t31.5 28.5t42 11q21 0 37.5 -11t29.5 -28.5t22 -40t16 -46.5
q15 -56 21 -127h102z" />
    <glyph glyph-name="threequarters" unicode="&#xbe;" 
d="M2317 1466v-1466h-2280v1466h2280zM198 749h94v95q6 64 24 132.5t53 125.5t88.5 93.5t130.5 36.5q63 0 100.5 -12.5t56.5 -26.5q41 -28 41 -67q0 -18 -10.5 -35.5t-31.5 -31.5t-51.5 -22.5t-71.5 -8.5q-101 0 -172 46l-92 -69q1 -2 1 -3t1 -2q18 -37 48.5 -83t73 -86.5
t99 -68t127.5 -27.5q39 0 83 15.5t84 42.5l-50 72q-28 -19 -60 -30.5t-57 -11.5q-38 0 -71 12t-60.5 31.5t-50.5 44t-41 50.5q63 -20 137 -20q88 0 145 29.5t84 74.5l-2 -83q2 0 15 -0.5t33 -0.5q2 -8 10 -28t23 -45t38.5 -52t57 -49.5t77.5 -37t100 -14.5q67 0 133 30
t121 99l-65 60q-42 -54 -91 -77.5t-98 -23.5q-33 0 -66 9.5t-61.5 27.5t-51 43.5t-35.5 56.5q32 0 58.5 -0.5t43.5 -0.5t41.5 0.5t55 2t53.5 3.5h6q21 2 58 7t72 21t61 48t26 87q0 34 -18 68.5t-50.5 62.5t-76 44.5t-93.5 16.5h-11q-67 -2 -123.5 -25.5t-99 -61.5t-68.5 -86
t-32 -98q-14 1 -24 1h-14q20 37 20 76q0 40 -20 76.5t-58 62.5q-78 55 -207 55q-96 0 -170 -44.5t-126 -131.5v161h-94v-556zM2178 984q1 13 1 25q0 56 -21.5 104t-63 85t-98.5 60.5t-119.5 36.5t-126.5 18t-122 5q-62 0 -110 -3.5t-74 -6.5v-95q28 3 78 7t99 4l-214 -475
h109l214 473q93 -2 158.5 -20t106.5 -46.5t60 -64.5t20 -57t1 -25q0 -32 -13 -65t-38.5 -60.5t-60 -44.5t-73.5 -17q-22 0 -52 7t-58.5 22t-51.5 39.5t-32 60.5l-85 -22q12 -49 39.5 -85.5t65 -60.5t81.5 -36t89 -12q53 0 103.5 15.5t91 47t66.5 78t30 108.5zM1233 1053
q-23 -2 -53.5 -3t-64 -1.5t-69 -0.5h-67.5q8 41 31 74.5t56 57.5t73 37.5t80 13.5q37 0 71 -12.5t61 -38.5q24 -24 24 -52q0 -18 -7 -30.5t-23 -21.5t-42.5 -14.5t-64.5 -8.5h-5zM1898 151q66 0 116 13t83.5 35.5t51 52t17.5 63.5q0 46 -32 74t-80.5 46t-105 29t-105 24
t-80.5 30.5t-32 47.5q0 14 9 28.5t29 26.5t51.5 19.5t75.5 7.5q48 0 101.5 -14.5t100.5 -54.5l37 83q-21 15 -48.5 27.5t-59 21.5t-64.5 14t-66 5q-69 0 -117.5 -13t-79 -35t-44.5 -52t-14 -64q0 -3 0.5 -6t0.5 -7q-34 55 -93.5 89.5t-130.5 53.5t-146.5 26t-142.5 7
q-62 0 -110 -3.5t-74 -6.5v-95q14 2 34 3.5t43.5 3.5t49 3t49.5 1l-214 -475h110l213 474q125 -3 199.5 -33.5t110 -75t36 -71t0.5 -28.5q0 -49 -23 -91.5t-66 -71.5t-96 -29q-22 0 -52 7t-58.5 22t-51.5 39.5t-32 59.5l-85 -21q12 -49 39.5 -85.5t65 -61t81.5 -36.5t90 -12
q53 0 103.5 16t91 47t66.5 78t30 108q1 10 1 20q0 36 -9 69q25 -28 64 -46.5t84 -31t90.5 -21.5t82.5 -19t60 -24t23 -36q0 -18 -14 -31.5t-38 -22.5t-55 -13.5t-65 -4.5q-59 0 -118 17t-102 56l-36 -81q46 -32 112 -53.5t138 -21.5zM908 717h-250v-557h250v92h-153v141h126
v91h-126v141h153v92zM649 160q-8 90 -31 162q-10 31 -24.5 61t-34 54t-45 39.5t-58.5 18.5l149 222h-114l-188 -288q-2 -2 -2.5 -3.5t-1.5 -1.5v293h-101v-557h95q2 71 17 127q6 24 15 46.5t22.5 40t31.5 28.5t42 11q21 0 37.5 -11t29.5 -28.5t22 -40t16 -46.5
q15 -56 21 -127h102z" />
    <glyph glyph-name="questiondown" unicode="&#xbf;" 
d="M2317 1466v-1466h-2280v1466h2280zM198 749h94v95q6 64 24 132.5t53 125.5t88.5 93.5t130.5 36.5q63 0 100.5 -12.5t56.5 -26.5q41 -28 41 -67q0 -18 -10.5 -35.5t-31.5 -31.5t-51.5 -22.5t-71.5 -8.5q-101 0 -172 46l-92 -69q1 -2 1 -3t1 -2q18 -37 48.5 -83t73 -86.5
t99 -68t127.5 -27.5q39 0 83 15.5t84 42.5l-50 72q-28 -19 -60 -30.5t-57 -11.5q-38 0 -71 12t-60.5 31.5t-50.5 44t-41 50.5q63 -20 137 -20q88 0 145 29.5t84 74.5l-2 -83q2 0 15 -0.5t33 -0.5q2 -8 10 -28t23 -45t38.5 -52t57 -49.5t77.5 -37t100 -14.5q67 0 133 30
t121 99l-65 60q-42 -54 -91 -77.5t-98 -23.5q-33 0 -66 9.5t-61.5 27.5t-51 43.5t-35.5 56.5q32 0 58.5 -0.5t43.5 -0.5t41.5 0.5t55 2t53.5 3.5h6q21 2 58 7t72 21t61 48t26 87q0 34 -18 68.5t-50.5 62.5t-76 44.5t-93.5 16.5h-11q-67 -2 -123.5 -25.5t-99 -61.5t-68.5 -86
t-32 -98q-14 1 -24 1h-14q20 37 20 76q0 40 -20 76.5t-58 62.5q-78 55 -207 55q-96 0 -170 -44.5t-126 -131.5v161h-94v-556zM2178 984q1 13 1 25q0 56 -21.5 104t-63 85t-98.5 60.5t-119.5 36.5t-126.5 18t-122 5q-62 0 -110 -3.5t-74 -6.5v-95q28 3 78 7t99 4l-214 -475
h109l214 473q93 -2 158.5 -20t106.5 -46.5t60 -64.5t20 -57t1 -25q0 -32 -13 -65t-38.5 -60.5t-60 -44.5t-73.5 -17q-22 0 -52 7t-58.5 22t-51.5 39.5t-32 60.5l-85 -22q12 -49 39.5 -85.5t65 -60.5t81.5 -36t89 -12q53 0 103.5 15.5t91 47t66.5 78t30 108.5zM1233 1053
q-23 -2 -53.5 -3t-64 -1.5t-69 -0.5h-67.5q8 41 31 74.5t56 57.5t73 37.5t80 13.5q37 0 71 -12.5t61 -38.5q24 -24 24 -52q0 -18 -7 -30.5t-23 -21.5t-42.5 -14.5t-64.5 -8.5h-5zM1898 151q66 0 116 13t83.5 35.5t51 52t17.5 63.5q0 46 -32 74t-80.5 46t-105 29t-105 24
t-80.5 30.5t-32 47.5q0 14 9 28.5t29 26.5t51.5 19.5t75.5 7.5q48 0 101.5 -14.5t100.5 -54.5l37 83q-21 15 -48.5 27.5t-59 21.5t-64.5 14t-66 5q-69 0 -117.5 -13t-79 -35t-44.5 -52t-14 -64q0 -3 0.5 -6t0.5 -7q-34 55 -93.5 89.5t-130.5 53.5t-146.5 26t-142.5 7
q-62 0 -110 -3.5t-74 -6.5v-95q14 2 34 3.5t43.5 3.5t49 3t49.5 1l-214 -475h110l213 474q125 -3 199.5 -33.5t110 -75t36 -71t0.5 -28.5q0 -49 -23 -91.5t-66 -71.5t-96 -29q-22 0 -52 7t-58.5 22t-51.5 39.5t-32 59.5l-85 -21q12 -49 39.5 -85.5t65 -61t81.5 -36.5t90 -12
q53 0 103.5 16t91 47t66.5 78t30 108q1 10 1 20q0 36 -9 69q25 -28 64 -46.5t84 -31t90.5 -21.5t82.5 -19t60 -24t23 -36q0 -18 -14 -31.5t-38 -22.5t-55 -13.5t-65 -4.5q-59 0 -118 17t-102 56l-36 -81q46 -32 112 -53.5t138 -21.5zM908 717h-250v-557h250v92h-153v141h126
v91h-126v141h153v92zM649 160q-8 90 -31 162q-10 31 -24.5 61t-34 54t-45 39.5t-58.5 18.5l149 222h-114l-188 -288q-2 -2 -2.5 -3.5t-1.5 -1.5v293h-101v-557h95q2 71 17 127q6 24 15 46.5t22.5 40t31.5 28.5t42 11q21 0 37.5 -11t29.5 -28.5t22 -40t16 -46.5
q15 -56 21 -127h102z" />
    <glyph glyph-name="Agrave" unicode="&#xc0;" 
d="M2317 1466v-1466h-2280v1466h2280zM198 749h94v95q6 64 24 132.5t53 125.5t88.5 93.5t130.5 36.5q63 0 100.5 -12.5t56.5 -26.5q41 -28 41 -67q0 -18 -10.5 -35.5t-31.5 -31.5t-51.5 -22.5t-71.5 -8.5q-101 0 -172 46l-92 -69q1 -2 1 -3t1 -2q18 -37 48.5 -83t73 -86.5
t99 -68t127.5 -27.5q39 0 83 15.5t84 42.5l-50 72q-28 -19 -60 -30.5t-57 -11.5q-38 0 -71 12t-60.5 31.5t-50.5 44t-41 50.5q63 -20 137 -20q88 0 145 29.5t84 74.5l-2 -83q2 0 15 -0.5t33 -0.5q2 -8 10 -28t23 -45t38.5 -52t57 -49.5t77.5 -37t100 -14.5q67 0 133 30
t121 99l-65 60q-42 -54 -91 -77.5t-98 -23.5q-33 0 -66 9.5t-61.5 27.5t-51 43.5t-35.5 56.5q32 0 58.5 -0.5t43.5 -0.5t41.5 0.5t55 2t53.5 3.5h6q21 2 58 7t72 21t61 48t26 87q0 34 -18 68.5t-50.5 62.5t-76 44.5t-93.5 16.5h-11q-67 -2 -123.5 -25.5t-99 -61.5t-68.5 -86
t-32 -98q-14 1 -24 1h-14q20 37 20 76q0 40 -20 76.5t-58 62.5q-78 55 -207 55q-96 0 -170 -44.5t-126 -131.5v161h-94v-556zM2178 984q1 13 1 25q0 56 -21.5 104t-63 85t-98.5 60.5t-119.5 36.5t-126.5 18t-122 5q-62 0 -110 -3.5t-74 -6.5v-95q28 3 78 7t99 4l-214 -475
h109l214 473q93 -2 158.5 -20t106.5 -46.5t60 -64.5t20 -57t1 -25q0 -32 -13 -65t-38.5 -60.5t-60 -44.5t-73.5 -17q-22 0 -52 7t-58.5 22t-51.5 39.5t-32 60.5l-85 -22q12 -49 39.5 -85.5t65 -60.5t81.5 -36t89 -12q53 0 103.5 15.5t91 47t66.5 78t30 108.5zM1233 1053
q-23 -2 -53.5 -3t-64 -1.5t-69 -0.5h-67.5q8 41 31 74.5t56 57.5t73 37.5t80 13.5q37 0 71 -12.5t61 -38.5q24 -24 24 -52q0 -18 -7 -30.5t-23 -21.5t-42.5 -14.5t-64.5 -8.5h-5zM1898 151q66 0 116 13t83.5 35.5t51 52t17.5 63.5q0 46 -32 74t-80.5 46t-105 29t-105 24
t-80.5 30.5t-32 47.5q0 14 9 28.5t29 26.5t51.5 19.5t75.5 7.5q48 0 101.5 -14.5t100.5 -54.5l37 83q-21 15 -48.5 27.5t-59 21.5t-64.5 14t-66 5q-69 0 -117.5 -13t-79 -35t-44.5 -52t-14 -64q0 -3 0.5 -6t0.5 -7q-34 55 -93.5 89.5t-130.5 53.5t-146.5 26t-142.5 7
q-62 0 -110 -3.5t-74 -6.5v-95q14 2 34 3.5t43.5 3.5t49 3t49.5 1l-214 -475h110l213 474q125 -3 199.5 -33.5t110 -75t36 -71t0.5 -28.5q0 -49 -23 -91.5t-66 -71.5t-96 -29q-22 0 -52 7t-58.5 22t-51.5 39.5t-32 59.5l-85 -21q12 -49 39.5 -85.5t65 -61t81.5 -36.5t90 -12
q53 0 103.5 16t91 47t66.5 78t30 108q1 10 1 20q0 36 -9 69q25 -28 64 -46.5t84 -31t90.5 -21.5t82.5 -19t60 -24t23 -36q0 -18 -14 -31.5t-38 -22.5t-55 -13.5t-65 -4.5q-59 0 -118 17t-102 56l-36 -81q46 -32 112 -53.5t138 -21.5zM908 717h-250v-557h250v92h-153v141h126
v91h-126v141h153v92zM649 160q-8 90 -31 162q-10 31 -24.5 61t-34 54t-45 39.5t-58.5 18.5l149 222h-114l-188 -288q-2 -2 -2.5 -3.5t-1.5 -1.5v293h-101v-557h95q2 71 17 127q6 24 15 46.5t22.5 40t31.5 28.5t42 11q21 0 37.5 -11t29.5 -28.5t22 -40t16 -46.5
q15 -56 21 -127h102z" />
    <glyph glyph-name="Aacute" unicode="&#xc1;" 
d="M2317 1466v-1466h-2280v1466h2280zM198 749h94v95q6 64 24 132.5t53 125.5t88.5 93.5t130.5 36.5q63 0 100.5 -12.5t56.5 -26.5q41 -28 41 -67q0 -18 -10.5 -35.5t-31.5 -31.5t-51.5 -22.5t-71.5 -8.5q-101 0 -172 46l-92 -69q1 -2 1 -3t1 -2q18 -37 48.5 -83t73 -86.5
t99 -68t127.5 -27.5q39 0 83 15.5t84 42.5l-50 72q-28 -19 -60 -30.5t-57 -11.5q-38 0 -71 12t-60.5 31.5t-50.5 44t-41 50.5q63 -20 137 -20q88 0 145 29.5t84 74.5l-2 -83q2 0 15 -0.5t33 -0.5q2 -8 10 -28t23 -45t38.5 -52t57 -49.5t77.5 -37t100 -14.5q67 0 133 30
t121 99l-65 60q-42 -54 -91 -77.5t-98 -23.5q-33 0 -66 9.5t-61.5 27.5t-51 43.5t-35.5 56.5q32 0 58.5 -0.5t43.5 -0.5t41.5 0.5t55 2t53.5 3.5h6q21 2 58 7t72 21t61 48t26 87q0 34 -18 68.5t-50.5 62.5t-76 44.5t-93.5 16.5h-11q-67 -2 -123.5 -25.5t-99 -61.5t-68.5 -86
t-32 -98q-14 1 -24 1h-14q20 37 20 76q0 40 -20 76.5t-58 62.5q-78 55 -207 55q-96 0 -170 -44.5t-126 -131.5v161h-94v-556zM2178 984q1 13 1 25q0 56 -21.5 104t-63 85t-98.5 60.5t-119.5 36.5t-126.5 18t-122 5q-62 0 -110 -3.5t-74 -6.5v-95q28 3 78 7t99 4l-214 -475
h109l214 473q93 -2 158.5 -20t106.5 -46.5t60 -64.5t20 -57t1 -25q0 -32 -13 -65t-38.5 -60.5t-60 -44.5t-73.5 -17q-22 0 -52 7t-58.5 22t-51.5 39.5t-32 60.5l-85 -22q12 -49 39.5 -85.5t65 -60.5t81.5 -36t89 -12q53 0 103.5 15.5t91 47t66.5 78t30 108.5zM1233 1053
q-23 -2 -53.5 -3t-64 -1.5t-69 -0.5h-67.5q8 41 31 74.5t56 57.5t73 37.5t80 13.5q37 0 71 -12.5t61 -38.5q24 -24 24 -52q0 -18 -7 -30.5t-23 -21.5t-42.5 -14.5t-64.5 -8.5h-5zM1898 151q66 0 116 13t83.5 35.5t51 52t17.5 63.5q0 46 -32 74t-80.5 46t-105 29t-105 24
t-80.5 30.5t-32 47.5q0 14 9 28.5t29 26.5t51.5 19.5t75.5 7.5q48 0 101.5 -14.5t100.5 -54.5l37 83q-21 15 -48.5 27.5t-59 21.5t-64.5 14t-66 5q-69 0 -117.5 -13t-79 -35t-44.5 -52t-14 -64q0 -3 0.5 -6t0.5 -7q-34 55 -93.5 89.5t-130.5 53.5t-146.5 26t-142.5 7
q-62 0 -110 -3.5t-74 -6.5v-95q14 2 34 3.5t43.5 3.5t49 3t49.5 1l-214 -475h110l213 474q125 -3 199.5 -33.5t110 -75t36 -71t0.5 -28.5q0 -49 -23 -91.5t-66 -71.5t-96 -29q-22 0 -52 7t-58.5 22t-51.5 39.5t-32 59.5l-85 -21q12 -49 39.5 -85.5t65 -61t81.5 -36.5t90 -12
q53 0 103.5 16t91 47t66.5 78t30 108q1 10 1 20q0 36 -9 69q25 -28 64 -46.5t84 -31t90.5 -21.5t82.5 -19t60 -24t23 -36q0 -18 -14 -31.5t-38 -22.5t-55 -13.5t-65 -4.5q-59 0 -118 17t-102 56l-36 -81q46 -32 112 -53.5t138 -21.5zM908 717h-250v-557h250v92h-153v141h126
v91h-126v141h153v92zM649 160q-8 90 -31 162q-10 31 -24.5 61t-34 54t-45 39.5t-58.5 18.5l149 222h-114l-188 -288q-2 -2 -2.5 -3.5t-1.5 -1.5v293h-101v-557h95q2 71 17 127q6 24 15 46.5t22.5 40t31.5 28.5t42 11q21 0 37.5 -11t29.5 -28.5t22 -40t16 -46.5
q15 -56 21 -127h102z" />
    <glyph glyph-name="Acircumflex" unicode="&#xc2;" 
d="M2317 1466v-1466h-2280v1466h2280zM198 749h94v95q6 64 24 132.5t53 125.5t88.5 93.5t130.5 36.5q63 0 100.5 -12.5t56.5 -26.5q41 -28 41 -67q0 -18 -10.5 -35.5t-31.5 -31.5t-51.5 -22.5t-71.5 -8.5q-101 0 -172 46l-92 -69q1 -2 1 -3t1 -2q18 -37 48.5 -83t73 -86.5
t99 -68t127.5 -27.5q39 0 83 15.5t84 42.5l-50 72q-28 -19 -60 -30.5t-57 -11.5q-38 0 -71 12t-60.5 31.5t-50.5 44t-41 50.5q63 -20 137 -20q88 0 145 29.5t84 74.5l-2 -83q2 0 15 -0.5t33 -0.5q2 -8 10 -28t23 -45t38.5 -52t57 -49.5t77.5 -37t100 -14.5q67 0 133 30
t121 99l-65 60q-42 -54 -91 -77.5t-98 -23.5q-33 0 -66 9.5t-61.5 27.5t-51 43.5t-35.5 56.5q32 0 58.5 -0.5t43.5 -0.5t41.5 0.5t55 2t53.5 3.5h6q21 2 58 7t72 21t61 48t26 87q0 34 -18 68.5t-50.5 62.5t-76 44.5t-93.5 16.5h-11q-67 -2 -123.5 -25.5t-99 -61.5t-68.5 -86
t-32 -98q-14 1 -24 1h-14q20 37 20 76q0 40 -20 76.5t-58 62.5q-78 55 -207 55q-96 0 -170 -44.5t-126 -131.5v161h-94v-556zM2178 984q1 13 1 25q0 56 -21.5 104t-63 85t-98.5 60.5t-119.5 36.5t-126.5 18t-122 5q-62 0 -110 -3.5t-74 -6.5v-95q28 3 78 7t99 4l-214 -475
h109l214 473q93 -2 158.5 -20t106.5 -46.5t60 -64.5t20 -57t1 -25q0 -32 -13 -65t-38.5 -60.5t-60 -44.5t-73.5 -17q-22 0 -52 7t-58.5 22t-51.5 39.5t-32 60.5l-85 -22q12 -49 39.5 -85.5t65 -60.5t81.5 -36t89 -12q53 0 103.5 15.5t91 47t66.5 78t30 108.5zM1233 1053
q-23 -2 -53.5 -3t-64 -1.5t-69 -0.5h-67.5q8 41 31 74.5t56 57.5t73 37.5t80 13.5q37 0 71 -12.5t61 -38.5q24 -24 24 -52q0 -18 -7 -30.5t-23 -21.5t-42.5 -14.5t-64.5 -8.5h-5zM1898 151q66 0 116 13t83.5 35.5t51 52t17.5 63.5q0 46 -32 74t-80.5 46t-105 29t-105 24
t-80.5 30.5t-32 47.5q0 14 9 28.5t29 26.5t51.5 19.5t75.5 7.5q48 0 101.5 -14.5t100.5 -54.5l37 83q-21 15 -48.5 27.5t-59 21.5t-64.5 14t-66 5q-69 0 -117.5 -13t-79 -35t-44.5 -52t-14 -64q0 -3 0.5 -6t0.5 -7q-34 55 -93.5 89.5t-130.5 53.5t-146.5 26t-142.5 7
q-62 0 -110 -3.5t-74 -6.5v-95q14 2 34 3.5t43.5 3.5t49 3t49.5 1l-214 -475h110l213 474q125 -3 199.5 -33.5t110 -75t36 -71t0.5 -28.5q0 -49 -23 -91.5t-66 -71.5t-96 -29q-22 0 -52 7t-58.5 22t-51.5 39.5t-32 59.5l-85 -21q12 -49 39.5 -85.5t65 -61t81.5 -36.5t90 -12
q53 0 103.5 16t91 47t66.5 78t30 108q1 10 1 20q0 36 -9 69q25 -28 64 -46.5t84 -31t90.5 -21.5t82.5 -19t60 -24t23 -36q0 -18 -14 -31.5t-38 -22.5t-55 -13.5t-65 -4.5q-59 0 -118 17t-102 56l-36 -81q46 -32 112 -53.5t138 -21.5zM908 717h-250v-557h250v92h-153v141h126
v91h-126v141h153v92zM649 160q-8 90 -31 162q-10 31 -24.5 61t-34 54t-45 39.5t-58.5 18.5l149 222h-114l-188 -288q-2 -2 -2.5 -3.5t-1.5 -1.5v293h-101v-557h95q2 71 17 127q6 24 15 46.5t22.5 40t31.5 28.5t42 11q21 0 37.5 -11t29.5 -28.5t22 -40t16 -46.5
q15 -56 21 -127h102z" />
    <glyph glyph-name="Atilde" unicode="&#xc3;" 
d="M2317 1466v-1466h-2280v1466h2280zM198 749h94v95q6 64 24 132.5t53 125.5t88.5 93.5t130.5 36.5q63 0 100.5 -12.5t56.5 -26.5q41 -28 41 -67q0 -18 -10.5 -35.5t-31.5 -31.5t-51.5 -22.5t-71.5 -8.5q-101 0 -172 46l-92 -69q1 -2 1 -3t1 -2q18 -37 48.5 -83t73 -86.5
t99 -68t127.5 -27.5q39 0 83 15.5t84 42.5l-50 72q-28 -19 -60 -30.5t-57 -11.5q-38 0 -71 12t-60.5 31.5t-50.5 44t-41 50.5q63 -20 137 -20q88 0 145 29.5t84 74.5l-2 -83q2 0 15 -0.5t33 -0.5q2 -8 10 -28t23 -45t38.5 -52t57 -49.5t77.5 -37t100 -14.5q67 0 133 30
t121 99l-65 60q-42 -54 -91 -77.5t-98 -23.5q-33 0 -66 9.5t-61.5 27.5t-51 43.5t-35.5 56.5q32 0 58.5 -0.5t43.5 -0.5t41.5 0.5t55 2t53.5 3.5h6q21 2 58 7t72 21t61 48t26 87q0 34 -18 68.5t-50.5 62.5t-76 44.5t-93.5 16.5h-11q-67 -2 -123.5 -25.5t-99 -61.5t-68.5 -86
t-32 -98q-14 1 -24 1h-14q20 37 20 76q0 40 -20 76.5t-58 62.5q-78 55 -207 55q-96 0 -170 -44.5t-126 -131.5v161h-94v-556zM2178 984q1 13 1 25q0 56 -21.5 104t-63 85t-98.5 60.5t-119.5 36.5t-126.5 18t-122 5q-62 0 -110 -3.5t-74 -6.5v-95q28 3 78 7t99 4l-214 -475
h109l214 473q93 -2 158.5 -20t106.5 -46.5t60 -64.5t20 -57t1 -25q0 -32 -13 -65t-38.5 -60.5t-60 -44.5t-73.5 -17q-22 0 -52 7t-58.5 22t-51.5 39.5t-32 60.5l-85 -22q12 -49 39.5 -85.5t65 -60.5t81.5 -36t89 -12q53 0 103.5 15.5t91 47t66.5 78t30 108.5zM1233 1053
q-23 -2 -53.5 -3t-64 -1.5t-69 -0.5h-67.5q8 41 31 74.5t56 57.5t73 37.5t80 13.5q37 0 71 -12.5t61 -38.5q24 -24 24 -52q0 -18 -7 -30.5t-23 -21.5t-42.5 -14.5t-64.5 -8.5h-5zM1898 151q66 0 116 13t83.5 35.5t51 52t17.5 63.5q0 46 -32 74t-80.5 46t-105 29t-105 24
t-80.5 30.5t-32 47.5q0 14 9 28.5t29 26.5t51.5 19.5t75.5 7.5q48 0 101.5 -14.5t100.5 -54.5l37 83q-21 15 -48.5 27.5t-59 21.5t-64.5 14t-66 5q-69 0 -117.5 -13t-79 -35t-44.5 -52t-14 -64q0 -3 0.5 -6t0.5 -7q-34 55 -93.5 89.5t-130.5 53.5t-146.5 26t-142.5 7
q-62 0 -110 -3.5t-74 -6.5v-95q14 2 34 3.5t43.5 3.5t49 3t49.5 1l-214 -475h110l213 474q125 -3 199.5 -33.5t110 -75t36 -71t0.5 -28.5q0 -49 -23 -91.5t-66 -71.5t-96 -29q-22 0 -52 7t-58.5 22t-51.5 39.5t-32 59.5l-85 -21q12 -49 39.5 -85.5t65 -61t81.5 -36.5t90 -12
q53 0 103.5 16t91 47t66.5 78t30 108q1 10 1 20q0 36 -9 69q25 -28 64 -46.5t84 -31t90.5 -21.5t82.5 -19t60 -24t23 -36q0 -18 -14 -31.5t-38 -22.5t-55 -13.5t-65 -4.5q-59 0 -118 17t-102 56l-36 -81q46 -32 112 -53.5t138 -21.5zM908 717h-250v-557h250v92h-153v141h126
v91h-126v141h153v92zM649 160q-8 90 -31 162q-10 31 -24.5 61t-34 54t-45 39.5t-58.5 18.5l149 222h-114l-188 -288q-2 -2 -2.5 -3.5t-1.5 -1.5v293h-101v-557h95q2 71 17 127q6 24 15 46.5t22.5 40t31.5 28.5t42 11q21 0 37.5 -11t29.5 -28.5t22 -40t16 -46.5
q15 -56 21 -127h102z" />
    <glyph glyph-name="Adieresis" unicode="&#xc4;" 
d="M2317 1466v-1466h-2280v1466h2280zM198 749h94v95q6 64 24 132.5t53 125.5t88.5 93.5t130.5 36.5q63 0 100.5 -12.5t56.5 -26.5q41 -28 41 -67q0 -18 -10.5 -35.5t-31.5 -31.5t-51.5 -22.5t-71.5 -8.5q-101 0 -172 46l-92 -69q1 -2 1 -3t1 -2q18 -37 48.5 -83t73 -86.5
t99 -68t127.5 -27.5q39 0 83 15.5t84 42.5l-50 72q-28 -19 -60 -30.5t-57 -11.5q-38 0 -71 12t-60.5 31.5t-50.5 44t-41 50.5q63 -20 137 -20q88 0 145 29.5t84 74.5l-2 -83q2 0 15 -0.5t33 -0.5q2 -8 10 -28t23 -45t38.5 -52t57 -49.5t77.5 -37t100 -14.5q67 0 133 30
t121 99l-65 60q-42 -54 -91 -77.5t-98 -23.5q-33 0 -66 9.5t-61.5 27.5t-51 43.5t-35.5 56.5q32 0 58.5 -0.5t43.5 -0.5t41.5 0.5t55 2t53.5 3.5h6q21 2 58 7t72 21t61 48t26 87q0 34 -18 68.5t-50.5 62.5t-76 44.5t-93.5 16.5h-11q-67 -2 -123.5 -25.5t-99 -61.5t-68.5 -86
t-32 -98q-14 1 -24 1h-14q20 37 20 76q0 40 -20 76.5t-58 62.5q-78 55 -207 55q-96 0 -170 -44.5t-126 -131.5v161h-94v-556zM2178 984q1 13 1 25q0 56 -21.5 104t-63 85t-98.5 60.5t-119.5 36.5t-126.5 18t-122 5q-62 0 -110 -3.5t-74 -6.5v-95q28 3 78 7t99 4l-214 -475
h109l214 473q93 -2 158.5 -20t106.5 -46.5t60 -64.5t20 -57t1 -25q0 -32 -13 -65t-38.5 -60.5t-60 -44.5t-73.5 -17q-22 0 -52 7t-58.5 22t-51.5 39.5t-32 60.5l-85 -22q12 -49 39.5 -85.5t65 -60.5t81.5 -36t89 -12q53 0 103.5 15.5t91 47t66.5 78t30 108.5zM1233 1053
q-23 -2 -53.5 -3t-64 -1.5t-69 -0.5h-67.5q8 41 31 74.5t56 57.5t73 37.5t80 13.5q37 0 71 -12.5t61 -38.5q24 -24 24 -52q0 -18 -7 -30.5t-23 -21.5t-42.5 -14.5t-64.5 -8.5h-5zM1898 151q66 0 116 13t83.5 35.5t51 52t17.5 63.5q0 46 -32 74t-80.5 46t-105 29t-105 24
t-80.5 30.5t-32 47.5q0 14 9 28.5t29 26.5t51.5 19.5t75.5 7.5q48 0 101.5 -14.5t100.5 -54.5l37 83q-21 15 -48.5 27.5t-59 21.5t-64.5 14t-66 5q-69 0 -117.5 -13t-79 -35t-44.5 -52t-14 -64q0 -3 0.5 -6t0.5 -7q-34 55 -93.5 89.5t-130.5 53.5t-146.5 26t-142.5 7
q-62 0 -110 -3.5t-74 -6.5v-95q14 2 34 3.5t43.5 3.5t49 3t49.5 1l-214 -475h110l213 474q125 -3 199.5 -33.5t110 -75t36 -71t0.5 -28.5q0 -49 -23 -91.5t-66 -71.5t-96 -29q-22 0 -52 7t-58.5 22t-51.5 39.5t-32 59.5l-85 -21q12 -49 39.5 -85.5t65 -61t81.5 -36.5t90 -12
q53 0 103.5 16t91 47t66.5 78t30 108q1 10 1 20q0 36 -9 69q25 -28 64 -46.5t84 -31t90.5 -21.5t82.5 -19t60 -24t23 -36q0 -18 -14 -31.5t-38 -22.5t-55 -13.5t-65 -4.5q-59 0 -118 17t-102 56l-36 -81q46 -32 112 -53.5t138 -21.5zM908 717h-250v-557h250v92h-153v141h126
v91h-126v141h153v92zM649 160q-8 90 -31 162q-10 31 -24.5 61t-34 54t-45 39.5t-58.5 18.5l149 222h-114l-188 -288q-2 -2 -2.5 -3.5t-1.5 -1.5v293h-101v-557h95q2 71 17 127q6 24 15 46.5t22.5 40t31.5 28.5t42 11q21 0 37.5 -11t29.5 -28.5t22 -40t16 -46.5
q15 -56 21 -127h102z" />
    <glyph glyph-name="Aring" unicode="&#xc5;" 
d="M2317 1466v-1466h-2280v1466h2280zM198 749h94v95q6 64 24 132.5t53 125.5t88.5 93.5t130.5 36.5q63 0 100.5 -12.5t56.5 -26.5q41 -28 41 -67q0 -18 -10.5 -35.5t-31.5 -31.5t-51.5 -22.5t-71.5 -8.5q-101 0 -172 46l-92 -69q1 -2 1 -3t1 -2q18 -37 48.5 -83t73 -86.5
t99 -68t127.5 -27.5q39 0 83 15.5t84 42.5l-50 72q-28 -19 -60 -30.5t-57 -11.5q-38 0 -71 12t-60.5 31.5t-50.5 44t-41 50.5q63 -20 137 -20q88 0 145 29.5t84 74.5l-2 -83q2 0 15 -0.5t33 -0.5q2 -8 10 -28t23 -45t38.5 -52t57 -49.5t77.5 -37t100 -14.5q67 0 133 30
t121 99l-65 60q-42 -54 -91 -77.5t-98 -23.5q-33 0 -66 9.5t-61.5 27.5t-51 43.5t-35.5 56.5q32 0 58.5 -0.5t43.5 -0.5t41.5 0.5t55 2t53.5 3.5h6q21 2 58 7t72 21t61 48t26 87q0 34 -18 68.5t-50.5 62.5t-76 44.5t-93.5 16.5h-11q-67 -2 -123.5 -25.5t-99 -61.5t-68.5 -86
t-32 -98q-14 1 -24 1h-14q20 37 20 76q0 40 -20 76.5t-58 62.5q-78 55 -207 55q-96 0 -170 -44.5t-126 -131.5v161h-94v-556zM2178 984q1 13 1 25q0 56 -21.5 104t-63 85t-98.5 60.5t-119.5 36.5t-126.5 18t-122 5q-62 0 -110 -3.5t-74 -6.5v-95q28 3 78 7t99 4l-214 -475
h109l214 473q93 -2 158.5 -20t106.5 -46.5t60 -64.5t20 -57t1 -25q0 -32 -13 -65t-38.5 -60.5t-60 -44.5t-73.5 -17q-22 0 -52 7t-58.5 22t-51.5 39.5t-32 60.5l-85 -22q12 -49 39.5 -85.5t65 -60.5t81.5 -36t89 -12q53 0 103.5 15.5t91 47t66.5 78t30 108.5zM1233 1053
q-23 -2 -53.5 -3t-64 -1.5t-69 -0.5h-67.5q8 41 31 74.5t56 57.5t73 37.5t80 13.5q37 0 71 -12.5t61 -38.5q24 -24 24 -52q0 -18 -7 -30.5t-23 -21.5t-42.5 -14.5t-64.5 -8.5h-5zM1898 151q66 0 116 13t83.5 35.5t51 52t17.5 63.5q0 46 -32 74t-80.5 46t-105 29t-105 24
t-80.5 30.5t-32 47.5q0 14 9 28.5t29 26.5t51.5 19.5t75.5 7.5q48 0 101.5 -14.5t100.5 -54.5l37 83q-21 15 -48.5 27.5t-59 21.5t-64.5 14t-66 5q-69 0 -117.5 -13t-79 -35t-44.5 -52t-14 -64q0 -3 0.5 -6t0.5 -7q-34 55 -93.5 89.5t-130.5 53.5t-146.5 26t-142.5 7
q-62 0 -110 -3.5t-74 -6.5v-95q14 2 34 3.5t43.5 3.5t49 3t49.5 1l-214 -475h110l213 474q125 -3 199.5 -33.5t110 -75t36 -71t0.5 -28.5q0 -49 -23 -91.5t-66 -71.5t-96 -29q-22 0 -52 7t-58.5 22t-51.5 39.5t-32 59.5l-85 -21q12 -49 39.5 -85.5t65 -61t81.5 -36.5t90 -12
q53 0 103.5 16t91 47t66.5 78t30 108q1 10 1 20q0 36 -9 69q25 -28 64 -46.5t84 -31t90.5 -21.5t82.5 -19t60 -24t23 -36q0 -18 -14 -31.5t-38 -22.5t-55 -13.5t-65 -4.5q-59 0 -118 17t-102 56l-36 -81q46 -32 112 -53.5t138 -21.5zM908 717h-250v-557h250v92h-153v141h126
v91h-126v141h153v92zM649 160q-8 90 -31 162q-10 31 -24.5 61t-34 54t-45 39.5t-58.5 18.5l149 222h-114l-188 -288q-2 -2 -2.5 -3.5t-1.5 -1.5v293h-101v-557h95q2 71 17 127q6 24 15 46.5t22.5 40t31.5 28.5t42 11q21 0 37.5 -11t29.5 -28.5t22 -40t16 -46.5
q15 -56 21 -127h102z" />
    <glyph glyph-name="AE" unicode="&#xc6;" 
d="M2317 1466v-1466h-2280v1466h2280zM198 749h94v95q6 64 24 132.5t53 125.5t88.5 93.5t130.5 36.5q63 0 100.5 -12.5t56.5 -26.5q41 -28 41 -67q0 -18 -10.5 -35.5t-31.5 -31.5t-51.5 -22.5t-71.5 -8.5q-101 0 -172 46l-92 -69q1 -2 1 -3t1 -2q18 -37 48.5 -83t73 -86.5
t99 -68t127.5 -27.5q39 0 83 15.5t84 42.5l-50 72q-28 -19 -60 -30.5t-57 -11.5q-38 0 -71 12t-60.5 31.5t-50.5 44t-41 50.5q63 -20 137 -20q88 0 145 29.5t84 74.5l-2 -83q2 0 15 -0.5t33 -0.5q2 -8 10 -28t23 -45t38.5 -52t57 -49.5t77.5 -37t100 -14.5q67 0 133 30
t121 99l-65 60q-42 -54 -91 -77.5t-98 -23.5q-33 0 -66 9.5t-61.5 27.5t-51 43.5t-35.5 56.5q32 0 58.5 -0.5t43.5 -0.5t41.5 0.5t55 2t53.5 3.5h6q21 2 58 7t72 21t61 48t26 87q0 34 -18 68.5t-50.5 62.5t-76 44.5t-93.5 16.5h-11q-67 -2 -123.5 -25.5t-99 -61.5t-68.5 -86
t-32 -98q-14 1 -24 1h-14q20 37 20 76q0 40 -20 76.5t-58 62.5q-78 55 -207 55q-96 0 -170 -44.5t-126 -131.5v161h-94v-556zM2178 984q1 13 1 25q0 56 -21.5 104t-63 85t-98.5 60.5t-119.5 36.5t-126.5 18t-122 5q-62 0 -110 -3.5t-74 -6.5v-95q28 3 78 7t99 4l-214 -475
h109l214 473q93 -2 158.5 -20t106.5 -46.5t60 -64.5t20 -57t1 -25q0 -32 -13 -65t-38.5 -60.5t-60 -44.5t-73.5 -17q-22 0 -52 7t-58.5 22t-51.5 39.5t-32 60.5l-85 -22q12 -49 39.5 -85.5t65 -60.5t81.5 -36t89 -12q53 0 103.5 15.5t91 47t66.5 78t30 108.5zM1233 1053
q-23 -2 -53.5 -3t-64 -1.5t-69 -0.5h-67.5q8 41 31 74.5t56 57.5t73 37.5t80 13.5q37 0 71 -12.5t61 -38.5q24 -24 24 -52q0 -18 -7 -30.5t-23 -21.5t-42.5 -14.5t-64.5 -8.5h-5zM1898 151q66 0 116 13t83.5 35.5t51 52t17.5 63.5q0 46 -32 74t-80.5 46t-105 29t-105 24
t-80.5 30.5t-32 47.5q0 14 9 28.5t29 26.5t51.5 19.5t75.5 7.5q48 0 101.5 -14.5t100.5 -54.5l37 83q-21 15 -48.5 27.5t-59 21.5t-64.5 14t-66 5q-69 0 -117.5 -13t-79 -35t-44.5 -52t-14 -64q0 -3 0.5 -6t0.5 -7q-34 55 -93.5 89.5t-130.5 53.5t-146.5 26t-142.5 7
q-62 0 -110 -3.5t-74 -6.5v-95q14 2 34 3.5t43.5 3.5t49 3t49.5 1l-214 -475h110l213 474q125 -3 199.5 -33.5t110 -75t36 -71t0.5 -28.5q0 -49 -23 -91.5t-66 -71.5t-96 -29q-22 0 -52 7t-58.5 22t-51.5 39.5t-32 59.5l-85 -21q12 -49 39.5 -85.5t65 -61t81.5 -36.5t90 -12
q53 0 103.5 16t91 47t66.5 78t30 108q1 10 1 20q0 36 -9 69q25 -28 64 -46.5t84 -31t90.5 -21.5t82.5 -19t60 -24t23 -36q0 -18 -14 -31.5t-38 -22.5t-55 -13.5t-65 -4.5q-59 0 -118 17t-102 56l-36 -81q46 -32 112 -53.5t138 -21.5zM908 717h-250v-557h250v92h-153v141h126
v91h-126v141h153v92zM649 160q-8 90 -31 162q-10 31 -24.5 61t-34 54t-45 39.5t-58.5 18.5l149 222h-114l-188 -288q-2 -2 -2.5 -3.5t-1.5 -1.5v293h-101v-557h95q2 71 17 127q6 24 15 46.5t22.5 40t31.5 28.5t42 11q21 0 37.5 -11t29.5 -28.5t22 -40t16 -46.5
q15 -56 21 -127h102z" />
    <glyph glyph-name="Ccedilla" unicode="&#xc7;" 
d="M2317 1466v-1466h-2280v1466h2280zM198 749h94v95q6 64 24 132.5t53 125.5t88.5 93.5t130.5 36.5q63 0 100.5 -12.5t56.5 -26.5q41 -28 41 -67q0 -18 -10.5 -35.5t-31.5 -31.5t-51.5 -22.5t-71.5 -8.5q-101 0 -172 46l-92 -69q1 -2 1 -3t1 -2q18 -37 48.5 -83t73 -86.5
t99 -68t127.5 -27.5q39 0 83 15.5t84 42.5l-50 72q-28 -19 -60 -30.5t-57 -11.5q-38 0 -71 12t-60.5 31.5t-50.5 44t-41 50.5q63 -20 137 -20q88 0 145 29.5t84 74.5l-2 -83q2 0 15 -0.5t33 -0.5q2 -8 10 -28t23 -45t38.5 -52t57 -49.5t77.5 -37t100 -14.5q67 0 133 30
t121 99l-65 60q-42 -54 -91 -77.5t-98 -23.5q-33 0 -66 9.5t-61.5 27.5t-51 43.5t-35.5 56.5q32 0 58.5 -0.5t43.5 -0.5t41.5 0.5t55 2t53.5 3.5h6q21 2 58 7t72 21t61 48t26 87q0 34 -18 68.5t-50.5 62.5t-76 44.5t-93.5 16.5h-11q-67 -2 -123.5 -25.5t-99 -61.5t-68.5 -86
t-32 -98q-14 1 -24 1h-14q20 37 20 76q0 40 -20 76.5t-58 62.5q-78 55 -207 55q-96 0 -170 -44.5t-126 -131.5v161h-94v-556zM2178 984q1 13 1 25q0 56 -21.5 104t-63 85t-98.5 60.5t-119.5 36.5t-126.5 18t-122 5q-62 0 -110 -3.5t-74 -6.5v-95q28 3 78 7t99 4l-214 -475
h109l214 473q93 -2 158.5 -20t106.5 -46.5t60 -64.5t20 -57t1 -25q0 -32 -13 -65t-38.5 -60.5t-60 -44.5t-73.5 -17q-22 0 -52 7t-58.5 22t-51.5 39.5t-32 60.5l-85 -22q12 -49 39.5 -85.5t65 -60.5t81.5 -36t89 -12q53 0 103.5 15.5t91 47t66.5 78t30 108.5zM1233 1053
q-23 -2 -53.5 -3t-64 -1.5t-69 -0.5h-67.5q8 41 31 74.5t56 57.5t73 37.5t80 13.5q37 0 71 -12.5t61 -38.5q24 -24 24 -52q0 -18 -7 -30.5t-23 -21.5t-42.5 -14.5t-64.5 -8.5h-5zM1898 151q66 0 116 13t83.5 35.5t51 52t17.5 63.5q0 46 -32 74t-80.5 46t-105 29t-105 24
t-80.5 30.5t-32 47.5q0 14 9 28.5t29 26.5t51.5 19.5t75.5 7.5q48 0 101.5 -14.5t100.5 -54.5l37 83q-21 15 -48.5 27.5t-59 21.5t-64.5 14t-66 5q-69 0 -117.5 -13t-79 -35t-44.5 -52t-14 -64q0 -3 0.5 -6t0.5 -7q-34 55 -93.5 89.5t-130.5 53.5t-146.5 26t-142.5 7
q-62 0 -110 -3.5t-74 -6.5v-95q14 2 34 3.5t43.5 3.5t49 3t49.5 1l-214 -475h110l213 474q125 -3 199.5 -33.5t110 -75t36 -71t0.5 -28.5q0 -49 -23 -91.5t-66 -71.5t-96 -29q-22 0 -52 7t-58.5 22t-51.5 39.5t-32 59.5l-85 -21q12 -49 39.5 -85.5t65 -61t81.5 -36.5t90 -12
q53 0 103.5 16t91 47t66.5 78t30 108q1 10 1 20q0 36 -9 69q25 -28 64 -46.5t84 -31t90.5 -21.5t82.5 -19t60 -24t23 -36q0 -18 -14 -31.5t-38 -22.5t-55 -13.5t-65 -4.5q-59 0 -118 17t-102 56l-36 -81q46 -32 112 -53.5t138 -21.5zM908 717h-250v-557h250v92h-153v141h126
v91h-126v141h153v92zM649 160q-8 90 -31 162q-10 31 -24.5 61t-34 54t-45 39.5t-58.5 18.5l149 222h-114l-188 -288q-2 -2 -2.5 -3.5t-1.5 -1.5v293h-101v-557h95q2 71 17 127q6 24 15 46.5t22.5 40t31.5 28.5t42 11q21 0 37.5 -11t29.5 -28.5t22 -40t16 -46.5
q15 -56 21 -127h102z" />
    <glyph glyph-name="Egrave" unicode="&#xc8;" 
d="M2317 1466v-1466h-2280v1466h2280zM198 749h94v95q6 64 24 132.5t53 125.5t88.5 93.5t130.5 36.5q63 0 100.5 -12.5t56.5 -26.5q41 -28 41 -67q0 -18 -10.5 -35.5t-31.5 -31.5t-51.5 -22.5t-71.5 -8.5q-101 0 -172 46l-92 -69q1 -2 1 -3t1 -2q18 -37 48.5 -83t73 -86.5
t99 -68t127.5 -27.5q39 0 83 15.5t84 42.5l-50 72q-28 -19 -60 -30.5t-57 -11.5q-38 0 -71 12t-60.5 31.5t-50.5 44t-41 50.5q63 -20 137 -20q88 0 145 29.5t84 74.5l-2 -83q2 0 15 -0.5t33 -0.5q2 -8 10 -28t23 -45t38.5 -52t57 -49.5t77.5 -37t100 -14.5q67 0 133 30
t121 99l-65 60q-42 -54 -91 -77.5t-98 -23.5q-33 0 -66 9.5t-61.5 27.5t-51 43.5t-35.5 56.5q32 0 58.5 -0.5t43.5 -0.5t41.5 0.5t55 2t53.5 3.5h6q21 2 58 7t72 21t61 48t26 87q0 34 -18 68.5t-50.5 62.5t-76 44.5t-93.5 16.5h-11q-67 -2 -123.5 -25.5t-99 -61.5t-68.5 -86
t-32 -98q-14 1 -24 1h-14q20 37 20 76q0 40 -20 76.5t-58 62.5q-78 55 -207 55q-96 0 -170 -44.5t-126 -131.5v161h-94v-556zM2178 984q1 13 1 25q0 56 -21.5 104t-63 85t-98.5 60.5t-119.5 36.5t-126.5 18t-122 5q-62 0 -110 -3.5t-74 -6.5v-95q28 3 78 7t99 4l-214 -475
h109l214 473q93 -2 158.5 -20t106.5 -46.5t60 -64.5t20 -57t1 -25q0 -32 -13 -65t-38.5 -60.5t-60 -44.5t-73.5 -17q-22 0 -52 7t-58.5 22t-51.5 39.5t-32 60.5l-85 -22q12 -49 39.5 -85.5t65 -60.5t81.5 -36t89 -12q53 0 103.5 15.5t91 47t66.5 78t30 108.5zM1233 1053
q-23 -2 -53.5 -3t-64 -1.5t-69 -0.5h-67.5q8 41 31 74.5t56 57.5t73 37.5t80 13.5q37 0 71 -12.5t61 -38.5q24 -24 24 -52q0 -18 -7 -30.5t-23 -21.5t-42.5 -14.5t-64.5 -8.5h-5zM1898 151q66 0 116 13t83.5 35.5t51 52t17.5 63.5q0 46 -32 74t-80.5 46t-105 29t-105 24
t-80.5 30.5t-32 47.5q0 14 9 28.5t29 26.5t51.5 19.5t75.5 7.5q48 0 101.5 -14.5t100.5 -54.5l37 83q-21 15 -48.5 27.5t-59 21.5t-64.5 14t-66 5q-69 0 -117.5 -13t-79 -35t-44.5 -52t-14 -64q0 -3 0.5 -6t0.5 -7q-34 55 -93.5 89.5t-130.5 53.5t-146.5 26t-142.5 7
q-62 0 -110 -3.5t-74 -6.5v-95q14 2 34 3.5t43.5 3.5t49 3t49.5 1l-214 -475h110l213 474q125 -3 199.5 -33.5t110 -75t36 -71t0.5 -28.5q0 -49 -23 -91.5t-66 -71.5t-96 -29q-22 0 -52 7t-58.5 22t-51.5 39.5t-32 59.5l-85 -21q12 -49 39.5 -85.5t65 -61t81.5 -36.5t90 -12
q53 0 103.5 16t91 47t66.5 78t30 108q1 10 1 20q0 36 -9 69q25 -28 64 -46.5t84 -31t90.5 -21.5t82.5 -19t60 -24t23 -36q0 -18 -14 -31.5t-38 -22.5t-55 -13.5t-65 -4.5q-59 0 -118 17t-102 56l-36 -81q46 -32 112 -53.5t138 -21.5zM908 717h-250v-557h250v92h-153v141h126
v91h-126v141h153v92zM649 160q-8 90 -31 162q-10 31 -24.5 61t-34 54t-45 39.5t-58.5 18.5l149 222h-114l-188 -288q-2 -2 -2.5 -3.5t-1.5 -1.5v293h-101v-557h95q2 71 17 127q6 24 15 46.5t22.5 40t31.5 28.5t42 11q21 0 37.5 -11t29.5 -28.5t22 -40t16 -46.5
q15 -56 21 -127h102z" />
    <glyph glyph-name="Eacute" unicode="&#xc9;" 
d="M2317 1466v-1466h-2280v1466h2280zM198 749h94v95q6 64 24 132.5t53 125.5t88.5 93.5t130.5 36.5q63 0 100.5 -12.5t56.5 -26.5q41 -28 41 -67q0 -18 -10.5 -35.5t-31.5 -31.5t-51.5 -22.5t-71.5 -8.5q-101 0 -172 46l-92 -69q1 -2 1 -3t1 -2q18 -37 48.5 -83t73 -86.5
t99 -68t127.5 -27.5q39 0 83 15.5t84 42.5l-50 72q-28 -19 -60 -30.5t-57 -11.5q-38 0 -71 12t-60.5 31.5t-50.5 44t-41 50.5q63 -20 137 -20q88 0 145 29.5t84 74.5l-2 -83q2 0 15 -0.5t33 -0.5q2 -8 10 -28t23 -45t38.5 -52t57 -49.5t77.5 -37t100 -14.5q67 0 133 30
t121 99l-65 60q-42 -54 -91 -77.5t-98 -23.5q-33 0 -66 9.5t-61.5 27.5t-51 43.5t-35.5 56.5q32 0 58.5 -0.5t43.5 -0.5t41.5 0.5t55 2t53.5 3.5h6q21 2 58 7t72 21t61 48t26 87q0 34 -18 68.5t-50.5 62.5t-76 44.5t-93.5 16.5h-11q-67 -2 -123.5 -25.5t-99 -61.5t-68.5 -86
t-32 -98q-14 1 -24 1h-14q20 37 20 76q0 40 -20 76.5t-58 62.5q-78 55 -207 55q-96 0 -170 -44.5t-126 -131.5v161h-94v-556zM2178 984q1 13 1 25q0 56 -21.5 104t-63 85t-98.5 60.5t-119.5 36.5t-126.5 18t-122 5q-62 0 -110 -3.5t-74 -6.5v-95q28 3 78 7t99 4l-214 -475
h109l214 473q93 -2 158.5 -20t106.5 -46.5t60 -64.5t20 -57t1 -25q0 -32 -13 -65t-38.5 -60.5t-60 -44.5t-73.5 -17q-22 0 -52 7t-58.5 22t-51.5 39.5t-32 60.5l-85 -22q12 -49 39.5 -85.5t65 -60.5t81.5 -36t89 -12q53 0 103.5 15.5t91 47t66.5 78t30 108.5zM1233 1053
q-23 -2 -53.5 -3t-64 -1.5t-69 -0.5h-67.5q8 41 31 74.5t56 57.5t73 37.5t80 13.5q37 0 71 -12.5t61 -38.5q24 -24 24 -52q0 -18 -7 -30.5t-23 -21.5t-42.5 -14.5t-64.5 -8.5h-5zM1898 151q66 0 116 13t83.5 35.5t51 52t17.5 63.5q0 46 -32 74t-80.5 46t-105 29t-105 24
t-80.5 30.5t-32 47.5q0 14 9 28.5t29 26.5t51.5 19.5t75.5 7.5q48 0 101.5 -14.5t100.5 -54.5l37 83q-21 15 -48.5 27.5t-59 21.5t-64.5 14t-66 5q-69 0 -117.5 -13t-79 -35t-44.5 -52t-14 -64q0 -3 0.5 -6t0.5 -7q-34 55 -93.5 89.5t-130.5 53.5t-146.5 26t-142.5 7
q-62 0 -110 -3.5t-74 -6.5v-95q14 2 34 3.5t43.5 3.5t49 3t49.5 1l-214 -475h110l213 474q125 -3 199.5 -33.5t110 -75t36 -71t0.5 -28.5q0 -49 -23 -91.5t-66 -71.5t-96 -29q-22 0 -52 7t-58.5 22t-51.5 39.5t-32 59.5l-85 -21q12 -49 39.5 -85.5t65 -61t81.5 -36.5t90 -12
q53 0 103.5 16t91 47t66.5 78t30 108q1 10 1 20q0 36 -9 69q25 -28 64 -46.5t84 -31t90.5 -21.5t82.5 -19t60 -24t23 -36q0 -18 -14 -31.5t-38 -22.5t-55 -13.5t-65 -4.5q-59 0 -118 17t-102 56l-36 -81q46 -32 112 -53.5t138 -21.5zM908 717h-250v-557h250v92h-153v141h126
v91h-126v141h153v92zM649 160q-8 90 -31 162q-10 31 -24.5 61t-34 54t-45 39.5t-58.5 18.5l149 222h-114l-188 -288q-2 -2 -2.5 -3.5t-1.5 -1.5v293h-101v-557h95q2 71 17 127q6 24 15 46.5t22.5 40t31.5 28.5t42 11q21 0 37.5 -11t29.5 -28.5t22 -40t16 -46.5
q15 -56 21 -127h102z" />
    <glyph glyph-name="Ecircumflex" unicode="&#xca;" 
d="M2317 1466v-1466h-2280v1466h2280zM198 749h94v95q6 64 24 132.5t53 125.5t88.5 93.5t130.5 36.5q63 0 100.5 -12.5t56.5 -26.5q41 -28 41 -67q0 -18 -10.5 -35.5t-31.5 -31.5t-51.5 -22.5t-71.5 -8.5q-101 0 -172 46l-92 -69q1 -2 1 -3t1 -2q18 -37 48.5 -83t73 -86.5
t99 -68t127.5 -27.5q39 0 83 15.5t84 42.5l-50 72q-28 -19 -60 -30.5t-57 -11.5q-38 0 -71 12t-60.5 31.5t-50.5 44t-41 50.5q63 -20 137 -20q88 0 145 29.5t84 74.5l-2 -83q2 0 15 -0.5t33 -0.5q2 -8 10 -28t23 -45t38.5 -52t57 -49.5t77.5 -37t100 -14.5q67 0 133 30
t121 99l-65 60q-42 -54 -91 -77.5t-98 -23.5q-33 0 -66 9.5t-61.5 27.5t-51 43.5t-35.5 56.5q32 0 58.5 -0.5t43.5 -0.5t41.5 0.5t55 2t53.5 3.5h6q21 2 58 7t72 21t61 48t26 87q0 34 -18 68.5t-50.5 62.5t-76 44.5t-93.5 16.5h-11q-67 -2 -123.5 -25.5t-99 -61.5t-68.5 -86
t-32 -98q-14 1 -24 1h-14q20 37 20 76q0 40 -20 76.5t-58 62.5q-78 55 -207 55q-96 0 -170 -44.5t-126 -131.5v161h-94v-556zM2178 984q1 13 1 25q0 56 -21.5 104t-63 85t-98.5 60.5t-119.5 36.5t-126.5 18t-122 5q-62 0 -110 -3.5t-74 -6.5v-95q28 3 78 7t99 4l-214 -475
h109l214 473q93 -2 158.5 -20t106.5 -46.5t60 -64.5t20 -57t1 -25q0 -32 -13 -65t-38.5 -60.5t-60 -44.5t-73.5 -17q-22 0 -52 7t-58.5 22t-51.5 39.5t-32 60.5l-85 -22q12 -49 39.5 -85.5t65 -60.5t81.5 -36t89 -12q53 0 103.5 15.5t91 47t66.5 78t30 108.5zM1233 1053
q-23 -2 -53.5 -3t-64 -1.5t-69 -0.5h-67.5q8 41 31 74.5t56 57.5t73 37.5t80 13.5q37 0 71 -12.5t61 -38.5q24 -24 24 -52q0 -18 -7 -30.5t-23 -21.5t-42.5 -14.5t-64.5 -8.5h-5zM1898 151q66 0 116 13t83.5 35.5t51 52t17.5 63.5q0 46 -32 74t-80.5 46t-105 29t-105 24
t-80.5 30.5t-32 47.5q0 14 9 28.5t29 26.5t51.5 19.5t75.5 7.5q48 0 101.5 -14.5t100.5 -54.5l37 83q-21 15 -48.5 27.5t-59 21.5t-64.5 14t-66 5q-69 0 -117.5 -13t-79 -35t-44.5 -52t-14 -64q0 -3 0.5 -6t0.5 -7q-34 55 -93.5 89.5t-130.5 53.5t-146.5 26t-142.5 7
q-62 0 -110 -3.5t-74 -6.5v-95q14 2 34 3.5t43.5 3.5t49 3t49.5 1l-214 -475h110l213 474q125 -3 199.5 -33.5t110 -75t36 -71t0.5 -28.5q0 -49 -23 -91.5t-66 -71.5t-96 -29q-22 0 -52 7t-58.5 22t-51.5 39.5t-32 59.5l-85 -21q12 -49 39.5 -85.5t65 -61t81.5 -36.5t90 -12
q53 0 103.5 16t91 47t66.5 78t30 108q1 10 1 20q0 36 -9 69q25 -28 64 -46.5t84 -31t90.5 -21.5t82.5 -19t60 -24t23 -36q0 -18 -14 -31.5t-38 -22.5t-55 -13.5t-65 -4.5q-59 0 -118 17t-102 56l-36 -81q46 -32 112 -53.5t138 -21.5zM908 717h-250v-557h250v92h-153v141h126
v91h-126v141h153v92zM649 160q-8 90 -31 162q-10 31 -24.5 61t-34 54t-45 39.5t-58.5 18.5l149 222h-114l-188 -288q-2 -2 -2.5 -3.5t-1.5 -1.5v293h-101v-557h95q2 71 17 127q6 24 15 46.5t22.5 40t31.5 28.5t42 11q21 0 37.5 -11t29.5 -28.5t22 -40t16 -46.5
q15 -56 21 -127h102z" />
    <glyph glyph-name="Edieresis" unicode="&#xcb;" 
d="M2317 1466v-1466h-2280v1466h2280zM198 749h94v95q6 64 24 132.5t53 125.5t88.5 93.5t130.5 36.5q63 0 100.5 -12.5t56.5 -26.5q41 -28 41 -67q0 -18 -10.5 -35.5t-31.5 -31.5t-51.5 -22.5t-71.5 -8.5q-101 0 -172 46l-92 -69q1 -2 1 -3t1 -2q18 -37 48.5 -83t73 -86.5
t99 -68t127.5 -27.5q39 0 83 15.5t84 42.5l-50 72q-28 -19 -60 -30.5t-57 -11.5q-38 0 -71 12t-60.5 31.5t-50.5 44t-41 50.5q63 -20 137 -20q88 0 145 29.5t84 74.5l-2 -83q2 0 15 -0.5t33 -0.5q2 -8 10 -28t23 -45t38.5 -52t57 -49.5t77.5 -37t100 -14.5q67 0 133 30
t121 99l-65 60q-42 -54 -91 -77.5t-98 -23.5q-33 0 -66 9.5t-61.5 27.5t-51 43.5t-35.5 56.5q32 0 58.5 -0.5t43.5 -0.5t41.5 0.5t55 2t53.5 3.5h6q21 2 58 7t72 21t61 48t26 87q0 34 -18 68.5t-50.5 62.5t-76 44.5t-93.5 16.5h-11q-67 -2 -123.5 -25.5t-99 -61.5t-68.5 -86
t-32 -98q-14 1 -24 1h-14q20 37 20 76q0 40 -20 76.5t-58 62.5q-78 55 -207 55q-96 0 -170 -44.5t-126 -131.5v161h-94v-556zM2178 984q1 13 1 25q0 56 -21.5 104t-63 85t-98.5 60.5t-119.5 36.5t-126.5 18t-122 5q-62 0 -110 -3.5t-74 -6.5v-95q28 3 78 7t99 4l-214 -475
h109l214 473q93 -2 158.5 -20t106.5 -46.5t60 -64.5t20 -57t1 -25q0 -32 -13 -65t-38.5 -60.5t-60 -44.5t-73.5 -17q-22 0 -52 7t-58.5 22t-51.5 39.5t-32 60.5l-85 -22q12 -49 39.5 -85.5t65 -60.5t81.5 -36t89 -12q53 0 103.5 15.5t91 47t66.5 78t30 108.5zM1233 1053
q-23 -2 -53.5 -3t-64 -1.5t-69 -0.5h-67.5q8 41 31 74.5t56 57.5t73 37.5t80 13.5q37 0 71 -12.5t61 -38.5q24 -24 24 -52q0 -18 -7 -30.5t-23 -21.5t-42.5 -14.5t-64.5 -8.5h-5zM1898 151q66 0 116 13t83.5 35.5t51 52t17.5 63.5q0 46 -32 74t-80.5 46t-105 29t-105 24
t-80.5 30.5t-32 47.5q0 14 9 28.5t29 26.5t51.5 19.5t75.5 7.5q48 0 101.5 -14.5t100.5 -54.5l37 83q-21 15 -48.5 27.5t-59 21.5t-64.5 14t-66 5q-69 0 -117.5 -13t-79 -35t-44.5 -52t-14 -64q0 -3 0.5 -6t0.5 -7q-34 55 -93.5 89.5t-130.5 53.5t-146.5 26t-142.5 7
q-62 0 -110 -3.5t-74 -6.5v-95q14 2 34 3.5t43.5 3.5t49 3t49.5 1l-214 -475h110l213 474q125 -3 199.5 -33.5t110 -75t36 -71t0.5 -28.5q0 -49 -23 -91.5t-66 -71.5t-96 -29q-22 0 -52 7t-58.5 22t-51.5 39.5t-32 59.5l-85 -21q12 -49 39.5 -85.5t65 -61t81.5 -36.5t90 -12
q53 0 103.5 16t91 47t66.5 78t30 108q1 10 1 20q0 36 -9 69q25 -28 64 -46.5t84 -31t90.5 -21.5t82.5 -19t60 -24t23 -36q0 -18 -14 -31.5t-38 -22.5t-55 -13.5t-65 -4.5q-59 0 -118 17t-102 56l-36 -81q46 -32 112 -53.5t138 -21.5zM908 717h-250v-557h250v92h-153v141h126
v91h-126v141h153v92zM649 160q-8 90 -31 162q-10 31 -24.5 61t-34 54t-45 39.5t-58.5 18.5l149 222h-114l-188 -288q-2 -2 -2.5 -3.5t-1.5 -1.5v293h-101v-557h95q2 71 17 127q6 24 15 46.5t22.5 40t31.5 28.5t42 11q21 0 37.5 -11t29.5 -28.5t22 -40t16 -46.5
q15 -56 21 -127h102z" />
    <glyph glyph-name="Igrave" unicode="&#xcc;" 
d="M2317 1466v-1466h-2280v1466h2280zM198 749h94v95q6 64 24 132.5t53 125.5t88.5 93.5t130.5 36.5q63 0 100.5 -12.5t56.5 -26.5q41 -28 41 -67q0 -18 -10.5 -35.5t-31.5 -31.5t-51.5 -22.5t-71.5 -8.5q-101 0 -172 46l-92 -69q1 -2 1 -3t1 -2q18 -37 48.5 -83t73 -86.5
t99 -68t127.5 -27.5q39 0 83 15.5t84 42.5l-50 72q-28 -19 -60 -30.5t-57 -11.5q-38 0 -71 12t-60.5 31.5t-50.5 44t-41 50.5q63 -20 137 -20q88 0 145 29.5t84 74.5l-2 -83q2 0 15 -0.5t33 -0.5q2 -8 10 -28t23 -45t38.5 -52t57 -49.5t77.5 -37t100 -14.5q67 0 133 30
t121 99l-65 60q-42 -54 -91 -77.5t-98 -23.5q-33 0 -66 9.5t-61.5 27.5t-51 43.5t-35.5 56.5q32 0 58.5 -0.5t43.5 -0.5t41.5 0.5t55 2t53.5 3.5h6q21 2 58 7t72 21t61 48t26 87q0 34 -18 68.5t-50.5 62.5t-76 44.5t-93.5 16.5h-11q-67 -2 -123.5 -25.5t-99 -61.5t-68.5 -86
t-32 -98q-14 1 -24 1h-14q20 37 20 76q0 40 -20 76.5t-58 62.5q-78 55 -207 55q-96 0 -170 -44.5t-126 -131.5v161h-94v-556zM2178 984q1 13 1 25q0 56 -21.5 104t-63 85t-98.5 60.5t-119.5 36.5t-126.5 18t-122 5q-62 0 -110 -3.5t-74 -6.5v-95q28 3 78 7t99 4l-214 -475
h109l214 473q93 -2 158.5 -20t106.5 -46.5t60 -64.5t20 -57t1 -25q0 -32 -13 -65t-38.5 -60.5t-60 -44.5t-73.5 -17q-22 0 -52 7t-58.5 22t-51.5 39.5t-32 60.5l-85 -22q12 -49 39.5 -85.5t65 -60.5t81.5 -36t89 -12q53 0 103.5 15.5t91 47t66.5 78t30 108.5zM1233 1053
q-23 -2 -53.5 -3t-64 -1.5t-69 -0.5h-67.5q8 41 31 74.5t56 57.5t73 37.5t80 13.5q37 0 71 -12.5t61 -38.5q24 -24 24 -52q0 -18 -7 -30.5t-23 -21.5t-42.5 -14.5t-64.5 -8.5h-5zM1898 151q66 0 116 13t83.5 35.5t51 52t17.5 63.5q0 46 -32 74t-80.5 46t-105 29t-105 24
t-80.5 30.5t-32 47.5q0 14 9 28.5t29 26.5t51.5 19.5t75.5 7.5q48 0 101.5 -14.5t100.5 -54.5l37 83q-21 15 -48.5 27.5t-59 21.5t-64.5 14t-66 5q-69 0 -117.5 -13t-79 -35t-44.5 -52t-14 -64q0 -3 0.5 -6t0.5 -7q-34 55 -93.5 89.5t-130.5 53.5t-146.5 26t-142.5 7
q-62 0 -110 -3.5t-74 -6.5v-95q14 2 34 3.5t43.5 3.5t49 3t49.5 1l-214 -475h110l213 474q125 -3 199.5 -33.5t110 -75t36 -71t0.5 -28.5q0 -49 -23 -91.5t-66 -71.5t-96 -29q-22 0 -52 7t-58.5 22t-51.5 39.5t-32 59.5l-85 -21q12 -49 39.5 -85.5t65 -61t81.5 -36.5t90 -12
q53 0 103.5 16t91 47t66.5 78t30 108q1 10 1 20q0 36 -9 69q25 -28 64 -46.5t84 -31t90.5 -21.5t82.5 -19t60 -24t23 -36q0 -18 -14 -31.5t-38 -22.5t-55 -13.5t-65 -4.5q-59 0 -118 17t-102 56l-36 -81q46 -32 112 -53.5t138 -21.5zM908 717h-250v-557h250v92h-153v141h126
v91h-126v141h153v92zM649 160q-8 90 -31 162q-10 31 -24.5 61t-34 54t-45 39.5t-58.5 18.5l149 222h-114l-188 -288q-2 -2 -2.5 -3.5t-1.5 -1.5v293h-101v-557h95q2 71 17 127q6 24 15 46.5t22.5 40t31.5 28.5t42 11q21 0 37.5 -11t29.5 -28.5t22 -40t16 -46.5
q15 -56 21 -127h102z" />
    <glyph glyph-name="Iacute" unicode="&#xcd;" 
d="M2317 1466v-1466h-2280v1466h2280zM198 749h94v95q6 64 24 132.5t53 125.5t88.5 93.5t130.5 36.5q63 0 100.5 -12.5t56.5 -26.5q41 -28 41 -67q0 -18 -10.5 -35.5t-31.5 -31.5t-51.5 -22.5t-71.5 -8.5q-101 0 -172 46l-92 -69q1 -2 1 -3t1 -2q18 -37 48.5 -83t73 -86.5
t99 -68t127.5 -27.5q39 0 83 15.5t84 42.5l-50 72q-28 -19 -60 -30.5t-57 -11.5q-38 0 -71 12t-60.5 31.5t-50.5 44t-41 50.5q63 -20 137 -20q88 0 145 29.5t84 74.5l-2 -83q2 0 15 -0.5t33 -0.5q2 -8 10 -28t23 -45t38.5 -52t57 -49.5t77.5 -37t100 -14.5q67 0 133 30
t121 99l-65 60q-42 -54 -91 -77.5t-98 -23.5q-33 0 -66 9.5t-61.5 27.5t-51 43.5t-35.5 56.5q32 0 58.5 -0.5t43.5 -0.5t41.5 0.5t55 2t53.5 3.5h6q21 2 58 7t72 21t61 48t26 87q0 34 -18 68.5t-50.5 62.5t-76 44.5t-93.5 16.5h-11q-67 -2 -123.5 -25.5t-99 -61.5t-68.5 -86
t-32 -98q-14 1 -24 1h-14q20 37 20 76q0 40 -20 76.5t-58 62.5q-78 55 -207 55q-96 0 -170 -44.5t-126 -131.5v161h-94v-556zM2178 984q1 13 1 25q0 56 -21.5 104t-63 85t-98.5 60.5t-119.5 36.5t-126.5 18t-122 5q-62 0 -110 -3.5t-74 -6.5v-95q28 3 78 7t99 4l-214 -475
h109l214 473q93 -2 158.5 -20t106.5 -46.5t60 -64.5t20 -57t1 -25q0 -32 -13 -65t-38.5 -60.5t-60 -44.5t-73.5 -17q-22 0 -52 7t-58.5 22t-51.5 39.5t-32 60.5l-85 -22q12 -49 39.5 -85.5t65 -60.5t81.5 -36t89 -12q53 0 103.5 15.5t91 47t66.5 78t30 108.5zM1233 1053
q-23 -2 -53.5 -3t-64 -1.5t-69 -0.5h-67.5q8 41 31 74.5t56 57.5t73 37.5t80 13.5q37 0 71 -12.5t61 -38.5q24 -24 24 -52q0 -18 -7 -30.5t-23 -21.5t-42.5 -14.5t-64.5 -8.5h-5zM1898 151q66 0 116 13t83.5 35.5t51 52t17.5 63.5q0 46 -32 74t-80.5 46t-105 29t-105 24
t-80.5 30.5t-32 47.5q0 14 9 28.5t29 26.5t51.5 19.5t75.5 7.5q48 0 101.5 -14.5t100.5 -54.5l37 83q-21 15 -48.5 27.5t-59 21.5t-64.5 14t-66 5q-69 0 -117.5 -13t-79 -35t-44.5 -52t-14 -64q0 -3 0.5 -6t0.5 -7q-34 55 -93.5 89.5t-130.5 53.5t-146.5 26t-142.5 7
q-62 0 -110 -3.5t-74 -6.5v-95q14 2 34 3.5t43.5 3.5t49 3t49.5 1l-214 -475h110l213 474q125 -3 199.5 -33.5t110 -75t36 -71t0.5 -28.5q0 -49 -23 -91.5t-66 -71.5t-96 -29q-22 0 -52 7t-58.5 22t-51.5 39.5t-32 59.5l-85 -21q12 -49 39.5 -85.5t65 -61t81.5 -36.5t90 -12
q53 0 103.5 16t91 47t66.5 78t30 108q1 10 1 20q0 36 -9 69q25 -28 64 -46.5t84 -31t90.5 -21.5t82.5 -19t60 -24t23 -36q0 -18 -14 -31.5t-38 -22.5t-55 -13.5t-65 -4.5q-59 0 -118 17t-102 56l-36 -81q46 -32 112 -53.5t138 -21.5zM908 717h-250v-557h250v92h-153v141h126
v91h-126v141h153v92zM649 160q-8 90 -31 162q-10 31 -24.5 61t-34 54t-45 39.5t-58.5 18.5l149 222h-114l-188 -288q-2 -2 -2.5 -3.5t-1.5 -1.5v293h-101v-557h95q2 71 17 127q6 24 15 46.5t22.5 40t31.5 28.5t42 11q21 0 37.5 -11t29.5 -28.5t22 -40t16 -46.5
q15 -56 21 -127h102z" />
    <glyph glyph-name="Icircumflex" unicode="&#xce;" 
d="M2317 1466v-1466h-2280v1466h2280zM198 749h94v95q6 64 24 132.5t53 125.5t88.5 93.5t130.5 36.5q63 0 100.5 -12.5t56.5 -26.5q41 -28 41 -67q0 -18 -10.5 -35.5t-31.5 -31.5t-51.5 -22.5t-71.5 -8.5q-101 0 -172 46l-92 -69q1 -2 1 -3t1 -2q18 -37 48.5 -83t73 -86.5
t99 -68t127.5 -27.5q39 0 83 15.5t84 42.5l-50 72q-28 -19 -60 -30.5t-57 -11.5q-38 0 -71 12t-60.5 31.5t-50.5 44t-41 50.5q63 -20 137 -20q88 0 145 29.5t84 74.5l-2 -83q2 0 15 -0.5t33 -0.5q2 -8 10 -28t23 -45t38.5 -52t57 -49.5t77.5 -37t100 -14.5q67 0 133 30
t121 99l-65 60q-42 -54 -91 -77.5t-98 -23.5q-33 0 -66 9.5t-61.5 27.5t-51 43.5t-35.5 56.5q32 0 58.5 -0.5t43.5 -0.5t41.5 0.5t55 2t53.5 3.5h6q21 2 58 7t72 21t61 48t26 87q0 34 -18 68.5t-50.5 62.5t-76 44.5t-93.5 16.5h-11q-67 -2 -123.5 -25.5t-99 -61.5t-68.5 -86
t-32 -98q-14 1 -24 1h-14q20 37 20 76q0 40 -20 76.5t-58 62.5q-78 55 -207 55q-96 0 -170 -44.5t-126 -131.5v161h-94v-556zM2178 984q1 13 1 25q0 56 -21.5 104t-63 85t-98.5 60.5t-119.5 36.5t-126.5 18t-122 5q-62 0 -110 -3.5t-74 -6.5v-95q28 3 78 7t99 4l-214 -475
h109l214 473q93 -2 158.5 -20t106.5 -46.5t60 -64.5t20 -57t1 -25q0 -32 -13 -65t-38.5 -60.5t-60 -44.5t-73.5 -17q-22 0 -52 7t-58.5 22t-51.5 39.5t-32 60.5l-85 -22q12 -49 39.5 -85.5t65 -60.5t81.5 -36t89 -12q53 0 103.5 15.5t91 47t66.5 78t30 108.5zM1233 1053
q-23 -2 -53.5 -3t-64 -1.5t-69 -0.5h-67.5q8 41 31 74.5t56 57.5t73 37.5t80 13.5q37 0 71 -12.5t61 -38.5q24 -24 24 -52q0 -18 -7 -30.5t-23 -21.5t-42.5 -14.5t-64.5 -8.5h-5zM1898 151q66 0 116 13t83.5 35.5t51 52t17.5 63.5q0 46 -32 74t-80.5 46t-105 29t-105 24
t-80.5 30.5t-32 47.5q0 14 9 28.5t29 26.5t51.5 19.5t75.5 7.5q48 0 101.5 -14.5t100.5 -54.5l37 83q-21 15 -48.5 27.5t-59 21.5t-64.5 14t-66 5q-69 0 -117.5 -13t-79 -35t-44.5 -52t-14 -64q0 -3 0.5 -6t0.5 -7q-34 55 -93.5 89.5t-130.5 53.5t-146.5 26t-142.5 7
q-62 0 -110 -3.5t-74 -6.5v-95q14 2 34 3.5t43.5 3.5t49 3t49.5 1l-214 -475h110l213 474q125 -3 199.5 -33.5t110 -75t36 -71t0.5 -28.5q0 -49 -23 -91.5t-66 -71.5t-96 -29q-22 0 -52 7t-58.5 22t-51.5 39.5t-32 59.5l-85 -21q12 -49 39.5 -85.5t65 -61t81.5 -36.5t90 -12
q53 0 103.5 16t91 47t66.5 78t30 108q1 10 1 20q0 36 -9 69q25 -28 64 -46.5t84 -31t90.5 -21.5t82.5 -19t60 -24t23 -36q0 -18 -14 -31.5t-38 -22.5t-55 -13.5t-65 -4.5q-59 0 -118 17t-102 56l-36 -81q46 -32 112 -53.5t138 -21.5zM908 717h-250v-557h250v92h-153v141h126
v91h-126v141h153v92zM649 160q-8 90 -31 162q-10 31 -24.5 61t-34 54t-45 39.5t-58.5 18.5l149 222h-114l-188 -288q-2 -2 -2.5 -3.5t-1.5 -1.5v293h-101v-557h95q2 71 17 127q6 24 15 46.5t22.5 40t31.5 28.5t42 11q21 0 37.5 -11t29.5 -28.5t22 -40t16 -46.5
q15 -56 21 -127h102z" />
    <glyph glyph-name="Idieresis" unicode="&#xcf;" 
d="M2317 1466v-1466h-2280v1466h2280zM198 749h94v95q6 64 24 132.5t53 125.5t88.5 93.5t130.5 36.5q63 0 100.5 -12.5t56.5 -26.5q41 -28 41 -67q0 -18 -10.5 -35.5t-31.5 -31.5t-51.5 -22.5t-71.5 -8.5q-101 0 -172 46l-92 -69q1 -2 1 -3t1 -2q18 -37 48.5 -83t73 -86.5
t99 -68t127.5 -27.5q39 0 83 15.5t84 42.5l-50 72q-28 -19 -60 -30.5t-57 -11.5q-38 0 -71 12t-60.5 31.5t-50.5 44t-41 50.5q63 -20 137 -20q88 0 145 29.5t84 74.5l-2 -83q2 0 15 -0.5t33 -0.5q2 -8 10 -28t23 -45t38.5 -52t57 -49.5t77.5 -37t100 -14.5q67 0 133 30
t121 99l-65 60q-42 -54 -91 -77.5t-98 -23.5q-33 0 -66 9.5t-61.5 27.5t-51 43.5t-35.5 56.5q32 0 58.5 -0.5t43.5 -0.5t41.5 0.5t55 2t53.5 3.5h6q21 2 58 7t72 21t61 48t26 87q0 34 -18 68.5t-50.5 62.5t-76 44.5t-93.5 16.5h-11q-67 -2 -123.5 -25.5t-99 -61.5t-68.5 -86
t-32 -98q-14 1 -24 1h-14q20 37 20 76q0 40 -20 76.5t-58 62.5q-78 55 -207 55q-96 0 -170 -44.5t-126 -131.5v161h-94v-556zM2178 984q1 13 1 25q0 56 -21.5 104t-63 85t-98.5 60.5t-119.5 36.5t-126.5 18t-122 5q-62 0 -110 -3.5t-74 -6.5v-95q28 3 78 7t99 4l-214 -475
h109l214 473q93 -2 158.5 -20t106.5 -46.5t60 -64.5t20 -57t1 -25q0 -32 -13 -65t-38.5 -60.5t-60 -44.5t-73.5 -17q-22 0 -52 7t-58.5 22t-51.5 39.5t-32 60.5l-85 -22q12 -49 39.5 -85.5t65 -60.5t81.5 -36t89 -12q53 0 103.5 15.5t91 47t66.5 78t30 108.5zM1233 1053
q-23 -2 -53.5 -3t-64 -1.5t-69 -0.5h-67.5q8 41 31 74.5t56 57.5t73 37.5t80 13.5q37 0 71 -12.5t61 -38.5q24 -24 24 -52q0 -18 -7 -30.5t-23 -21.5t-42.5 -14.5t-64.5 -8.5h-5zM1898 151q66 0 116 13t83.5 35.5t51 52t17.5 63.5q0 46 -32 74t-80.5 46t-105 29t-105 24
t-80.5 30.5t-32 47.5q0 14 9 28.5t29 26.5t51.5 19.5t75.5 7.5q48 0 101.5 -14.5t100.5 -54.5l37 83q-21 15 -48.5 27.5t-59 21.5t-64.5 14t-66 5q-69 0 -117.5 -13t-79 -35t-44.5 -52t-14 -64q0 -3 0.5 -6t0.5 -7q-34 55 -93.5 89.5t-130.5 53.5t-146.5 26t-142.5 7
q-62 0 -110 -3.5t-74 -6.5v-95q14 2 34 3.5t43.5 3.5t49 3t49.5 1l-214 -475h110l213 474q125 -3 199.5 -33.5t110 -75t36 -71t0.5 -28.5q0 -49 -23 -91.5t-66 -71.5t-96 -29q-22 0 -52 7t-58.5 22t-51.5 39.5t-32 59.5l-85 -21q12 -49 39.5 -85.5t65 -61t81.5 -36.5t90 -12
q53 0 103.5 16t91 47t66.5 78t30 108q1 10 1 20q0 36 -9 69q25 -28 64 -46.5t84 -31t90.5 -21.5t82.5 -19t60 -24t23 -36q0 -18 -14 -31.5t-38 -22.5t-55 -13.5t-65 -4.5q-59 0 -118 17t-102 56l-36 -81q46 -32 112 -53.5t138 -21.5zM908 717h-250v-557h250v92h-153v141h126
v91h-126v141h153v92zM649 160q-8 90 -31 162q-10 31 -24.5 61t-34 54t-45 39.5t-58.5 18.5l149 222h-114l-188 -288q-2 -2 -2.5 -3.5t-1.5 -1.5v293h-101v-557h95q2 71 17 127q6 24 15 46.5t22.5 40t31.5 28.5t42 11q21 0 37.5 -11t29.5 -28.5t22 -40t16 -46.5
q15 -56 21 -127h102z" />
    <glyph glyph-name="Eth" unicode="&#xd0;" 
d="M2317 1466v-1466h-2280v1466h2280zM198 749h94v95q6 64 24 132.5t53 125.5t88.5 93.5t130.5 36.5q63 0 100.5 -12.5t56.5 -26.5q41 -28 41 -67q0 -18 -10.5 -35.5t-31.5 -31.5t-51.5 -22.5t-71.5 -8.5q-101 0 -172 46l-92 -69q1 -2 1 -3t1 -2q18 -37 48.5 -83t73 -86.5
t99 -68t127.5 -27.5q39 0 83 15.5t84 42.5l-50 72q-28 -19 -60 -30.5t-57 -11.5q-38 0 -71 12t-60.5 31.5t-50.5 44t-41 50.5q63 -20 137 -20q88 0 145 29.5t84 74.5l-2 -83q2 0 15 -0.5t33 -0.5q2 -8 10 -28t23 -45t38.5 -52t57 -49.5t77.5 -37t100 -14.5q67 0 133 30
t121 99l-65 60q-42 -54 -91 -77.5t-98 -23.5q-33 0 -66 9.5t-61.5 27.5t-51 43.5t-35.5 56.5q32 0 58.5 -0.5t43.5 -0.5t41.5 0.5t55 2t53.5 3.5h6q21 2 58 7t72 21t61 48t26 87q0 34 -18 68.5t-50.5 62.5t-76 44.5t-93.5 16.5h-11q-67 -2 -123.5 -25.5t-99 -61.5t-68.5 -86
t-32 -98q-14 1 -24 1h-14q20 37 20 76q0 40 -20 76.5t-58 62.5q-78 55 -207 55q-96 0 -170 -44.5t-126 -131.5v161h-94v-556zM2178 984q1 13 1 25q0 56 -21.5 104t-63 85t-98.5 60.5t-119.5 36.5t-126.5 18t-122 5q-62 0 -110 -3.5t-74 -6.5v-95q28 3 78 7t99 4l-214 -475
h109l214 473q93 -2 158.5 -20t106.5 -46.5t60 -64.5t20 -57t1 -25q0 -32 -13 -65t-38.5 -60.5t-60 -44.5t-73.5 -17q-22 0 -52 7t-58.5 22t-51.5 39.5t-32 60.5l-85 -22q12 -49 39.5 -85.5t65 -60.5t81.5 -36t89 -12q53 0 103.5 15.5t91 47t66.5 78t30 108.5zM1233 1053
q-23 -2 -53.5 -3t-64 -1.5t-69 -0.5h-67.5q8 41 31 74.5t56 57.5t73 37.5t80 13.5q37 0 71 -12.5t61 -38.5q24 -24 24 -52q0 -18 -7 -30.5t-23 -21.5t-42.5 -14.5t-64.5 -8.5h-5zM1898 151q66 0 116 13t83.5 35.5t51 52t17.5 63.5q0 46 -32 74t-80.5 46t-105 29t-105 24
t-80.5 30.5t-32 47.5q0 14 9 28.5t29 26.5t51.5 19.5t75.5 7.5q48 0 101.5 -14.5t100.5 -54.5l37 83q-21 15 -48.5 27.5t-59 21.5t-64.5 14t-66 5q-69 0 -117.5 -13t-79 -35t-44.5 -52t-14 -64q0 -3 0.5 -6t0.5 -7q-34 55 -93.5 89.5t-130.5 53.5t-146.5 26t-142.5 7
q-62 0 -110 -3.5t-74 -6.5v-95q14 2 34 3.5t43.5 3.5t49 3t49.5 1l-214 -475h110l213 474q125 -3 199.5 -33.5t110 -75t36 -71t0.5 -28.5q0 -49 -23 -91.5t-66 -71.5t-96 -29q-22 0 -52 7t-58.5 22t-51.5 39.5t-32 59.5l-85 -21q12 -49 39.5 -85.5t65 -61t81.5 -36.5t90 -12
q53 0 103.5 16t91 47t66.5 78t30 108q1 10 1 20q0 36 -9 69q25 -28 64 -46.5t84 -31t90.5 -21.5t82.5 -19t60 -24t23 -36q0 -18 -14 -31.5t-38 -22.5t-55 -13.5t-65 -4.5q-59 0 -118 17t-102 56l-36 -81q46 -32 112 -53.5t138 -21.5zM908 717h-250v-557h250v92h-153v141h126
v91h-126v141h153v92zM649 160q-8 90 -31 162q-10 31 -24.5 61t-34 54t-45 39.5t-58.5 18.5l149 222h-114l-188 -288q-2 -2 -2.5 -3.5t-1.5 -1.5v293h-101v-557h95q2 71 17 127q6 24 15 46.5t22.5 40t31.5 28.5t42 11q21 0 37.5 -11t29.5 -28.5t22 -40t16 -46.5
q15 -56 21 -127h102z" />
    <glyph glyph-name="Ntilde" unicode="&#xd1;" 
d="M2317 1466v-1466h-2280v1466h2280zM198 749h94v95q6 64 24 132.5t53 125.5t88.5 93.5t130.5 36.5q63 0 100.5 -12.5t56.5 -26.5q41 -28 41 -67q0 -18 -10.5 -35.5t-31.5 -31.5t-51.5 -22.5t-71.5 -8.5q-101 0 -172 46l-92 -69q1 -2 1 -3t1 -2q18 -37 48.5 -83t73 -86.5
t99 -68t127.5 -27.5q39 0 83 15.5t84 42.5l-50 72q-28 -19 -60 -30.5t-57 -11.5q-38 0 -71 12t-60.5 31.5t-50.5 44t-41 50.5q63 -20 137 -20q88 0 145 29.5t84 74.5l-2 -83q2 0 15 -0.5t33 -0.5q2 -8 10 -28t23 -45t38.5 -52t57 -49.5t77.5 -37t100 -14.5q67 0 133 30
t121 99l-65 60q-42 -54 -91 -77.5t-98 -23.5q-33 0 -66 9.5t-61.5 27.5t-51 43.5t-35.5 56.5q32 0 58.5 -0.5t43.5 -0.5t41.5 0.5t55 2t53.5 3.5h6q21 2 58 7t72 21t61 48t26 87q0 34 -18 68.5t-50.5 62.5t-76 44.5t-93.5 16.5h-11q-67 -2 -123.5 -25.5t-99 -61.5t-68.5 -86
t-32 -98q-14 1 -24 1h-14q20 37 20 76q0 40 -20 76.5t-58 62.5q-78 55 -207 55q-96 0 -170 -44.5t-126 -131.5v161h-94v-556zM2178 984q1 13 1 25q0 56 -21.5 104t-63 85t-98.5 60.5t-119.5 36.5t-126.5 18t-122 5q-62 0 -110 -3.5t-74 -6.5v-95q28 3 78 7t99 4l-214 -475
h109l214 473q93 -2 158.5 -20t106.5 -46.5t60 -64.5t20 -57t1 -25q0 -32 -13 -65t-38.5 -60.5t-60 -44.5t-73.5 -17q-22 0 -52 7t-58.5 22t-51.5 39.5t-32 60.5l-85 -22q12 -49 39.5 -85.5t65 -60.5t81.5 -36t89 -12q53 0 103.5 15.5t91 47t66.5 78t30 108.5zM1233 1053
q-23 -2 -53.5 -3t-64 -1.5t-69 -0.5h-67.5q8 41 31 74.5t56 57.5t73 37.5t80 13.5q37 0 71 -12.5t61 -38.5q24 -24 24 -52q0 -18 -7 -30.5t-23 -21.5t-42.5 -14.5t-64.5 -8.5h-5zM1898 151q66 0 116 13t83.5 35.5t51 52t17.5 63.5q0 46 -32 74t-80.5 46t-105 29t-105 24
t-80.5 30.5t-32 47.5q0 14 9 28.5t29 26.5t51.5 19.5t75.5 7.5q48 0 101.5 -14.5t100.5 -54.5l37 83q-21 15 -48.5 27.5t-59 21.5t-64.5 14t-66 5q-69 0 -117.5 -13t-79 -35t-44.5 -52t-14 -64q0 -3 0.5 -6t0.5 -7q-34 55 -93.5 89.5t-130.5 53.5t-146.5 26t-142.5 7
q-62 0 -110 -3.5t-74 -6.5v-95q14 2 34 3.5t43.5 3.5t49 3t49.5 1l-214 -475h110l213 474q125 -3 199.5 -33.5t110 -75t36 -71t0.5 -28.5q0 -49 -23 -91.5t-66 -71.5t-96 -29q-22 0 -52 7t-58.5 22t-51.5 39.5t-32 59.5l-85 -21q12 -49 39.5 -85.5t65 -61t81.5 -36.5t90 -12
q53 0 103.5 16t91 47t66.5 78t30 108q1 10 1 20q0 36 -9 69q25 -28 64 -46.5t84 -31t90.5 -21.5t82.5 -19t60 -24t23 -36q0 -18 -14 -31.5t-38 -22.5t-55 -13.5t-65 -4.5q-59 0 -118 17t-102 56l-36 -81q46 -32 112 -53.5t138 -21.5zM908 717h-250v-557h250v92h-153v141h126
v91h-126v141h153v92zM649 160q-8 90 -31 162q-10 31 -24.5 61t-34 54t-45 39.5t-58.5 18.5l149 222h-114l-188 -288q-2 -2 -2.5 -3.5t-1.5 -1.5v293h-101v-557h95q2 71 17 127q6 24 15 46.5t22.5 40t31.5 28.5t42 11q21 0 37.5 -11t29.5 -28.5t22 -40t16 -46.5
q15 -56 21 -127h102z" />
    <glyph glyph-name="Ograve" unicode="&#xd2;" 
d="M2317 1466v-1466h-2280v1466h2280zM198 749h94v95q6 64 24 132.5t53 125.5t88.5 93.5t130.5 36.5q63 0 100.5 -12.5t56.5 -26.5q41 -28 41 -67q0 -18 -10.5 -35.5t-31.5 -31.5t-51.5 -22.5t-71.5 -8.5q-101 0 -172 46l-92 -69q1 -2 1 -3t1 -2q18 -37 48.5 -83t73 -86.5
t99 -68t127.5 -27.5q39 0 83 15.5t84 42.5l-50 72q-28 -19 -60 -30.5t-57 -11.5q-38 0 -71 12t-60.5 31.5t-50.5 44t-41 50.5q63 -20 137 -20q88 0 145 29.5t84 74.5l-2 -83q2 0 15 -0.5t33 -0.5q2 -8 10 -28t23 -45t38.5 -52t57 -49.5t77.5 -37t100 -14.5q67 0 133 30
t121 99l-65 60q-42 -54 -91 -77.5t-98 -23.5q-33 0 -66 9.5t-61.5 27.5t-51 43.5t-35.5 56.5q32 0 58.5 -0.5t43.5 -0.5t41.5 0.5t55 2t53.5 3.5h6q21 2 58 7t72 21t61 48t26 87q0 34 -18 68.5t-50.5 62.5t-76 44.5t-93.5 16.5h-11q-67 -2 -123.5 -25.5t-99 -61.5t-68.5 -86
t-32 -98q-14 1 -24 1h-14q20 37 20 76q0 40 -20 76.5t-58 62.5q-78 55 -207 55q-96 0 -170 -44.5t-126 -131.5v161h-94v-556zM2178 984q1 13 1 25q0 56 -21.5 104t-63 85t-98.5 60.5t-119.5 36.5t-126.5 18t-122 5q-62 0 -110 -3.5t-74 -6.5v-95q28 3 78 7t99 4l-214 -475
h109l214 473q93 -2 158.5 -20t106.5 -46.5t60 -64.5t20 -57t1 -25q0 -32 -13 -65t-38.5 -60.5t-60 -44.5t-73.5 -17q-22 0 -52 7t-58.5 22t-51.5 39.5t-32 60.5l-85 -22q12 -49 39.5 -85.5t65 -60.5t81.5 -36t89 -12q53 0 103.5 15.5t91 47t66.5 78t30 108.5zM1233 1053
q-23 -2 -53.5 -3t-64 -1.5t-69 -0.5h-67.5q8 41 31 74.5t56 57.5t73 37.5t80 13.5q37 0 71 -12.5t61 -38.5q24 -24 24 -52q0 -18 -7 -30.5t-23 -21.5t-42.5 -14.5t-64.5 -8.5h-5zM1898 151q66 0 116 13t83.5 35.5t51 52t17.5 63.5q0 46 -32 74t-80.5 46t-105 29t-105 24
t-80.5 30.5t-32 47.5q0 14 9 28.5t29 26.5t51.5 19.5t75.5 7.5q48 0 101.5 -14.5t100.5 -54.5l37 83q-21 15 -48.5 27.5t-59 21.5t-64.5 14t-66 5q-69 0 -117.5 -13t-79 -35t-44.5 -52t-14 -64q0 -3 0.5 -6t0.5 -7q-34 55 -93.5 89.5t-130.5 53.5t-146.5 26t-142.5 7
q-62 0 -110 -3.5t-74 -6.5v-95q14 2 34 3.5t43.5 3.5t49 3t49.5 1l-214 -475h110l213 474q125 -3 199.5 -33.5t110 -75t36 -71t0.5 -28.5q0 -49 -23 -91.5t-66 -71.5t-96 -29q-22 0 -52 7t-58.5 22t-51.5 39.5t-32 59.5l-85 -21q12 -49 39.5 -85.5t65 -61t81.5 -36.5t90 -12
q53 0 103.5 16t91 47t66.5 78t30 108q1 10 1 20q0 36 -9 69q25 -28 64 -46.5t84 -31t90.5 -21.5t82.5 -19t60 -24t23 -36q0 -18 -14 -31.5t-38 -22.5t-55 -13.5t-65 -4.5q-59 0 -118 17t-102 56l-36 -81q46 -32 112 -53.5t138 -21.5zM908 717h-250v-557h250v92h-153v141h126
v91h-126v141h153v92zM649 160q-8 90 -31 162q-10 31 -24.5 61t-34 54t-45 39.5t-58.5 18.5l149 222h-114l-188 -288q-2 -2 -2.5 -3.5t-1.5 -1.5v293h-101v-557h95q2 71 17 127q6 24 15 46.5t22.5 40t31.5 28.5t42 11q21 0 37.5 -11t29.5 -28.5t22 -40t16 -46.5
q15 -56 21 -127h102z" />
    <glyph glyph-name="Oacute" unicode="&#xd3;" 
d="M2317 1466v-1466h-2280v1466h2280zM198 749h94v95q6 64 24 132.5t53 125.5t88.5 93.5t130.5 36.5q63 0 100.5 -12.5t56.5 -26.5q41 -28 41 -67q0 -18 -10.5 -35.5t-31.5 -31.5t-51.5 -22.5t-71.5 -8.5q-101 0 -172 46l-92 -69q1 -2 1 -3t1 -2q18 -37 48.5 -83t73 -86.5
t99 -68t127.5 -27.5q39 0 83 15.5t84 42.5l-50 72q-28 -19 -60 -30.5t-57 -11.5q-38 0 -71 12t-60.5 31.5t-50.5 44t-41 50.5q63 -20 137 -20q88 0 145 29.5t84 74.5l-2 -83q2 0 15 -0.5t33 -0.5q2 -8 10 -28t23 -45t38.5 -52t57 -49.5t77.5 -37t100 -14.5q67 0 133 30
t121 99l-65 60q-42 -54 -91 -77.5t-98 -23.5q-33 0 -66 9.5t-61.5 27.5t-51 43.5t-35.5 56.5q32 0 58.5 -0.5t43.5 -0.5t41.5 0.5t55 2t53.5 3.5h6q21 2 58 7t72 21t61 48t26 87q0 34 -18 68.5t-50.5 62.5t-76 44.5t-93.5 16.5h-11q-67 -2 -123.5 -25.5t-99 -61.5t-68.5 -86
t-32 -98q-14 1 -24 1h-14q20 37 20 76q0 40 -20 76.5t-58 62.5q-78 55 -207 55q-96 0 -170 -44.5t-126 -131.5v161h-94v-556zM2178 984q1 13 1 25q0 56 -21.5 104t-63 85t-98.5 60.5t-119.5 36.5t-126.5 18t-122 5q-62 0 -110 -3.5t-74 -6.5v-95q28 3 78 7t99 4l-214 -475
h109l214 473q93 -2 158.5 -20t106.5 -46.5t60 -64.5t20 -57t1 -25q0 -32 -13 -65t-38.5 -60.5t-60 -44.5t-73.5 -17q-22 0 -52 7t-58.5 22t-51.5 39.5t-32 60.5l-85 -22q12 -49 39.5 -85.5t65 -60.5t81.5 -36t89 -12q53 0 103.5 15.5t91 47t66.5 78t30 108.5zM1233 1053
q-23 -2 -53.5 -3t-64 -1.5t-69 -0.5h-67.5q8 41 31 74.5t56 57.5t73 37.5t80 13.5q37 0 71 -12.5t61 -38.5q24 -24 24 -52q0 -18 -7 -30.5t-23 -21.5t-42.5 -14.5t-64.5 -8.5h-5zM1898 151q66 0 116 13t83.5 35.5t51 52t17.5 63.5q0 46 -32 74t-80.5 46t-105 29t-105 24
t-80.5 30.5t-32 47.5q0 14 9 28.5t29 26.5t51.5 19.5t75.5 7.5q48 0 101.5 -14.5t100.5 -54.5l37 83q-21 15 -48.5 27.5t-59 21.5t-64.5 14t-66 5q-69 0 -117.5 -13t-79 -35t-44.5 -52t-14 -64q0 -3 0.5 -6t0.5 -7q-34 55 -93.5 89.5t-130.5 53.5t-146.5 26t-142.5 7
q-62 0 -110 -3.5t-74 -6.5v-95q14 2 34 3.5t43.5 3.5t49 3t49.5 1l-214 -475h110l213 474q125 -3 199.5 -33.5t110 -75t36 -71t0.5 -28.5q0 -49 -23 -91.5t-66 -71.5t-96 -29q-22 0 -52 7t-58.5 22t-51.5 39.5t-32 59.5l-85 -21q12 -49 39.5 -85.5t65 -61t81.5 -36.5t90 -12
q53 0 103.5 16t91 47t66.5 78t30 108q1 10 1 20q0 36 -9 69q25 -28 64 -46.5t84 -31t90.5 -21.5t82.5 -19t60 -24t23 -36q0 -18 -14 -31.5t-38 -22.5t-55 -13.5t-65 -4.5q-59 0 -118 17t-102 56l-36 -81q46 -32 112 -53.5t138 -21.5zM908 717h-250v-557h250v92h-153v141h126
v91h-126v141h153v92zM649 160q-8 90 -31 162q-10 31 -24.5 61t-34 54t-45 39.5t-58.5 18.5l149 222h-114l-188 -288q-2 -2 -2.5 -3.5t-1.5 -1.5v293h-101v-557h95q2 71 17 127q6 24 15 46.5t22.5 40t31.5 28.5t42 11q21 0 37.5 -11t29.5 -28.5t22 -40t16 -46.5
q15 -56 21 -127h102z" />
    <glyph glyph-name="Ocircumflex" unicode="&#xd4;" 
d="M2317 1466v-1466h-2280v1466h2280zM198 749h94v95q6 64 24 132.5t53 125.5t88.5 93.5t130.5 36.5q63 0 100.5 -12.5t56.5 -26.5q41 -28 41 -67q0 -18 -10.5 -35.5t-31.5 -31.5t-51.5 -22.5t-71.5 -8.5q-101 0 -172 46l-92 -69q1 -2 1 -3t1 -2q18 -37 48.5 -83t73 -86.5
t99 -68t127.5 -27.5q39 0 83 15.5t84 42.5l-50 72q-28 -19 -60 -30.5t-57 -11.5q-38 0 -71 12t-60.5 31.5t-50.5 44t-41 50.5q63 -20 137 -20q88 0 145 29.5t84 74.5l-2 -83q2 0 15 -0.5t33 -0.5q2 -8 10 -28t23 -45t38.5 -52t57 -49.5t77.5 -37t100 -14.5q67 0 133 30
t121 99l-65 60q-42 -54 -91 -77.5t-98 -23.5q-33 0 -66 9.5t-61.5 27.5t-51 43.5t-35.5 56.5q32 0 58.5 -0.5t43.5 -0.5t41.5 0.5t55 2t53.5 3.5h6q21 2 58 7t72 21t61 48t26 87q0 34 -18 68.5t-50.5 62.5t-76 44.5t-93.5 16.5h-11q-67 -2 -123.5 -25.5t-99 -61.5t-68.5 -86
t-32 -98q-14 1 -24 1h-14q20 37 20 76q0 40 -20 76.5t-58 62.5q-78 55 -207 55q-96 0 -170 -44.5t-126 -131.5v161h-94v-556zM2178 984q1 13 1 25q0 56 -21.5 104t-63 85t-98.5 60.5t-119.5 36.5t-126.5 18t-122 5q-62 0 -110 -3.5t-74 -6.5v-95q28 3 78 7t99 4l-214 -475
h109l214 473q93 -2 158.5 -20t106.5 -46.5t60 -64.5t20 -57t1 -25q0 -32 -13 -65t-38.5 -60.5t-60 -44.5t-73.5 -17q-22 0 -52 7t-58.5 22t-51.5 39.5t-32 60.5l-85 -22q12 -49 39.5 -85.5t65 -60.5t81.5 -36t89 -12q53 0 103.5 15.5t91 47t66.5 78t30 108.5zM1233 1053
q-23 -2 -53.5 -3t-64 -1.5t-69 -0.5h-67.5q8 41 31 74.5t56 57.5t73 37.5t80 13.5q37 0 71 -12.5t61 -38.5q24 -24 24 -52q0 -18 -7 -30.5t-23 -21.5t-42.5 -14.5t-64.5 -8.5h-5zM1898 151q66 0 116 13t83.5 35.5t51 52t17.5 63.5q0 46 -32 74t-80.5 46t-105 29t-105 24
t-80.5 30.5t-32 47.5q0 14 9 28.5t29 26.5t51.5 19.5t75.5 7.5q48 0 101.5 -14.5t100.5 -54.5l37 83q-21 15 -48.5 27.5t-59 21.5t-64.5 14t-66 5q-69 0 -117.5 -13t-79 -35t-44.5 -52t-14 -64q0 -3 0.5 -6t0.5 -7q-34 55 -93.5 89.5t-130.5 53.5t-146.5 26t-142.5 7
q-62 0 -110 -3.5t-74 -6.5v-95q14 2 34 3.5t43.5 3.5t49 3t49.5 1l-214 -475h110l213 474q125 -3 199.5 -33.5t110 -75t36 -71t0.5 -28.5q0 -49 -23 -91.5t-66 -71.5t-96 -29q-22 0 -52 7t-58.5 22t-51.5 39.5t-32 59.5l-85 -21q12 -49 39.5 -85.5t65 -61t81.5 -36.5t90 -12
q53 0 103.5 16t91 47t66.5 78t30 108q1 10 1 20q0 36 -9 69q25 -28 64 -46.5t84 -31t90.5 -21.5t82.5 -19t60 -24t23 -36q0 -18 -14 -31.5t-38 -22.5t-55 -13.5t-65 -4.5q-59 0 -118 17t-102 56l-36 -81q46 -32 112 -53.5t138 -21.5zM908 717h-250v-557h250v92h-153v141h126
v91h-126v141h153v92zM649 160q-8 90 -31 162q-10 31 -24.5 61t-34 54t-45 39.5t-58.5 18.5l149 222h-114l-188 -288q-2 -2 -2.5 -3.5t-1.5 -1.5v293h-101v-557h95q2 71 17 127q6 24 15 46.5t22.5 40t31.5 28.5t42 11q21 0 37.5 -11t29.5 -28.5t22 -40t16 -46.5
q15 -56 21 -127h102z" />
    <glyph glyph-name="Otilde" unicode="&#xd5;" 
d="M2317 1466v-1466h-2280v1466h2280zM198 749h94v95q6 64 24 132.5t53 125.5t88.5 93.5t130.5 36.5q63 0 100.5 -12.5t56.5 -26.5q41 -28 41 -67q0 -18 -10.5 -35.5t-31.5 -31.5t-51.5 -22.5t-71.5 -8.5q-101 0 -172 46l-92 -69q1 -2 1 -3t1 -2q18 -37 48.5 -83t73 -86.5
t99 -68t127.5 -27.5q39 0 83 15.5t84 42.5l-50 72q-28 -19 -60 -30.5t-57 -11.5q-38 0 -71 12t-60.5 31.5t-50.5 44t-41 50.5q63 -20 137 -20q88 0 145 29.5t84 74.5l-2 -83q2 0 15 -0.5t33 -0.5q2 -8 10 -28t23 -45t38.5 -52t57 -49.5t77.5 -37t100 -14.5q67 0 133 30
t121 99l-65 60q-42 -54 -91 -77.5t-98 -23.5q-33 0 -66 9.5t-61.5 27.5t-51 43.5t-35.5 56.5q32 0 58.5 -0.5t43.5 -0.5t41.5 0.5t55 2t53.5 3.5h6q21 2 58 7t72 21t61 48t26 87q0 34 -18 68.5t-50.5 62.5t-76 44.5t-93.5 16.5h-11q-67 -2 -123.5 -25.5t-99 -61.5t-68.5 -86
t-32 -98q-14 1 -24 1h-14q20 37 20 76q0 40 -20 76.5t-58 62.5q-78 55 -207 55q-96 0 -170 -44.5t-126 -131.5v161h-94v-556zM2178 984q1 13 1 25q0 56 -21.5 104t-63 85t-98.5 60.5t-119.5 36.5t-126.5 18t-122 5q-62 0 -110 -3.5t-74 -6.5v-95q28 3 78 7t99 4l-214 -475
h109l214 473q93 -2 158.5 -20t106.5 -46.5t60 -64.5t20 -57t1 -25q0 -32 -13 -65t-38.5 -60.5t-60 -44.5t-73.5 -17q-22 0 -52 7t-58.5 22t-51.5 39.5t-32 60.5l-85 -22q12 -49 39.5 -85.5t65 -60.5t81.5 -36t89 -12q53 0 103.5 15.5t91 47t66.5 78t30 108.5zM1233 1053
q-23 -2 -53.5 -3t-64 -1.5t-69 -0.5h-67.5q8 41 31 74.5t56 57.5t73 37.5t80 13.5q37 0 71 -12.5t61 -38.5q24 -24 24 -52q0 -18 -7 -30.5t-23 -21.5t-42.5 -14.5t-64.5 -8.5h-5zM1898 151q66 0 116 13t83.5 35.5t51 52t17.5 63.5q0 46 -32 74t-80.5 46t-105 29t-105 24
t-80.5 30.5t-32 47.5q0 14 9 28.5t29 26.5t51.5 19.5t75.5 7.5q48 0 101.5 -14.5t100.5 -54.5l37 83q-21 15 -48.5 27.5t-59 21.5t-64.5 14t-66 5q-69 0 -117.5 -13t-79 -35t-44.5 -52t-14 -64q0 -3 0.5 -6t0.5 -7q-34 55 -93.5 89.5t-130.5 53.5t-146.5 26t-142.5 7
q-62 0 -110 -3.5t-74 -6.5v-95q14 2 34 3.5t43.5 3.5t49 3t49.5 1l-214 -475h110l213 474q125 -3 199.5 -33.5t110 -75t36 -71t0.5 -28.5q0 -49 -23 -91.5t-66 -71.5t-96 -29q-22 0 -52 7t-58.5 22t-51.5 39.5t-32 59.5l-85 -21q12 -49 39.5 -85.5t65 -61t81.5 -36.5t90 -12
q53 0 103.5 16t91 47t66.5 78t30 108q1 10 1 20q0 36 -9 69q25 -28 64 -46.5t84 -31t90.5 -21.5t82.5 -19t60 -24t23 -36q0 -18 -14 -31.5t-38 -22.5t-55 -13.5t-65 -4.5q-59 0 -118 17t-102 56l-36 -81q46 -32 112 -53.5t138 -21.5zM908 717h-250v-557h250v92h-153v141h126
v91h-126v141h153v92zM649 160q-8 90 -31 162q-10 31 -24.5 61t-34 54t-45 39.5t-58.5 18.5l149 222h-114l-188 -288q-2 -2 -2.5 -3.5t-1.5 -1.5v293h-101v-557h95q2 71 17 127q6 24 15 46.5t22.5 40t31.5 28.5t42 11q21 0 37.5 -11t29.5 -28.5t22 -40t16 -46.5
q15 -56 21 -127h102z" />
    <glyph glyph-name="Odieresis" unicode="&#xd6;" 
d="M2317 1466v-1466h-2280v1466h2280zM198 749h94v95q6 64 24 132.5t53 125.5t88.5 93.5t130.5 36.5q63 0 100.5 -12.5t56.5 -26.5q41 -28 41 -67q0 -18 -10.5 -35.5t-31.5 -31.5t-51.5 -22.5t-71.5 -8.5q-101 0 -172 46l-92 -69q1 -2 1 -3t1 -2q18 -37 48.5 -83t73 -86.5
t99 -68t127.5 -27.5q39 0 83 15.5t84 42.5l-50 72q-28 -19 -60 -30.5t-57 -11.5q-38 0 -71 12t-60.5 31.5t-50.5 44t-41 50.5q63 -20 137 -20q88 0 145 29.5t84 74.5l-2 -83q2 0 15 -0.5t33 -0.5q2 -8 10 -28t23 -45t38.5 -52t57 -49.5t77.5 -37t100 -14.5q67 0 133 30
t121 99l-65 60q-42 -54 -91 -77.5t-98 -23.5q-33 0 -66 9.5t-61.5 27.5t-51 43.5t-35.5 56.5q32 0 58.5 -0.5t43.5 -0.5t41.5 0.5t55 2t53.5 3.5h6q21 2 58 7t72 21t61 48t26 87q0 34 -18 68.5t-50.5 62.5t-76 44.5t-93.5 16.5h-11q-67 -2 -123.5 -25.5t-99 -61.5t-68.5 -86
t-32 -98q-14 1 -24 1h-14q20 37 20 76q0 40 -20 76.5t-58 62.5q-78 55 -207 55q-96 0 -170 -44.5t-126 -131.5v161h-94v-556zM2178 984q1 13 1 25q0 56 -21.5 104t-63 85t-98.5 60.5t-119.5 36.5t-126.5 18t-122 5q-62 0 -110 -3.5t-74 -6.5v-95q28 3 78 7t99 4l-214 -475
h109l214 473q93 -2 158.5 -20t106.5 -46.5t60 -64.5t20 -57t1 -25q0 -32 -13 -65t-38.5 -60.5t-60 -44.5t-73.5 -17q-22 0 -52 7t-58.5 22t-51.5 39.5t-32 60.5l-85 -22q12 -49 39.5 -85.5t65 -60.5t81.5 -36t89 -12q53 0 103.5 15.5t91 47t66.5 78t30 108.5zM1233 1053
q-23 -2 -53.5 -3t-64 -1.5t-69 -0.5h-67.5q8 41 31 74.5t56 57.5t73 37.5t80 13.5q37 0 71 -12.5t61 -38.5q24 -24 24 -52q0 -18 -7 -30.5t-23 -21.5t-42.5 -14.5t-64.5 -8.5h-5zM1898 151q66 0 116 13t83.5 35.5t51 52t17.5 63.5q0 46 -32 74t-80.5 46t-105 29t-105 24
t-80.5 30.5t-32 47.5q0 14 9 28.5t29 26.5t51.5 19.5t75.5 7.5q48 0 101.5 -14.5t100.5 -54.5l37 83q-21 15 -48.5 27.5t-59 21.5t-64.5 14t-66 5q-69 0 -117.5 -13t-79 -35t-44.5 -52t-14 -64q0 -3 0.5 -6t0.5 -7q-34 55 -93.5 89.5t-130.5 53.5t-146.5 26t-142.5 7
q-62 0 -110 -3.5t-74 -6.5v-95q14 2 34 3.5t43.5 3.5t49 3t49.5 1l-214 -475h110l213 474q125 -3 199.5 -33.5t110 -75t36 -71t0.5 -28.5q0 -49 -23 -91.5t-66 -71.5t-96 -29q-22 0 -52 7t-58.5 22t-51.5 39.5t-32 59.5l-85 -21q12 -49 39.5 -85.5t65 -61t81.5 -36.5t90 -12
q53 0 103.5 16t91 47t66.5 78t30 108q1 10 1 20q0 36 -9 69q25 -28 64 -46.5t84 -31t90.5 -21.5t82.5 -19t60 -24t23 -36q0 -18 -14 -31.5t-38 -22.5t-55 -13.5t-65 -4.5q-59 0 -118 17t-102 56l-36 -81q46 -32 112 -53.5t138 -21.5zM908 717h-250v-557h250v92h-153v141h126
v91h-126v141h153v92zM649 160q-8 90 -31 162q-10 31 -24.5 61t-34 54t-45 39.5t-58.5 18.5l149 222h-114l-188 -288q-2 -2 -2.5 -3.5t-1.5 -1.5v293h-101v-557h95q2 71 17 127q6 24 15 46.5t22.5 40t31.5 28.5t42 11q21 0 37.5 -11t29.5 -28.5t22 -40t16 -46.5
q15 -56 21 -127h102z" />
    <glyph glyph-name="multiply" unicode="&#xd7;" horiz-adv-x="2353" 
d="M2317 1466v-1466h-2280v1466h2280zM198 749h94v95q6 64 24 132.5t53 125.5t88.5 93.5t130.5 36.5q63 0 100.5 -12.5t56.5 -26.5q41 -28 41 -67q0 -18 -10.5 -35.5t-31.5 -31.5t-51.5 -22.5t-71.5 -8.5q-101 0 -172 46l-92 -69q1 -2 1 -3t1 -2q18 -37 48.5 -83t73 -86.5
t99 -68t127.5 -27.5q39 0 83 15.5t84 42.5l-50 72q-28 -19 -60 -30.5t-57 -11.5q-38 0 -71 12t-60.5 31.5t-50.5 44t-41 50.5q63 -20 137 -20q88 0 145 29.5t84 74.5l-2 -83q2 0 15 -0.5t33 -0.5q2 -8 10 -28t23 -45t38.5 -52t57 -49.5t77.5 -37t100 -14.5q67 0 133 30
t121 99l-65 60q-42 -54 -91 -77.5t-98 -23.5q-33 0 -66 9.5t-61.5 27.5t-51 43.5t-35.5 56.5q32 0 58.5 -0.5t43.5 -0.5t41.5 0.5t55 2t53.5 3.5h6q21 2 58 7t72 21t61 48t26 87q0 34 -18 68.5t-50.5 62.5t-76 44.5t-93.5 16.5h-11q-67 -2 -123.5 -25.5t-99 -61.5t-68.5 -86
t-32 -98q-14 1 -24 1h-14q20 37 20 76q0 40 -20 76.5t-58 62.5q-78 55 -207 55q-96 0 -170 -44.5t-126 -131.5v161h-94v-556zM2178 984q1 13 1 25q0 56 -21.5 104t-63 85t-98.5 60.5t-119.5 36.5t-126.5 18t-122 5q-62 0 -110 -3.5t-74 -6.5v-95q28 3 78 7t99 4l-214 -475
h109l214 473q93 -2 158.5 -20t106.5 -46.5t60 -64.5t20 -57t1 -25q0 -32 -13 -65t-38.5 -60.5t-60 -44.5t-73.5 -17q-22 0 -52 7t-58.5 22t-51.5 39.5t-32 60.5l-85 -22q12 -49 39.5 -85.5t65 -60.5t81.5 -36t89 -12q53 0 103.5 15.5t91 47t66.5 78t30 108.5zM1233 1053
q-23 -2 -53.5 -3t-64 -1.5t-69 -0.5h-67.5q8 41 31 74.5t56 57.5t73 37.5t80 13.5q37 0 71 -12.5t61 -38.5q24 -24 24 -52q0 -18 -7 -30.5t-23 -21.5t-42.5 -14.5t-64.5 -8.5h-5zM1898 151q66 0 116 13t83.5 35.5t51 52t17.5 63.5q0 46 -32 74t-80.5 46t-105 29t-105 24
t-80.5 30.5t-32 47.5q0 14 9 28.5t29 26.5t51.5 19.5t75.5 7.5q48 0 101.5 -14.5t100.5 -54.5l37 83q-21 15 -48.5 27.5t-59 21.5t-64.5 14t-66 5q-69 0 -117.5 -13t-79 -35t-44.5 -52t-14 -64q0 -3 0.5 -6t0.5 -7q-34 55 -93.5 89.5t-130.5 53.5t-146.5 26t-142.5 7
q-62 0 -110 -3.5t-74 -6.5v-95q14 2 34 3.5t43.5 3.5t49 3t49.5 1l-214 -475h110l213 474q125 -3 199.5 -33.5t110 -75t36 -71t0.5 -28.5q0 -49 -23 -91.5t-66 -71.5t-96 -29q-22 0 -52 7t-58.5 22t-51.5 39.5t-32 59.5l-85 -21q12 -49 39.5 -85.5t65 -61t81.5 -36.5t90 -12
q53 0 103.5 16t91 47t66.5 78t30 108q1 10 1 20q0 36 -9 69q25 -28 64 -46.5t84 -31t90.5 -21.5t82.5 -19t60 -24t23 -36q0 -18 -14 -31.5t-38 -22.5t-55 -13.5t-65 -4.5q-59 0 -118 17t-102 56l-36 -81q46 -32 112 -53.5t138 -21.5zM908 717h-250v-557h250v92h-153v141h126
v91h-126v141h153v92zM649 160q-8 90 -31 162q-10 31 -24.5 61t-34 54t-45 39.5t-58.5 18.5l149 222h-114l-188 -288q-2 -2 -2.5 -3.5t-1.5 -1.5v293h-101v-557h95q2 71 17 127q6 24 15 46.5t22.5 40t31.5 28.5t42 11q21 0 37.5 -11t29.5 -28.5t22 -40t16 -46.5
q15 -56 21 -127h102z" />
    <glyph glyph-name="Oslash" unicode="&#xd8;" 
d="M2317 1466v-1466h-2280v1466h2280zM198 749h94v95q6 64 24 132.5t53 125.5t88.5 93.5t130.5 36.5q63 0 100.5 -12.5t56.5 -26.5q41 -28 41 -67q0 -18 -10.5 -35.5t-31.5 -31.5t-51.5 -22.5t-71.5 -8.5q-101 0 -172 46l-92 -69q1 -2 1 -3t1 -2q18 -37 48.5 -83t73 -86.5
t99 -68t127.5 -27.5q39 0 83 15.5t84 42.5l-50 72q-28 -19 -60 -30.5t-57 -11.5q-38 0 -71 12t-60.5 31.5t-50.5 44t-41 50.5q63 -20 137 -20q88 0 145 29.5t84 74.5l-2 -83q2 0 15 -0.5t33 -0.5q2 -8 10 -28t23 -45t38.5 -52t57 -49.5t77.5 -37t100 -14.5q67 0 133 30
t121 99l-65 60q-42 -54 -91 -77.5t-98 -23.5q-33 0 -66 9.5t-61.5 27.5t-51 43.5t-35.5 56.5q32 0 58.5 -0.5t43.5 -0.5t41.5 0.5t55 2t53.5 3.5h6q21 2 58 7t72 21t61 48t26 87q0 34 -18 68.5t-50.5 62.5t-76 44.5t-93.5 16.5h-11q-67 -2 -123.5 -25.5t-99 -61.5t-68.5 -86
t-32 -98q-14 1 -24 1h-14q20 37 20 76q0 40 -20 76.5t-58 62.5q-78 55 -207 55q-96 0 -170 -44.5t-126 -131.5v161h-94v-556zM2178 984q1 13 1 25q0 56 -21.5 104t-63 85t-98.5 60.5t-119.5 36.5t-126.5 18t-122 5q-62 0 -110 -3.5t-74 -6.5v-95q28 3 78 7t99 4l-214 -475
h109l214 473q93 -2 158.5 -20t106.5 -46.5t60 -64.5t20 -57t1 -25q0 -32 -13 -65t-38.5 -60.5t-60 -44.5t-73.5 -17q-22 0 -52 7t-58.5 22t-51.5 39.5t-32 60.5l-85 -22q12 -49 39.5 -85.5t65 -60.5t81.5 -36t89 -12q53 0 103.5 15.5t91 47t66.5 78t30 108.5zM1233 1053
q-23 -2 -53.5 -3t-64 -1.5t-69 -0.5h-67.5q8 41 31 74.5t56 57.5t73 37.5t80 13.5q37 0 71 -12.5t61 -38.5q24 -24 24 -52q0 -18 -7 -30.5t-23 -21.5t-42.5 -14.5t-64.5 -8.5h-5zM1898 151q66 0 116 13t83.5 35.5t51 52t17.5 63.5q0 46 -32 74t-80.5 46t-105 29t-105 24
t-80.5 30.5t-32 47.5q0 14 9 28.5t29 26.5t51.5 19.5t75.5 7.5q48 0 101.5 -14.5t100.5 -54.5l37 83q-21 15 -48.5 27.5t-59 21.5t-64.5 14t-66 5q-69 0 -117.5 -13t-79 -35t-44.5 -52t-14 -64q0 -3 0.5 -6t0.5 -7q-34 55 -93.5 89.5t-130.5 53.5t-146.5 26t-142.5 7
q-62 0 -110 -3.5t-74 -6.5v-95q14 2 34 3.5t43.5 3.5t49 3t49.5 1l-214 -475h110l213 474q125 -3 199.5 -33.5t110 -75t36 -71t0.5 -28.5q0 -49 -23 -91.5t-66 -71.5t-96 -29q-22 0 -52 7t-58.5 22t-51.5 39.5t-32 59.5l-85 -21q12 -49 39.5 -85.5t65 -61t81.5 -36.5t90 -12
q53 0 103.5 16t91 47t66.5 78t30 108q1 10 1 20q0 36 -9 69q25 -28 64 -46.5t84 -31t90.5 -21.5t82.5 -19t60 -24t23 -36q0 -18 -14 -31.5t-38 -22.5t-55 -13.5t-65 -4.5q-59 0 -118 17t-102 56l-36 -81q46 -32 112 -53.5t138 -21.5zM908 717h-250v-557h250v92h-153v141h126
v91h-126v141h153v92zM649 160q-8 90 -31 162q-10 31 -24.5 61t-34 54t-45 39.5t-58.5 18.5l149 222h-114l-188 -288q-2 -2 -2.5 -3.5t-1.5 -1.5v293h-101v-557h95q2 71 17 127q6 24 15 46.5t22.5 40t31.5 28.5t42 11q21 0 37.5 -11t29.5 -28.5t22 -40t16 -46.5
q15 -56 21 -127h102z" />
    <glyph glyph-name="Ugrave" unicode="&#xd9;" 
d="M2317 1466v-1466h-2280v1466h2280zM198 749h94v95q6 64 24 132.5t53 125.5t88.5 93.5t130.5 36.5q63 0 100.5 -12.5t56.5 -26.5q41 -28 41 -67q0 -18 -10.5 -35.5t-31.5 -31.5t-51.5 -22.5t-71.5 -8.5q-101 0 -172 46l-92 -69q1 -2 1 -3t1 -2q18 -37 48.5 -83t73 -86.5
t99 -68t127.5 -27.5q39 0 83 15.5t84 42.5l-50 72q-28 -19 -60 -30.5t-57 -11.5q-38 0 -71 12t-60.5 31.5t-50.5 44t-41 50.5q63 -20 137 -20q88 0 145 29.5t84 74.5l-2 -83q2 0 15 -0.5t33 -0.5q2 -8 10 -28t23 -45t38.5 -52t57 -49.5t77.5 -37t100 -14.5q67 0 133 30
t121 99l-65 60q-42 -54 -91 -77.5t-98 -23.5q-33 0 -66 9.5t-61.5 27.5t-51 43.5t-35.5 56.5q32 0 58.5 -0.5t43.5 -0.5t41.5 0.5t55 2t53.5 3.5h6q21 2 58 7t72 21t61 48t26 87q0 34 -18 68.5t-50.5 62.5t-76 44.5t-93.5 16.5h-11q-67 -2 -123.5 -25.5t-99 -61.5t-68.5 -86
t-32 -98q-14 1 -24 1h-14q20 37 20 76q0 40 -20 76.5t-58 62.5q-78 55 -207 55q-96 0 -170 -44.5t-126 -131.5v161h-94v-556zM2178 984q1 13 1 25q0 56 -21.5 104t-63 85t-98.5 60.5t-119.5 36.5t-126.5 18t-122 5q-62 0 -110 -3.5t-74 -6.5v-95q28 3 78 7t99 4l-214 -475
h109l214 473q93 -2 158.5 -20t106.5 -46.5t60 -64.5t20 -57t1 -25q0 -32 -13 -65t-38.5 -60.5t-60 -44.5t-73.5 -17q-22 0 -52 7t-58.5 22t-51.5 39.5t-32 60.5l-85 -22q12 -49 39.5 -85.5t65 -60.5t81.5 -36t89 -12q53 0 103.5 15.5t91 47t66.5 78t30 108.5zM1233 1053
q-23 -2 -53.5 -3t-64 -1.5t-69 -0.5h-67.5q8 41 31 74.5t56 57.5t73 37.5t80 13.5q37 0 71 -12.5t61 -38.5q24 -24 24 -52q0 -18 -7 -30.5t-23 -21.5t-42.5 -14.5t-64.5 -8.5h-5zM1898 151q66 0 116 13t83.5 35.5t51 52t17.5 63.5q0 46 -32 74t-80.5 46t-105 29t-105 24
t-80.5 30.5t-32 47.5q0 14 9 28.5t29 26.5t51.5 19.5t75.5 7.5q48 0 101.5 -14.5t100.5 -54.5l37 83q-21 15 -48.5 27.5t-59 21.5t-64.5 14t-66 5q-69 0 -117.5 -13t-79 -35t-44.5 -52t-14 -64q0 -3 0.5 -6t0.5 -7q-34 55 -93.5 89.5t-130.5 53.5t-146.5 26t-142.5 7
q-62 0 -110 -3.5t-74 -6.5v-95q14 2 34 3.5t43.5 3.5t49 3t49.5 1l-214 -475h110l213 474q125 -3 199.5 -33.5t110 -75t36 -71t0.5 -28.5q0 -49 -23 -91.5t-66 -71.5t-96 -29q-22 0 -52 7t-58.5 22t-51.5 39.5t-32 59.5l-85 -21q12 -49 39.5 -85.5t65 -61t81.5 -36.5t90 -12
q53 0 103.5 16t91 47t66.5 78t30 108q1 10 1 20q0 36 -9 69q25 -28 64 -46.5t84 -31t90.5 -21.5t82.5 -19t60 -24t23 -36q0 -18 -14 -31.5t-38 -22.5t-55 -13.5t-65 -4.5q-59 0 -118 17t-102 56l-36 -81q46 -32 112 -53.5t138 -21.5zM908 717h-250v-557h250v92h-153v141h126
v91h-126v141h153v92zM649 160q-8 90 -31 162q-10 31 -24.5 61t-34 54t-45 39.5t-58.5 18.5l149 222h-114l-188 -288q-2 -2 -2.5 -3.5t-1.5 -1.5v293h-101v-557h95q2 71 17 127q6 24 15 46.5t22.5 40t31.5 28.5t42 11q21 0 37.5 -11t29.5 -28.5t22 -40t16 -46.5
q15 -56 21 -127h102z" />
    <glyph glyph-name="Uacute" unicode="&#xda;" 
d="M2317 1466v-1466h-2280v1466h2280zM198 749h94v95q6 64 24 132.5t53 125.5t88.5 93.5t130.5 36.5q63 0 100.5 -12.5t56.5 -26.5q41 -28 41 -67q0 -18 -10.5 -35.5t-31.5 -31.5t-51.5 -22.5t-71.5 -8.5q-101 0 -172 46l-92 -69q1 -2 1 -3t1 -2q18 -37 48.5 -83t73 -86.5
t99 -68t127.5 -27.5q39 0 83 15.5t84 42.5l-50 72q-28 -19 -60 -30.5t-57 -11.5q-38 0 -71 12t-60.5 31.5t-50.5 44t-41 50.5q63 -20 137 -20q88 0 145 29.5t84 74.5l-2 -83q2 0 15 -0.5t33 -0.5q2 -8 10 -28t23 -45t38.5 -52t57 -49.5t77.5 -37t100 -14.5q67 0 133 30
t121 99l-65 60q-42 -54 -91 -77.5t-98 -23.5q-33 0 -66 9.5t-61.5 27.5t-51 43.5t-35.5 56.5q32 0 58.5 -0.5t43.5 -0.5t41.5 0.5t55 2t53.5 3.5h6q21 2 58 7t72 21t61 48t26 87q0 34 -18 68.5t-50.5 62.5t-76 44.5t-93.5 16.5h-11q-67 -2 -123.5 -25.5t-99 -61.5t-68.5 -86
t-32 -98q-14 1 -24 1h-14q20 37 20 76q0 40 -20 76.5t-58 62.5q-78 55 -207 55q-96 0 -170 -44.5t-126 -131.5v161h-94v-556zM2178 984q1 13 1 25q0 56 -21.5 104t-63 85t-98.5 60.5t-119.5 36.5t-126.5 18t-122 5q-62 0 -110 -3.5t-74 -6.5v-95q28 3 78 7t99 4l-214 -475
h109l214 473q93 -2 158.5 -20t106.5 -46.5t60 -64.5t20 -57t1 -25q0 -32 -13 -65t-38.5 -60.5t-60 -44.5t-73.5 -17q-22 0 -52 7t-58.5 22t-51.5 39.5t-32 60.5l-85 -22q12 -49 39.5 -85.5t65 -60.5t81.5 -36t89 -12q53 0 103.5 15.5t91 47t66.5 78t30 108.5zM1233 1053
q-23 -2 -53.5 -3t-64 -1.5t-69 -0.5h-67.5q8 41 31 74.5t56 57.5t73 37.5t80 13.5q37 0 71 -12.5t61 -38.5q24 -24 24 -52q0 -18 -7 -30.5t-23 -21.5t-42.5 -14.5t-64.5 -8.5h-5zM1898 151q66 0 116 13t83.5 35.5t51 52t17.5 63.5q0 46 -32 74t-80.5 46t-105 29t-105 24
t-80.5 30.5t-32 47.5q0 14 9 28.5t29 26.5t51.5 19.5t75.5 7.5q48 0 101.5 -14.5t100.5 -54.5l37 83q-21 15 -48.5 27.5t-59 21.5t-64.5 14t-66 5q-69 0 -117.5 -13t-79 -35t-44.5 -52t-14 -64q0 -3 0.5 -6t0.5 -7q-34 55 -93.5 89.5t-130.5 53.5t-146.5 26t-142.5 7
q-62 0 -110 -3.5t-74 -6.5v-95q14 2 34 3.5t43.5 3.5t49 3t49.5 1l-214 -475h110l213 474q125 -3 199.5 -33.5t110 -75t36 -71t0.5 -28.5q0 -49 -23 -91.5t-66 -71.5t-96 -29q-22 0 -52 7t-58.5 22t-51.5 39.5t-32 59.5l-85 -21q12 -49 39.5 -85.5t65 -61t81.5 -36.5t90 -12
q53 0 103.5 16t91 47t66.5 78t30 108q1 10 1 20q0 36 -9 69q25 -28 64 -46.5t84 -31t90.5 -21.5t82.5 -19t60 -24t23 -36q0 -18 -14 -31.5t-38 -22.5t-55 -13.5t-65 -4.5q-59 0 -118 17t-102 56l-36 -81q46 -32 112 -53.5t138 -21.5zM908 717h-250v-557h250v92h-153v141h126
v91h-126v141h153v92zM649 160q-8 90 -31 162q-10 31 -24.5 61t-34 54t-45 39.5t-58.5 18.5l149 222h-114l-188 -288q-2 -2 -2.5 -3.5t-1.5 -1.5v293h-101v-557h95q2 71 17 127q6 24 15 46.5t22.5 40t31.5 28.5t42 11q21 0 37.5 -11t29.5 -28.5t22 -40t16 -46.5
q15 -56 21 -127h102z" />
    <glyph glyph-name="Ucircumflex" unicode="&#xdb;" 
d="M2317 1466v-1466h-2280v1466h2280zM198 749h94v95q6 64 24 132.5t53 125.5t88.5 93.5t130.5 36.5q63 0 100.5 -12.5t56.5 -26.5q41 -28 41 -67q0 -18 -10.5 -35.5t-31.5 -31.5t-51.5 -22.5t-71.5 -8.5q-101 0 -172 46l-92 -69q1 -2 1 -3t1 -2q18 -37 48.5 -83t73 -86.5
t99 -68t127.5 -27.5q39 0 83 15.5t84 42.5l-50 72q-28 -19 -60 -30.5t-57 -11.5q-38 0 -71 12t-60.5 31.5t-50.5 44t-41 50.5q63 -20 137 -20q88 0 145 29.5t84 74.5l-2 -83q2 0 15 -0.5t33 -0.5q2 -8 10 -28t23 -45t38.5 -52t57 -49.5t77.5 -37t100 -14.5q67 0 133 30
t121 99l-65 60q-42 -54 -91 -77.5t-98 -23.5q-33 0 -66 9.5t-61.5 27.5t-51 43.5t-35.5 56.5q32 0 58.5 -0.5t43.5 -0.5t41.5 0.5t55 2t53.5 3.5h6q21 2 58 7t72 21t61 48t26 87q0 34 -18 68.5t-50.5 62.5t-76 44.5t-93.5 16.5h-11q-67 -2 -123.5 -25.5t-99 -61.5t-68.5 -86
t-32 -98q-14 1 -24 1h-14q20 37 20 76q0 40 -20 76.5t-58 62.5q-78 55 -207 55q-96 0 -170 -44.5t-126 -131.5v161h-94v-556zM2178 984q1 13 1 25q0 56 -21.5 104t-63 85t-98.5 60.5t-119.5 36.5t-126.5 18t-122 5q-62 0 -110 -3.5t-74 -6.5v-95q28 3 78 7t99 4l-214 -475
h109l214 473q93 -2 158.5 -20t106.5 -46.5t60 -64.5t20 -57t1 -25q0 -32 -13 -65t-38.5 -60.5t-60 -44.5t-73.5 -17q-22 0 -52 7t-58.5 22t-51.5 39.5t-32 60.5l-85 -22q12 -49 39.5 -85.5t65 -60.5t81.5 -36t89 -12q53 0 103.5 15.5t91 47t66.5 78t30 108.5zM1233 1053
q-23 -2 -53.5 -3t-64 -1.5t-69 -0.5h-67.5q8 41 31 74.5t56 57.5t73 37.5t80 13.5q37 0 71 -12.5t61 -38.5q24 -24 24 -52q0 -18 -7 -30.5t-23 -21.5t-42.5 -14.5t-64.5 -8.5h-5zM1898 151q66 0 116 13t83.5 35.5t51 52t17.5 63.5q0 46 -32 74t-80.5 46t-105 29t-105 24
t-80.5 30.5t-32 47.5q0 14 9 28.5t29 26.5t51.5 19.5t75.5 7.5q48 0 101.5 -14.5t100.5 -54.5l37 83q-21 15 -48.5 27.5t-59 21.5t-64.5 14t-66 5q-69 0 -117.5 -13t-79 -35t-44.5 -52t-14 -64q0 -3 0.5 -6t0.5 -7q-34 55 -93.5 89.5t-130.5 53.5t-146.5 26t-142.5 7
q-62 0 -110 -3.5t-74 -6.5v-95q14 2 34 3.5t43.5 3.5t49 3t49.5 1l-214 -475h110l213 474q125 -3 199.5 -33.5t110 -75t36 -71t0.5 -28.5q0 -49 -23 -91.5t-66 -71.5t-96 -29q-22 0 -52 7t-58.5 22t-51.5 39.5t-32 59.5l-85 -21q12 -49 39.5 -85.5t65 -61t81.5 -36.5t90 -12
q53 0 103.5 16t91 47t66.5 78t30 108q1 10 1 20q0 36 -9 69q25 -28 64 -46.5t84 -31t90.5 -21.5t82.5 -19t60 -24t23 -36q0 -18 -14 -31.5t-38 -22.5t-55 -13.5t-65 -4.5q-59 0 -118 17t-102 56l-36 -81q46 -32 112 -53.5t138 -21.5zM908 717h-250v-557h250v92h-153v141h126
v91h-126v141h153v92zM649 160q-8 90 -31 162q-10 31 -24.5 61t-34 54t-45 39.5t-58.5 18.5l149 222h-114l-188 -288q-2 -2 -2.5 -3.5t-1.5 -1.5v293h-101v-557h95q2 71 17 127q6 24 15 46.5t22.5 40t31.5 28.5t42 11q21 0 37.5 -11t29.5 -28.5t22 -40t16 -46.5
q15 -56 21 -127h102z" />
    <glyph glyph-name="Udieresis" unicode="&#xdc;" 
d="M2317 1466v-1466h-2280v1466h2280zM198 749h94v95q6 64 24 132.5t53 125.5t88.5 93.5t130.5 36.5q63 0 100.5 -12.5t56.5 -26.5q41 -28 41 -67q0 -18 -10.5 -35.5t-31.5 -31.5t-51.5 -22.5t-71.5 -8.5q-101 0 -172 46l-92 -69q1 -2 1 -3t1 -2q18 -37 48.5 -83t73 -86.5
t99 -68t127.5 -27.5q39 0 83 15.5t84 42.5l-50 72q-28 -19 -60 -30.5t-57 -11.5q-38 0 -71 12t-60.5 31.5t-50.5 44t-41 50.5q63 -20 137 -20q88 0 145 29.5t84 74.5l-2 -83q2 0 15 -0.5t33 -0.5q2 -8 10 -28t23 -45t38.5 -52t57 -49.5t77.5 -37t100 -14.5q67 0 133 30
t121 99l-65 60q-42 -54 -91 -77.5t-98 -23.5q-33 0 -66 9.5t-61.5 27.5t-51 43.5t-35.5 56.5q32 0 58.5 -0.5t43.5 -0.5t41.5 0.5t55 2t53.5 3.5h6q21 2 58 7t72 21t61 48t26 87q0 34 -18 68.5t-50.5 62.5t-76 44.5t-93.5 16.5h-11q-67 -2 -123.5 -25.5t-99 -61.5t-68.5 -86
t-32 -98q-14 1 -24 1h-14q20 37 20 76q0 40 -20 76.5t-58 62.5q-78 55 -207 55q-96 0 -170 -44.5t-126 -131.5v161h-94v-556zM2178 984q1 13 1 25q0 56 -21.5 104t-63 85t-98.5 60.5t-119.5 36.5t-126.5 18t-122 5q-62 0 -110 -3.5t-74 -6.5v-95q28 3 78 7t99 4l-214 -475
h109l214 473q93 -2 158.5 -20t106.5 -46.5t60 -64.5t20 -57t1 -25q0 -32 -13 -65t-38.5 -60.5t-60 -44.5t-73.5 -17q-22 0 -52 7t-58.5 22t-51.5 39.5t-32 60.5l-85 -22q12 -49 39.5 -85.5t65 -60.5t81.5 -36t89 -12q53 0 103.5 15.5t91 47t66.5 78t30 108.5zM1233 1053
q-23 -2 -53.5 -3t-64 -1.5t-69 -0.5h-67.5q8 41 31 74.5t56 57.5t73 37.5t80 13.5q37 0 71 -12.5t61 -38.5q24 -24 24 -52q0 -18 -7 -30.5t-23 -21.5t-42.5 -14.5t-64.5 -8.5h-5zM1898 151q66 0 116 13t83.5 35.5t51 52t17.5 63.5q0 46 -32 74t-80.5 46t-105 29t-105 24
t-80.5 30.5t-32 47.5q0 14 9 28.5t29 26.5t51.5 19.5t75.5 7.5q48 0 101.5 -14.5t100.5 -54.5l37 83q-21 15 -48.5 27.5t-59 21.5t-64.5 14t-66 5q-69 0 -117.5 -13t-79 -35t-44.5 -52t-14 -64q0 -3 0.5 -6t0.5 -7q-34 55 -93.5 89.5t-130.5 53.5t-146.5 26t-142.5 7
q-62 0 -110 -3.5t-74 -6.5v-95q14 2 34 3.5t43.5 3.5t49 3t49.5 1l-214 -475h110l213 474q125 -3 199.5 -33.5t110 -75t36 -71t0.5 -28.5q0 -49 -23 -91.5t-66 -71.5t-96 -29q-22 0 -52 7t-58.5 22t-51.5 39.5t-32 59.5l-85 -21q12 -49 39.5 -85.5t65 -61t81.5 -36.5t90 -12
q53 0 103.5 16t91 47t66.5 78t30 108q1 10 1 20q0 36 -9 69q25 -28 64 -46.5t84 -31t90.5 -21.5t82.5 -19t60 -24t23 -36q0 -18 -14 -31.5t-38 -22.5t-55 -13.5t-65 -4.5q-59 0 -118 17t-102 56l-36 -81q46 -32 112 -53.5t138 -21.5zM908 717h-250v-557h250v92h-153v141h126
v91h-126v141h153v92zM649 160q-8 90 -31 162q-10 31 -24.5 61t-34 54t-45 39.5t-58.5 18.5l149 222h-114l-188 -288q-2 -2 -2.5 -3.5t-1.5 -1.5v293h-101v-557h95q2 71 17 127q6 24 15 46.5t22.5 40t31.5 28.5t42 11q21 0 37.5 -11t29.5 -28.5t22 -40t16 -46.5
q15 -56 21 -127h102z" />
    <glyph glyph-name="Yacute" unicode="&#xdd;" 
d="M2317 1466v-1466h-2280v1466h2280zM198 749h94v95q6 64 24 132.5t53 125.5t88.5 93.5t130.5 36.5q63 0 100.5 -12.5t56.5 -26.5q41 -28 41 -67q0 -18 -10.5 -35.5t-31.5 -31.5t-51.5 -22.5t-71.5 -8.5q-101 0 -172 46l-92 -69q1 -2 1 -3t1 -2q18 -37 48.5 -83t73 -86.5
t99 -68t127.5 -27.5q39 0 83 15.5t84 42.5l-50 72q-28 -19 -60 -30.5t-57 -11.5q-38 0 -71 12t-60.5 31.5t-50.5 44t-41 50.5q63 -20 137 -20q88 0 145 29.5t84 74.5l-2 -83q2 0 15 -0.5t33 -0.5q2 -8 10 -28t23 -45t38.5 -52t57 -49.5t77.5 -37t100 -14.5q67 0 133 30
t121 99l-65 60q-42 -54 -91 -77.5t-98 -23.5q-33 0 -66 9.5t-61.5 27.5t-51 43.5t-35.5 56.5q32 0 58.5 -0.5t43.5 -0.5t41.5 0.5t55 2t53.5 3.5h6q21 2 58 7t72 21t61 48t26 87q0 34 -18 68.5t-50.5 62.5t-76 44.5t-93.5 16.5h-11q-67 -2 -123.5 -25.5t-99 -61.5t-68.5 -86
t-32 -98q-14 1 -24 1h-14q20 37 20 76q0 40 -20 76.5t-58 62.5q-78 55 -207 55q-96 0 -170 -44.5t-126 -131.5v161h-94v-556zM2178 984q1 13 1 25q0 56 -21.5 104t-63 85t-98.5 60.5t-119.5 36.5t-126.5 18t-122 5q-62 0 -110 -3.5t-74 -6.5v-95q28 3 78 7t99 4l-214 -475
h109l214 473q93 -2 158.5 -20t106.5 -46.5t60 -64.5t20 -57t1 -25q0 -32 -13 -65t-38.5 -60.5t-60 -44.5t-73.5 -17q-22 0 -52 7t-58.5 22t-51.5 39.5t-32 60.5l-85 -22q12 -49 39.5 -85.5t65 -60.5t81.5 -36t89 -12q53 0 103.5 15.5t91 47t66.5 78t30 108.5zM1233 1053
q-23 -2 -53.5 -3t-64 -1.5t-69 -0.5h-67.5q8 41 31 74.5t56 57.5t73 37.5t80 13.5q37 0 71 -12.5t61 -38.5q24 -24 24 -52q0 -18 -7 -30.5t-23 -21.5t-42.5 -14.5t-64.5 -8.5h-5zM1898 151q66 0 116 13t83.5 35.5t51 52t17.5 63.5q0 46 -32 74t-80.5 46t-105 29t-105 24
t-80.5 30.5t-32 47.5q0 14 9 28.5t29 26.5t51.5 19.5t75.5 7.5q48 0 101.5 -14.5t100.5 -54.5l37 83q-21 15 -48.5 27.5t-59 21.5t-64.5 14t-66 5q-69 0 -117.5 -13t-79 -35t-44.5 -52t-14 -64q0 -3 0.5 -6t0.5 -7q-34 55 -93.5 89.5t-130.5 53.5t-146.5 26t-142.5 7
q-62 0 -110 -3.5t-74 -6.5v-95q14 2 34 3.5t43.5 3.5t49 3t49.5 1l-214 -475h110l213 474q125 -3 199.5 -33.5t110 -75t36 -71t0.5 -28.5q0 -49 -23 -91.5t-66 -71.5t-96 -29q-22 0 -52 7t-58.5 22t-51.5 39.5t-32 59.5l-85 -21q12 -49 39.5 -85.5t65 -61t81.5 -36.5t90 -12
q53 0 103.5 16t91 47t66.5 78t30 108q1 10 1 20q0 36 -9 69q25 -28 64 -46.5t84 -31t90.5 -21.5t82.5 -19t60 -24t23 -36q0 -18 -14 -31.5t-38 -22.5t-55 -13.5t-65 -4.5q-59 0 -118 17t-102 56l-36 -81q46 -32 112 -53.5t138 -21.5zM908 717h-250v-557h250v92h-153v141h126
v91h-126v141h153v92zM649 160q-8 90 -31 162q-10 31 -24.5 61t-34 54t-45 39.5t-58.5 18.5l149 222h-114l-188 -288q-2 -2 -2.5 -3.5t-1.5 -1.5v293h-101v-557h95q2 71 17 127q6 24 15 46.5t22.5 40t31.5 28.5t42 11q21 0 37.5 -11t29.5 -28.5t22 -40t16 -46.5
q15 -56 21 -127h102z" />
    <glyph glyph-name="Thorn" unicode="&#xde;" 
d="M2317 1466v-1466h-2280v1466h2280zM198 749h94v95q6 64 24 132.5t53 125.5t88.5 93.5t130.5 36.5q63 0 100.5 -12.5t56.5 -26.5q41 -28 41 -67q0 -18 -10.5 -35.5t-31.5 -31.5t-51.5 -22.5t-71.5 -8.5q-101 0 -172 46l-92 -69q1 -2 1 -3t1 -2q18 -37 48.5 -83t73 -86.5
t99 -68t127.5 -27.5q39 0 83 15.5t84 42.5l-50 72q-28 -19 -60 -30.5t-57 -11.5q-38 0 -71 12t-60.5 31.5t-50.5 44t-41 50.5q63 -20 137 -20q88 0 145 29.5t84 74.5l-2 -83q2 0 15 -0.5t33 -0.5q2 -8 10 -28t23 -45t38.5 -52t57 -49.5t77.5 -37t100 -14.5q67 0 133 30
t121 99l-65 60q-42 -54 -91 -77.5t-98 -23.5q-33 0 -66 9.5t-61.5 27.5t-51 43.5t-35.5 56.5q32 0 58.5 -0.5t43.5 -0.5t41.5 0.5t55 2t53.5 3.5h6q21 2 58 7t72 21t61 48t26 87q0 34 -18 68.5t-50.5 62.5t-76 44.5t-93.5 16.5h-11q-67 -2 -123.5 -25.5t-99 -61.5t-68.5 -86
t-32 -98q-14 1 -24 1h-14q20 37 20 76q0 40 -20 76.5t-58 62.5q-78 55 -207 55q-96 0 -170 -44.5t-126 -131.5v161h-94v-556zM2178 984q1 13 1 25q0 56 -21.5 104t-63 85t-98.5 60.5t-119.5 36.5t-126.5 18t-122 5q-62 0 -110 -3.5t-74 -6.5v-95q28 3 78 7t99 4l-214 -475
h109l214 473q93 -2 158.5 -20t106.5 -46.5t60 -64.5t20 -57t1 -25q0 -32 -13 -65t-38.5 -60.5t-60 -44.5t-73.5 -17q-22 0 -52 7t-58.5 22t-51.5 39.5t-32 60.5l-85 -22q12 -49 39.5 -85.5t65 -60.5t81.5 -36t89 -12q53 0 103.5 15.5t91 47t66.5 78t30 108.5zM1233 1053
q-23 -2 -53.5 -3t-64 -1.5t-69 -0.5h-67.5q8 41 31 74.5t56 57.5t73 37.5t80 13.5q37 0 71 -12.5t61 -38.5q24 -24 24 -52q0 -18 -7 -30.5t-23 -21.5t-42.5 -14.5t-64.5 -8.5h-5zM1898 151q66 0 116 13t83.5 35.5t51 52t17.5 63.5q0 46 -32 74t-80.5 46t-105 29t-105 24
t-80.5 30.5t-32 47.5q0 14 9 28.5t29 26.5t51.5 19.5t75.5 7.5q48 0 101.5 -14.5t100.5 -54.5l37 83q-21 15 -48.5 27.5t-59 21.5t-64.5 14t-66 5q-69 0 -117.5 -13t-79 -35t-44.5 -52t-14 -64q0 -3 0.5 -6t0.5 -7q-34 55 -93.5 89.5t-130.5 53.5t-146.5 26t-142.5 7
q-62 0 -110 -3.5t-74 -6.5v-95q14 2 34 3.5t43.5 3.5t49 3t49.5 1l-214 -475h110l213 474q125 -3 199.5 -33.5t110 -75t36 -71t0.5 -28.5q0 -49 -23 -91.5t-66 -71.5t-96 -29q-22 0 -52 7t-58.5 22t-51.5 39.5t-32 59.5l-85 -21q12 -49 39.5 -85.5t65 -61t81.5 -36.5t90 -12
q53 0 103.5 16t91 47t66.5 78t30 108q1 10 1 20q0 36 -9 69q25 -28 64 -46.5t84 -31t90.5 -21.5t82.5 -19t60 -24t23 -36q0 -18 -14 -31.5t-38 -22.5t-55 -13.5t-65 -4.5q-59 0 -118 17t-102 56l-36 -81q46 -32 112 -53.5t138 -21.5zM908 717h-250v-557h250v92h-153v141h126
v91h-126v141h153v92zM649 160q-8 90 -31 162q-10 31 -24.5 61t-34 54t-45 39.5t-58.5 18.5l149 222h-114l-188 -288q-2 -2 -2.5 -3.5t-1.5 -1.5v293h-101v-557h95q2 71 17 127q6 24 15 46.5t22.5 40t31.5 28.5t42 11q21 0 37.5 -11t29.5 -28.5t22 -40t16 -46.5
q15 -56 21 -127h102z" />
    <glyph glyph-name="germandbls" unicode="&#xdf;" 
d="M2317 1466v-1466h-2280v1466h2280zM198 749h94v95q6 64 24 132.5t53 125.5t88.5 93.5t130.5 36.5q63 0 100.5 -12.5t56.5 -26.5q41 -28 41 -67q0 -18 -10.5 -35.5t-31.5 -31.5t-51.5 -22.5t-71.5 -8.5q-101 0 -172 46l-92 -69q1 -2 1 -3t1 -2q18 -37 48.5 -83t73 -86.5
t99 -68t127.5 -27.5q39 0 83 15.5t84 42.5l-50 72q-28 -19 -60 -30.5t-57 -11.5q-38 0 -71 12t-60.5 31.5t-50.5 44t-41 50.5q63 -20 137 -20q88 0 145 29.5t84 74.5l-2 -83q2 0 15 -0.5t33 -0.5q2 -8 10 -28t23 -45t38.5 -52t57 -49.5t77.5 -37t100 -14.5q67 0 133 30
t121 99l-65 60q-42 -54 -91 -77.5t-98 -23.5q-33 0 -66 9.5t-61.5 27.5t-51 43.5t-35.5 56.5q32 0 58.5 -0.5t43.5 -0.5t41.5 0.5t55 2t53.5 3.5h6q21 2 58 7t72 21t61 48t26 87q0 34 -18 68.5t-50.5 62.5t-76 44.5t-93.5 16.5h-11q-67 -2 -123.5 -25.5t-99 -61.5t-68.5 -86
t-32 -98q-14 1 -24 1h-14q20 37 20 76q0 40 -20 76.5t-58 62.5q-78 55 -207 55q-96 0 -170 -44.5t-126 -131.5v161h-94v-556zM2178 984q1 13 1 25q0 56 -21.5 104t-63 85t-98.5 60.5t-119.5 36.5t-126.5 18t-122 5q-62 0 -110 -3.5t-74 -6.5v-95q28 3 78 7t99 4l-214 -475
h109l214 473q93 -2 158.5 -20t106.5 -46.5t60 -64.5t20 -57t1 -25q0 -32 -13 -65t-38.5 -60.5t-60 -44.5t-73.5 -17q-22 0 -52 7t-58.5 22t-51.5 39.5t-32 60.5l-85 -22q12 -49 39.5 -85.5t65 -60.5t81.5 -36t89 -12q53 0 103.5 15.5t91 47t66.5 78t30 108.5zM1233 1053
q-23 -2 -53.5 -3t-64 -1.5t-69 -0.5h-67.5q8 41 31 74.5t56 57.5t73 37.5t80 13.5q37 0 71 -12.5t61 -38.5q24 -24 24 -52q0 -18 -7 -30.5t-23 -21.5t-42.5 -14.5t-64.5 -8.5h-5zM1898 151q66 0 116 13t83.5 35.5t51 52t17.5 63.5q0 46 -32 74t-80.5 46t-105 29t-105 24
t-80.5 30.5t-32 47.5q0 14 9 28.5t29 26.5t51.5 19.5t75.5 7.5q48 0 101.5 -14.5t100.5 -54.5l37 83q-21 15 -48.5 27.5t-59 21.5t-64.5 14t-66 5q-69 0 -117.5 -13t-79 -35t-44.5 -52t-14 -64q0 -3 0.5 -6t0.5 -7q-34 55 -93.5 89.5t-130.5 53.5t-146.5 26t-142.5 7
q-62 0 -110 -3.5t-74 -6.5v-95q14 2 34 3.5t43.5 3.5t49 3t49.5 1l-214 -475h110l213 474q125 -3 199.5 -33.5t110 -75t36 -71t0.5 -28.5q0 -49 -23 -91.5t-66 -71.5t-96 -29q-22 0 -52 7t-58.5 22t-51.5 39.5t-32 59.5l-85 -21q12 -49 39.5 -85.5t65 -61t81.5 -36.5t90 -12
q53 0 103.5 16t91 47t66.5 78t30 108q1 10 1 20q0 36 -9 69q25 -28 64 -46.5t84 -31t90.5 -21.5t82.5 -19t60 -24t23 -36q0 -18 -14 -31.5t-38 -22.5t-55 -13.5t-65 -4.5q-59 0 -118 17t-102 56l-36 -81q46 -32 112 -53.5t138 -21.5zM908 717h-250v-557h250v92h-153v141h126
v91h-126v141h153v92zM649 160q-8 90 -31 162q-10 31 -24.5 61t-34 54t-45 39.5t-58.5 18.5l149 222h-114l-188 -288q-2 -2 -2.5 -3.5t-1.5 -1.5v293h-101v-557h95q2 71 17 127q6 24 15 46.5t22.5 40t31.5 28.5t42 11q21 0 37.5 -11t29.5 -28.5t22 -40t16 -46.5
q15 -56 21 -127h102z" />
    <glyph glyph-name="agrave" unicode="&#xe0;" 
d="M2317 1466v-1466h-2280v1466h2280zM198 749h94v95q6 64 24 132.5t53 125.5t88.5 93.5t130.5 36.5q63 0 100.5 -12.5t56.5 -26.5q41 -28 41 -67q0 -18 -10.5 -35.5t-31.5 -31.5t-51.5 -22.5t-71.5 -8.5q-101 0 -172 46l-92 -69q1 -2 1 -3t1 -2q18 -37 48.5 -83t73 -86.5
t99 -68t127.5 -27.5q39 0 83 15.5t84 42.5l-50 72q-28 -19 -60 -30.5t-57 -11.5q-38 0 -71 12t-60.5 31.5t-50.5 44t-41 50.5q63 -20 137 -20q88 0 145 29.5t84 74.5l-2 -83q2 0 15 -0.5t33 -0.5q2 -8 10 -28t23 -45t38.5 -52t57 -49.5t77.5 -37t100 -14.5q67 0 133 30
t121 99l-65 60q-42 -54 -91 -77.5t-98 -23.5q-33 0 -66 9.5t-61.5 27.5t-51 43.5t-35.5 56.5q32 0 58.5 -0.5t43.5 -0.5t41.5 0.5t55 2t53.5 3.5h6q21 2 58 7t72 21t61 48t26 87q0 34 -18 68.5t-50.5 62.5t-76 44.5t-93.5 16.5h-11q-67 -2 -123.5 -25.5t-99 -61.5t-68.5 -86
t-32 -98q-14 1 -24 1h-14q20 37 20 76q0 40 -20 76.5t-58 62.5q-78 55 -207 55q-96 0 -170 -44.5t-126 -131.5v161h-94v-556zM2178 984q1 13 1 25q0 56 -21.5 104t-63 85t-98.5 60.5t-119.5 36.5t-126.5 18t-122 5q-62 0 -110 -3.5t-74 -6.5v-95q28 3 78 7t99 4l-214 -475
h109l214 473q93 -2 158.5 -20t106.5 -46.5t60 -64.5t20 -57t1 -25q0 -32 -13 -65t-38.5 -60.5t-60 -44.5t-73.5 -17q-22 0 -52 7t-58.5 22t-51.5 39.5t-32 60.5l-85 -22q12 -49 39.5 -85.5t65 -60.5t81.5 -36t89 -12q53 0 103.5 15.5t91 47t66.5 78t30 108.5zM1233 1053
q-23 -2 -53.5 -3t-64 -1.5t-69 -0.5h-67.5q8 41 31 74.5t56 57.5t73 37.5t80 13.5q37 0 71 -12.5t61 -38.5q24 -24 24 -52q0 -18 -7 -30.5t-23 -21.5t-42.5 -14.5t-64.5 -8.5h-5zM1898 151q66 0 116 13t83.5 35.5t51 52t17.5 63.5q0 46 -32 74t-80.5 46t-105 29t-105 24
t-80.5 30.5t-32 47.5q0 14 9 28.5t29 26.5t51.5 19.5t75.5 7.5q48 0 101.5 -14.5t100.5 -54.5l37 83q-21 15 -48.5 27.5t-59 21.5t-64.5 14t-66 5q-69 0 -117.5 -13t-79 -35t-44.5 -52t-14 -64q0 -3 0.5 -6t0.5 -7q-34 55 -93.5 89.5t-130.5 53.5t-146.5 26t-142.5 7
q-62 0 -110 -3.5t-74 -6.5v-95q14 2 34 3.5t43.5 3.5t49 3t49.5 1l-214 -475h110l213 474q125 -3 199.5 -33.5t110 -75t36 -71t0.5 -28.5q0 -49 -23 -91.5t-66 -71.5t-96 -29q-22 0 -52 7t-58.5 22t-51.5 39.5t-32 59.5l-85 -21q12 -49 39.5 -85.5t65 -61t81.5 -36.5t90 -12
q53 0 103.5 16t91 47t66.5 78t30 108q1 10 1 20q0 36 -9 69q25 -28 64 -46.5t84 -31t90.5 -21.5t82.5 -19t60 -24t23 -36q0 -18 -14 -31.5t-38 -22.5t-55 -13.5t-65 -4.5q-59 0 -118 17t-102 56l-36 -81q46 -32 112 -53.5t138 -21.5zM908 717h-250v-557h250v92h-153v141h126
v91h-126v141h153v92zM649 160q-8 90 -31 162q-10 31 -24.5 61t-34 54t-45 39.5t-58.5 18.5l149 222h-114l-188 -288q-2 -2 -2.5 -3.5t-1.5 -1.5v293h-101v-557h95q2 71 17 127q6 24 15 46.5t22.5 40t31.5 28.5t42 11q21 0 37.5 -11t29.5 -28.5t22 -40t16 -46.5
q15 -56 21 -127h102z" />
    <glyph glyph-name="aacute" unicode="&#xe1;" 
d="M2317 1466v-1466h-2280v1466h2280zM198 749h94v95q6 64 24 132.5t53 125.5t88.5 93.5t130.5 36.5q63 0 100.5 -12.5t56.5 -26.5q41 -28 41 -67q0 -18 -10.5 -35.5t-31.5 -31.5t-51.5 -22.5t-71.5 -8.5q-101 0 -172 46l-92 -69q1 -2 1 -3t1 -2q18 -37 48.5 -83t73 -86.5
t99 -68t127.5 -27.5q39 0 83 15.5t84 42.5l-50 72q-28 -19 -60 -30.5t-57 -11.5q-38 0 -71 12t-60.5 31.5t-50.5 44t-41 50.5q63 -20 137 -20q88 0 145 29.5t84 74.5l-2 -83q2 0 15 -0.5t33 -0.5q2 -8 10 -28t23 -45t38.5 -52t57 -49.5t77.5 -37t100 -14.5q67 0 133 30
t121 99l-65 60q-42 -54 -91 -77.5t-98 -23.5q-33 0 -66 9.5t-61.5 27.5t-51 43.5t-35.5 56.5q32 0 58.5 -0.5t43.5 -0.5t41.5 0.5t55 2t53.5 3.5h6q21 2 58 7t72 21t61 48t26 87q0 34 -18 68.5t-50.5 62.5t-76 44.5t-93.5 16.5h-11q-67 -2 -123.5 -25.5t-99 -61.5t-68.5 -86
t-32 -98q-14 1 -24 1h-14q20 37 20 76q0 40 -20 76.5t-58 62.5q-78 55 -207 55q-96 0 -170 -44.5t-126 -131.5v161h-94v-556zM2178 984q1 13 1 25q0 56 -21.5 104t-63 85t-98.5 60.5t-119.5 36.5t-126.5 18t-122 5q-62 0 -110 -3.5t-74 -6.5v-95q28 3 78 7t99 4l-214 -475
h109l214 473q93 -2 158.5 -20t106.5 -46.5t60 -64.5t20 -57t1 -25q0 -32 -13 -65t-38.5 -60.5t-60 -44.5t-73.5 -17q-22 0 -52 7t-58.5 22t-51.5 39.5t-32 60.5l-85 -22q12 -49 39.5 -85.5t65 -60.5t81.5 -36t89 -12q53 0 103.5 15.5t91 47t66.5 78t30 108.5zM1233 1053
q-23 -2 -53.5 -3t-64 -1.5t-69 -0.5h-67.5q8 41 31 74.5t56 57.5t73 37.5t80 13.5q37 0 71 -12.5t61 -38.5q24 -24 24 -52q0 -18 -7 -30.5t-23 -21.5t-42.5 -14.5t-64.5 -8.5h-5zM1898 151q66 0 116 13t83.5 35.5t51 52t17.5 63.5q0 46 -32 74t-80.5 46t-105 29t-105 24
t-80.5 30.5t-32 47.5q0 14 9 28.5t29 26.5t51.5 19.5t75.5 7.5q48 0 101.5 -14.5t100.5 -54.5l37 83q-21 15 -48.5 27.5t-59 21.5t-64.5 14t-66 5q-69 0 -117.5 -13t-79 -35t-44.5 -52t-14 -64q0 -3 0.5 -6t0.5 -7q-34 55 -93.5 89.5t-130.5 53.5t-146.5 26t-142.5 7
q-62 0 -110 -3.5t-74 -6.5v-95q14 2 34 3.5t43.5 3.5t49 3t49.5 1l-214 -475h110l213 474q125 -3 199.5 -33.5t110 -75t36 -71t0.5 -28.5q0 -49 -23 -91.5t-66 -71.5t-96 -29q-22 0 -52 7t-58.5 22t-51.5 39.5t-32 59.5l-85 -21q12 -49 39.5 -85.5t65 -61t81.5 -36.5t90 -12
q53 0 103.5 16t91 47t66.5 78t30 108q1 10 1 20q0 36 -9 69q25 -28 64 -46.5t84 -31t90.5 -21.5t82.5 -19t60 -24t23 -36q0 -18 -14 -31.5t-38 -22.5t-55 -13.5t-65 -4.5q-59 0 -118 17t-102 56l-36 -81q46 -32 112 -53.5t138 -21.5zM908 717h-250v-557h250v92h-153v141h126
v91h-126v141h153v92zM649 160q-8 90 -31 162q-10 31 -24.5 61t-34 54t-45 39.5t-58.5 18.5l149 222h-114l-188 -288q-2 -2 -2.5 -3.5t-1.5 -1.5v293h-101v-557h95q2 71 17 127q6 24 15 46.5t22.5 40t31.5 28.5t42 11q21 0 37.5 -11t29.5 -28.5t22 -40t16 -46.5
q15 -56 21 -127h102z" />
    </font>
</defs>
</svg>
